<?xml version="1.0" encoding="UTF-8" standalone="no"?>
<!DOCTYPE svg PUBLIC "-//W3C//DTD SVG 1.1//EN"
 "http://www.w3.org/Graphics/SVG/1.1/DTD/svg11.dtd">
<!-- Generated by graphviz version 15.0.0 (20260523.1842)
 -->
<!-- Title: rear&#45;boot Pages: 1 -->
<svg width="381pt" height="588pt"
 viewBox="0.00 0.00 381.00 588.00" xmlns="http://www.w3.org/2000/svg" xmlns:xlink="http://www.w3.org/1999/xlink">
<g id="graph0" class="graph" transform="scale(1 1) rotate(0) translate(4 584)">
<title>rear&#45;boot</title>
<!-- bh3 -->
<g id="node1" class="node">
<title>bh3</title>
<path fill="#1c2530" stroke="#5a6678" stroke-width="2" d="M70,-240C70,-240 40,-240 40,-240 34,-240 28,-234 28,-228 28,-228 28,-216 28,-216 28,-210 34,-204 40,-204 40,-204 70,-204 70,-204 76,-204 82,-210 82,-216 82,-216 82,-228 82,-228 82,-234 76,-240 70,-240"/>
<text xml:space="preserve" text-anchor="middle" x="55" y="-218.12" font-family="Helvetica,sans-Serif" font-size="10.00" fill="#e7ecf3">BH3</text>
</g>
<!-- tail&#45;rl -->
<g id="node2" class="node">
<title>tail&#45;rl</title>
<path fill="#161d28" stroke="#2a323f" d="M283.5,-580C283.5,-580 176.75,-580 176.75,-580 170.75,-580 164.75,-574 164.75,-568 164.75,-568 164.75,-556 164.75,-556 164.75,-550 170.75,-544 176.75,-544 176.75,-544 283.5,-544 283.5,-544 289.5,-544 295.5,-550 295.5,-556 295.5,-556 295.5,-568 295.5,-568 295.5,-574 289.5,-580 283.5,-580"/>
<text xml:space="preserve" text-anchor="middle" x="230.12" y="-558.12" font-family="Helvetica,sans-Serif" font-size="10.00" fill="#e7ecf3">Tail/position + brake LEFT</text>
</g>
<!-- bh3&#45;&gt;tail&#45;rl -->
<g id="edge1" class="edge">
<title>bh3&#45;&gt;tail&#45;rl</title>
<path fill="none" stroke="#8bd17c" d="M55.25,-240.91C55.25,-311.57 55.25,-556 55.25,-556 55.25,-556 114.89,-556 164.51,-556"/>
<text xml:space="preserve" text-anchor="middle" x="31.25" y="-445.49" font-family="Helvetica,sans-Serif" font-size="8.00" fill="#8bd17c">POS.REAR.L</text>
</g>
<!-- bh3&#45;&gt;tail&#45;rl -->
<g id="edge7" class="edge">
<title>bh3&#45;&gt;tail&#45;rl</title>
<path fill="none" stroke="#56b4e9" d="M41.25,-240.6C41.25,-312.47 41.25,-568 41.25,-568 41.25,-568 109.82,-568 164.33,-568"/>
<text xml:space="preserve" text-anchor="middle" x="20.62" y="-458.24" font-family="Helvetica,sans-Serif" font-size="8.00" fill="#56b4e9">BRK.OUT.L</text>
</g>
<!-- turn&#45;rl -->
<g id="node6" class="node">
<title>turn&#45;rl</title>
<path fill="#161d28" stroke="#2a323f" d="M259.88,-308C259.88,-308 200.38,-308 200.38,-308 194.38,-308 188.38,-302 188.38,-296 188.38,-296 188.38,-284 188.38,-284 188.38,-278 194.38,-272 200.38,-272 200.38,-272 259.88,-272 259.88,-272 265.88,-272 271.88,-278 271.88,-284 271.88,-284 271.88,-296 271.88,-296 271.88,-302 265.88,-308 259.88,-308"/>
<text xml:space="preserve" text-anchor="middle" x="230.12" y="-286.12" font-family="Helvetica,sans-Serif" font-size="10.00" fill="#e7ecf3">Rear turn LEFT</text>
</g>
<!-- bh3&#45;&gt;turn&#45;rl -->
<g id="edge5" class="edge">
<title>bh3&#45;&gt;turn&#45;rl</title>
<path fill="none" stroke="#56b4e9" d="M68.25,-240.94C68.25,-261.06 68.25,-290 68.25,-290 68.25,-290 140.05,-290 188.02,-290"/>
<text xml:space="preserve" text-anchor="middle" x="75.48" y="-282.4" font-family="Helvetica,sans-Serif" font-size="8.00" fill="#56b4e9">TURN.L.OUT.R</text>
</g>
<!-- turn&#45;rr -->
<g id="node7" class="node">
<title>turn&#45;rr</title>
<path fill="#161d28" stroke="#2a323f" d="M263.62,-240C263.62,-240 196.62,-240 196.62,-240 190.62,-240 184.62,-234 184.62,-228 184.62,-228 184.62,-216 184.62,-216 184.62,-210 190.62,-204 196.62,-204 196.62,-204 263.62,-204 263.62,-204 269.62,-204 275.62,-210 275.62,-216 275.62,-216 275.62,-228 275.62,-228 275.62,-234 269.62,-240 263.62,-240"/>
<text xml:space="preserve" text-anchor="middle" x="230.12" y="-218.12" font-family="Helvetica,sans-Serif" font-size="10.00" fill="#e7ecf3">Rear turn RIGHT</text>
</g>
<!-- bh3&#45;&gt;turn&#45;rr -->
<g id="edge6" class="edge">
<title>bh3&#45;&gt;turn&#45;rr</title>
<path fill="none" stroke="#56b4e9" d="M82.75,-222C110.04,-222 152.19,-222 184.43,-222"/>
<text xml:space="preserve" text-anchor="middle" x="104.72" y="-214.4" font-family="Helvetica,sans-Serif" font-size="8.00" fill="#56b4e9">TURN.R.OUT.R</text>
</g>
<!-- reverse -->
<g id="node8" class="node">
<title>reverse</title>
<path fill="#161d28" stroke="#2a323f" d="M255,-172C255,-172 205.25,-172 205.25,-172 199.25,-172 193.25,-166 193.25,-160 193.25,-160 193.25,-148 193.25,-148 193.25,-142 199.25,-136 205.25,-136 205.25,-136 255,-136 255,-136 261,-136 267,-142 267,-148 267,-148 267,-160 267,-160 267,-166 261,-172 255,-172"/>
<text xml:space="preserve" text-anchor="middle" x="230.12" y="-150.12" font-family="Helvetica,sans-Serif" font-size="10.00" fill="#e7ecf3">Reverse light</text>
</g>
<!-- bh3&#45;&gt;reverse -->
<g id="edge9" class="edge">
<title>bh3&#45;&gt;reverse</title>
<path fill="none" stroke="#56b4e9" d="M68.25,-203.06C68.25,-182.94 68.25,-154 68.25,-154 68.25,-154 145.2,-154 192.99,-154"/>
<text xml:space="preserve" text-anchor="middle" x="88.46" y="-146.4" font-family="Helvetica,sans-Serif" font-size="8.00" fill="#56b4e9">REV.OUT</text>
</g>
<!-- fuel&#45;pump -->
<g id="node10" class="node">
<title>fuel&#45;pump</title>
<path fill="#161d28" stroke="#2a323f" d="M265.5,-104C265.5,-104 194.75,-104 194.75,-104 188.75,-104 182.75,-98 182.75,-92 182.75,-92 182.75,-80 182.75,-80 182.75,-74 188.75,-68 194.75,-68 194.75,-68 265.5,-68 265.5,-68 271.5,-68 277.5,-74 277.5,-80 277.5,-80 277.5,-92 277.5,-92 277.5,-98 271.5,-104 265.5,-104"/>
<text xml:space="preserve" text-anchor="middle" x="230.12" y="-82.12" font-family="Helvetica,sans-Serif" font-size="10.00" fill="#e7ecf3">Electric fuel pump</text>
</g>
<!-- bh3&#45;&gt;fuel&#45;pump -->
<g id="edge11" class="edge">
<title>bh3&#45;&gt;fuel&#45;pump</title>
<path fill="none" stroke="#e87c7c" d="M55.25,-203.09C55.25,-165.72 55.25,-86 55.25,-86 55.25,-86 130.56,-86 182.34,-86"/>
<text xml:space="preserve" text-anchor="middle" x="40" y="-78.4" font-family="Helvetica,sans-Serif" font-size="8.00" fill="#e87c7c">FUEL.OUT</text>
</g>
<!-- tail&#45;rr -->
<g id="node3" class="node">
<title>tail&#45;rr</title>
<path fill="#161d28" stroke="#2a323f" d="M287.25,-444C287.25,-444 173,-444 173,-444 167,-444 161,-438 161,-432 161,-432 161,-420 161,-420 161,-414 167,-408 173,-408 173,-408 287.25,-408 287.25,-408 293.25,-408 299.25,-414 299.25,-420 299.25,-420 299.25,-432 299.25,-432 299.25,-438 293.25,-444 287.25,-444"/>
<text xml:space="preserve" text-anchor="middle" x="230.12" y="-422.12" font-family="Helvetica,sans-Serif" font-size="10.00" fill="#e7ecf3">Tail/position + brake RIGHT</text>
</g>
<!-- tail&#45;rl&#45;&gt;tail&#45;rr -->
<g id="edge2" class="edge">
<title>tail&#45;rl&#45;&gt;tail&#45;rr</title>
<path fill="none" stroke="#8bd17c" d="M295.81,-568C311.22,-568 323.25,-568 323.25,-568 323.25,-568 323.25,-420 323.25,-420 323.25,-420 312.98,-420 299.27,-420"/>
<text xml:space="preserve" text-anchor="middle" x="348" y="-488.13" font-family="Helvetica,sans-Serif" font-size="8.00" fill="#8bd17c">POS.REAR.R</text>
</g>
<!-- tail&#45;rl&#45;&gt;tail&#45;rr -->
<g id="edge8" class="edge">
<title>tail&#45;rl&#45;&gt;tail&#45;rr</title>
<path fill="none" stroke="#56b4e9" d="M295.99,-556C305.01,-556 311.25,-556 311.25,-556 311.25,-556 311.25,-432 311.25,-432 311.25,-432 306.64,-432 299.63,-432"/>
<text xml:space="preserve" text-anchor="middle" x="328.5" y="-497.22" font-family="Helvetica,sans-Serif" font-size="8.00" fill="#56b4e9">BRK.JMP</text>
</g>
<!-- plate -->
<g id="node4" class="node">
<title>plate</title>
<path fill="#161d28" stroke="#2a323f" d="M279.38,-512C279.38,-512 180.88,-512 180.88,-512 174.88,-512 168.88,-506 168.88,-500 168.88,-500 168.88,-488 168.88,-488 168.88,-482 174.88,-476 180.88,-476 180.88,-476 279.38,-476 279.38,-476 285.38,-476 291.38,-482 291.38,-488 291.38,-488 291.38,-500 291.38,-500 291.38,-506 285.38,-512 279.38,-512"/>
<text xml:space="preserve" text-anchor="middle" x="230.12" y="-490.12" font-family="Helvetica,sans-Serif" font-size="10.00" fill="#e7ecf3">Number&#45;plate light LEFT</text>
</g>
<!-- tail&#45;rl&#45;&gt;plate -->
<g id="edge3" class="edge">
<title>tail&#45;rl&#45;&gt;plate</title>
<path fill="none" stroke="#8bd17c" d="M230.25,-543.78C230.25,-534.02 230.25,-522.04 230.25,-512.27"/>
<text xml:space="preserve" text-anchor="middle" x="214.5" y="-520.43" font-family="Helvetica,sans-Serif" font-size="8.00" fill="#8bd17c">PLATE.L</text>
</g>
<!-- plate&#45;r -->
<g id="node5" class="node">
<title>plate&#45;r</title>
<path fill="#161d28" stroke="#2a323f" d="M283.12,-376C283.12,-376 177.12,-376 177.12,-376 171.12,-376 165.12,-370 165.12,-364 165.12,-364 165.12,-352 165.12,-352 165.12,-346 171.12,-340 177.12,-340 177.12,-340 283.12,-340 283.12,-340 289.12,-340 295.12,-346 295.12,-352 295.12,-352 295.12,-364 295.12,-364 295.12,-370 289.12,-376 283.12,-376"/>
<text xml:space="preserve" text-anchor="middle" x="230.12" y="-354.12" font-family="Helvetica,sans-Serif" font-size="10.00" fill="#e7ecf3">Number&#45;plate light RIGHT</text>
</g>
<!-- tail&#45;rr&#45;&gt;plate&#45;r -->
<g id="edge4" class="edge">
<title>tail&#45;rr&#45;&gt;plate&#45;r</title>
<path fill="none" stroke="#8bd17c" d="M230.25,-407.78C230.25,-398.02 230.25,-386.04 230.25,-376.27"/>
<text xml:space="preserve" text-anchor="middle" x="213.75" y="-384.43" font-family="Helvetica,sans-Serif" font-size="8.00" fill="#8bd17c">PLATE.R</text>
</g>
<!-- snd&#45;fuel -->
<g id="node9" class="node">
<title>snd&#45;fuel</title>
<path fill="#161d28" stroke="#2a323f" d="M262.5,-36C262.5,-36 197.75,-36 197.75,-36 191.75,-36 185.75,-30 185.75,-24 185.75,-24 185.75,-12 185.75,-12 185.75,-6 191.75,0 197.75,0 197.75,0 262.5,0 262.5,0 268.5,0 274.5,-6 274.5,-12 274.5,-12 274.5,-24 274.5,-24 274.5,-30 268.5,-36 262.5,-36"/>
<text xml:space="preserve" text-anchor="middle" x="230.12" y="-14.12" font-family="Helvetica,sans-Serif" font-size="10.00" fill="#e7ecf3">Fuel&#45;tank sender</text>
</g>
<!-- snd&#45;fuel&#45;&gt;bh3 -->
<g id="edge10" class="edge">
<title>snd&#45;fuel&#45;&gt;bh3</title>
<path fill="none" stroke="#b07cd1" d="M185.36,-18C129.51,-18 41.25,-18 41.25,-18 41.25,-18 41.25,-152.67 41.25,-203.17"/>
<text xml:space="preserve" text-anchor="middle" x="22.88" y="-30.93" font-family="Helvetica,sans-Serif" font-size="8.00" fill="#b07cd1">FUEL.SIG</text>
</g>
</g>
</svg>
