<?xml version="1.0" encoding="UTF-8" standalone="no"?>
<!DOCTYPE svg PUBLIC "-//W3C//DTD SVG 1.1//EN"
 "http://www.w3.org/Graphics/SVG/1.1/DTD/svg11.dtd">
<!-- Generated by graphviz version 15.0.0 (20260523.1842)
 -->
<!-- Title: switch&#45;cluster Pages: 1 -->
<svg width="580pt" height="119pt"
 viewBox="0.00 0.00 580.00 119.00" xmlns="http://www.w3.org/2000/svg" xmlns:xlink="http://www.w3.org/1999/xlink">
<g id="graph0" class="graph" transform="scale(1 1) rotate(0) translate(4 115)">
<title>switch&#45;cluster</title>
<!-- sw&#45;instr -->
<g id="node1" class="node">
<title>sw&#45;instr</title>
<path fill="#161d28" stroke="#2a323f" d="M388,-111C388,-111 297,-111 297,-111 291,-111 285,-105 285,-99 285,-99 285,-87 285,-87 285,-81 291,-75 297,-75 297,-75 388,-75 388,-75 394,-75 400,-81 400,-87 400,-87 400,-99 400,-99 400,-105 394,-111 388,-111"/>
<text xml:space="preserve" text-anchor="middle" x="342.5" y="-89.12" font-family="Helvetica,sans-Serif" font-size="10.00" fill="#e7ecf3">Instrument&#45;light switch</text>
</g>
<!-- sw3 -->
<g id="node2" class="node">
<title>sw3</title>
<path fill="#1c2530" stroke="#5a6678" stroke-width="2" d="M42,-70C42,-70 12,-70 12,-70 6,-70 0,-64 0,-58 0,-58 0,-46 0,-46 0,-40 6,-34 12,-34 12,-34 42,-34 42,-34 48,-34 54,-40 54,-46 54,-46 54,-58 54,-58 54,-64 48,-70 42,-70"/>
<text xml:space="preserve" text-anchor="middle" x="27" y="-48.12" font-family="Helvetica,sans-Serif" font-size="10.00" fill="#e7ecf3">SW3</text>
</g>
<!-- sw&#45;instr&#45;&gt;sw3 -->
<g id="edge1" class="edge">
<title>sw&#45;instr&#45;&gt;sw3</title>
<path fill="none" stroke="#b07cd1" d="M284.53,-102C191.26,-102 18.25,-102 18.25,-102 18.25,-102 18.25,-85.06 18.25,-70.9"/>
<text xml:space="preserve" text-anchor="middle" x="121.59" y="-94.4" font-family="Helvetica,sans-Serif" font-size="8.00" fill="#b07cd1">ILL.DIM</text>
</g>
<!-- sw&#45;instr&#45;&gt;sw3 -->
<g id="edge2" class="edge">
<title>sw&#45;instr&#45;&gt;sw3</title>
<path fill="none" stroke="#b07cd1" d="M284.54,-93C195.75,-93 36.25,-93 36.25,-93 36.25,-93 36.25,-81.43 36.25,-70.58"/>
<text xml:space="preserve" text-anchor="middle" x="134.56" y="-85.4" font-family="Helvetica,sans-Serif" font-size="8.00" fill="#b07cd1">ILL.BRT</text>
</g>
<!-- sw&#45;heaterfan -->
<g id="node4" class="node">
<title>sw&#45;heaterfan</title>
<path fill="#161d28" stroke="#2a323f" d="M560.25,-36C560.25,-36 491,-36 491,-36 485,-36 479,-30 479,-24 479,-24 479,-12 479,-12 479,-6 485,0 491,0 491,0 560.25,0 560.25,0 566.25,0 572.25,-6 572.25,-12 572.25,-12 572.25,-24 572.25,-24 572.25,-30 566.25,-36 560.25,-36"/>
<text xml:space="preserve" text-anchor="middle" x="525.62" y="-14.12" font-family="Helvetica,sans-Serif" font-size="10.00" fill="#e7ecf3">Heater&#45;fan switch</text>
</g>
<!-- sw&#45;instr&#45;&gt;sw&#45;heaterfan -->
<g id="edge5" class="edge">
<title>sw&#45;instr&#45;&gt;sw&#45;heaterfan</title>
<path fill="none" stroke="#b07cd1" d="M400.32,-93C453.86,-93 525.25,-93 525.25,-93 525.25,-93 525.25,-58.35 525.25,-36.16"/>
<text xml:space="preserve" text-anchor="middle" x="472.83" y="-85.4" font-family="Helvetica,sans-Serif" font-size="8.00" fill="#b07cd1">SW3.+I.J2</text>
</g>
<!-- sw&#45;wiper -->
<g id="node3" class="node">
<title>sw&#45;wiper</title>
<path fill="#161d28" stroke="#2a323f" d="M194,-70C194,-70 145,-70 145,-70 139,-70 133,-64 133,-58 133,-58 133,-46 133,-46 133,-40 139,-34 145,-34 145,-34 194,-34 194,-34 200,-34 206,-40 206,-46 206,-46 206,-58 206,-58 206,-64 200,-70 194,-70"/>
<text xml:space="preserve" text-anchor="middle" x="169.5" y="-48.12" font-family="Helvetica,sans-Serif" font-size="10.00" fill="#e7ecf3">Wiper switch</text>
</g>
<!-- sw3&#45;&gt;sw&#45;wiper -->
<g id="edge3" class="edge">
<title>sw3&#45;&gt;sw&#45;wiper</title>
<path fill="none" stroke="#b07cd1" d="M54.81,-61C77.01,-61 108.29,-61 132.58,-61"/>
<text xml:space="preserve" text-anchor="middle" x="80.57" y="-53.4" font-family="Helvetica,sans-Serif" font-size="8.00" fill="#b07cd1">SW3.+I</text>
</g>
<!-- sw&#45;wiper&#45;&gt;sw&#45;instr -->
<g id="edge4" class="edge">
<title>sw&#45;wiper&#45;&gt;sw&#45;instr</title>
<path fill="none" stroke="#b07cd1" d="M169.25,-70.24C169.25,-77.43 169.25,-84 169.25,-84 169.25,-84 234.41,-84 284.81,-84"/>
<text xml:space="preserve" text-anchor="middle" x="201.78" y="-76.4" font-family="Helvetica,sans-Serif" font-size="8.00" fill="#b07cd1">SW3.+I.J1</text>
</g>
<!-- sw&#45;wiper&#45;&gt;sw3 -->
<g id="edge6" class="edge">
<title>sw&#45;wiper&#45;&gt;sw3</title>
<path fill="none" stroke="#4bc0c0" d="M132.8,-43C108.39,-43 76.84,-43 54.57,-43"/>
<text xml:space="preserve" text-anchor="middle" x="67.44" y="-35.4" font-family="Helvetica,sans-Serif" font-size="8.00" fill="#4bc0c0">WIPE.LO.TRG</text>
</g>
<!-- sw&#45;wiper&#45;&gt;sw3 -->
<g id="edge7" class="edge">
<title>sw&#45;wiper&#45;&gt;sw3</title>
<path fill="none" stroke="#4bc0c0" d="M132.8,-52C108.39,-52 76.84,-52 54.57,-52"/>
<text xml:space="preserve" text-anchor="middle" x="68.56" y="-44.4" font-family="Helvetica,sans-Serif" font-size="8.00" fill="#4bc0c0">WIPE.HI.TRG</text>
</g>
<!-- sw&#45;heaterfan&#45;&gt;sw3 -->
<g id="edge8" class="edge">
<title>sw&#45;heaterfan&#45;&gt;sw3</title>
<path fill="none" stroke="#7cd1c4" d="M478.74,-17C354.68,-17 27.25,-17 27.25,-17 27.25,-17 27.25,-24.95 27.25,-33.27"/>
<text xml:space="preserve" text-anchor="middle" x="227.23" y="-9.4" font-family="Helvetica,sans-Serif" font-size="8.00" fill="#7cd1c4">FAN.TRG</text>
</g>
</g>
</svg>
