<?xml version="1.0" encoding="UTF-8" standalone="no"?>
<!DOCTYPE svg PUBLIC "-//W3C//DTD SVG 1.1//EN"
 "http://www.w3.org/Graphics/SVG/1.1/DTD/svg11.dtd">
<!-- Generated by graphviz version 15.0.0 (20260523.1842)
 -->
<!-- Title: front&#45;clip Pages: 1 -->
<svg width="508pt" height="656pt"
 viewBox="0.00 0.00 508.00 656.00" xmlns="http://www.w3.org/2000/svg" xmlns:xlink="http://www.w3.org/1999/xlink">
<g id="graph0" class="graph" transform="scale(1 1) rotate(0) translate(4 652)">
<title>front&#45;clip</title>
<!-- battery -->
<g id="node1" class="node">
<title>battery</title>
<path fill="#161d28" stroke="#2a323f" d="M71.75,-580C71.75,-580 41.75,-580 41.75,-580 35.75,-580 29.75,-574 29.75,-568 29.75,-568 29.75,-556 29.75,-556 29.75,-550 35.75,-544 41.75,-544 41.75,-544 71.75,-544 71.75,-544 77.75,-544 83.75,-550 83.75,-556 83.75,-556 83.75,-568 83.75,-568 83.75,-574 77.75,-580 71.75,-580"/>
<text xml:space="preserve" text-anchor="middle" x="56.75" y="-558.12" font-family="Helvetica,sans-Serif" font-size="10.00" fill="#e7ecf3">Battery</text>
</g>
<!-- pdm -->
<g id="node2" class="node">
<title>pdm</title>
<path fill="#13201a" stroke="#2a323f" d="M267.25,-580C267.25,-580 174.75,-580 174.75,-580 168.75,-580 162.75,-574 162.75,-568 162.75,-568 162.75,-556 162.75,-556 162.75,-550 168.75,-544 174.75,-544 174.75,-544 267.25,-544 267.25,-544 273.25,-544 279.25,-550 279.25,-556 279.25,-556 279.25,-568 279.25,-568 279.25,-574 273.25,-580 267.25,-580"/>
<text xml:space="preserve" text-anchor="middle" x="221" y="-558.12" font-family="Helvetica,sans-Serif" font-size="10.00" fill="#e7ecf3">Headlight power centre</text>
</g>
<!-- battery&#45;&gt;pdm -->
<g id="edge1" class="edge">
<title>battery&#45;&gt;pdm</title>
<path fill="none" stroke="#9aa7b8" d="M84.24,-562C105.52,-562 135.75,-562 162.39,-562"/>
<text xml:space="preserve" text-anchor="middle" x="108.31" y="-554.4" font-family="Helvetica,sans-Serif" font-size="8.00" fill="#9aa7b8">PDM.+B</text>
</g>
<!-- bh4 -->
<g id="node3" class="node">
<title>bh4</title>
<path fill="#1c2530" stroke="#5a6678" stroke-width="2" d="M71.75,-512C71.75,-512 41.75,-512 41.75,-512 35.75,-512 29.75,-506 29.75,-500 29.75,-500 29.75,-488 29.75,-488 29.75,-482 35.75,-476 41.75,-476 41.75,-476 71.75,-476 71.75,-476 77.75,-476 83.75,-482 83.75,-488 83.75,-488 83.75,-500 83.75,-500 83.75,-506 77.75,-512 71.75,-512"/>
<text xml:space="preserve" text-anchor="middle" x="56.75" y="-490.12" font-family="Helvetica,sans-Serif" font-size="10.00" fill="#e7ecf3">BH4</text>
</g>
<!-- pdm&#45;&gt;bh4 -->
<g id="edge8" class="edge">
<title>pdm&#45;&gt;bh4</title>
<path fill="none" stroke="#f5c451" d="M191.5,-543.59C191.5,-526.87 191.5,-504.8 191.5,-504.8 191.5,-504.8 124.14,-504.8 84.67,-504.8"/>
<text xml:space="preserve" text-anchor="middle" x="136.1" y="-497.2" font-family="Helvetica,sans-Serif" font-size="8.00" fill="#f5c451">HL.HI.TELL</text>
</g>
<!-- hl&#45;L -->
<g id="node4" class="node">
<title>hl&#45;L</title>
<path fill="#161d28" stroke="#2a323f" d="M459,-648C459,-648 398.75,-648 398.75,-648 392.75,-648 386.75,-642 386.75,-636 386.75,-636 386.75,-624 386.75,-624 386.75,-618 392.75,-612 398.75,-612 398.75,-612 459,-612 459,-612 465,-612 471,-618 471,-624 471,-624 471,-636 471,-636 471,-642 465,-648 459,-648"/>
<text xml:space="preserve" text-anchor="middle" x="428.88" y="-626.12" font-family="Helvetica,sans-Serif" font-size="10.00" fill="#e7ecf3">Headlight LEFT</text>
</g>
<!-- pdm&#45;&gt;hl&#45;L -->
<g id="edge4" class="edge">
<title>pdm&#45;&gt;hl&#45;L</title>
<path fill="none" stroke="#f5c451" d="M240.5,-580.27C240.5,-598.56 240.5,-624 240.5,-624 240.5,-624 331.06,-624 386.6,-624"/>
<text xml:space="preserve" text-anchor="middle" x="267.68" y="-616.4" font-family="Helvetica,sans-Serif" font-size="8.00" fill="#f5c451">HL.LO.OUT.L</text>
</g>
<!-- pdm&#45;&gt;hl&#45;L -->
<g id="edge6" class="edge">
<title>pdm&#45;&gt;hl&#45;L</title>
<path fill="none" stroke="#f5c451" d="M201.5,-580.29C201.5,-602.21 201.5,-636 201.5,-636 201.5,-636 320.56,-636 386.37,-636"/>
<text xml:space="preserve" text-anchor="middle" x="243.21" y="-628.4" font-family="Helvetica,sans-Serif" font-size="8.00" fill="#f5c451">HL.HI.OUT.L</text>
</g>
<!-- hl&#45;R -->
<g id="node5" class="node">
<title>hl&#45;R</title>
<path fill="#161d28" stroke="#2a323f" d="M462.75,-580C462.75,-580 395,-580 395,-580 389,-580 383,-574 383,-568 383,-568 383,-556 383,-556 383,-550 389,-544 395,-544 395,-544 462.75,-544 462.75,-544 468.75,-544 474.75,-550 474.75,-556 474.75,-556 474.75,-568 474.75,-568 474.75,-574 468.75,-580 462.75,-580"/>
<text xml:space="preserve" text-anchor="middle" x="428.88" y="-558.12" font-family="Helvetica,sans-Serif" font-size="10.00" fill="#e7ecf3">Headlight RIGHT</text>
</g>
<!-- pdm&#45;&gt;hl&#45;R -->
<g id="edge5" class="edge">
<title>pdm&#45;&gt;hl&#45;R</title>
<path fill="none" stroke="#f5c451" d="M279.74,-568C312.39,-568 352.44,-568 382.81,-568"/>
<text xml:space="preserve" text-anchor="middle" x="306.52" y="-560.4" font-family="Helvetica,sans-Serif" font-size="8.00" fill="#f5c451">HL.LO.OUT.R</text>
</g>
<!-- pdm&#45;&gt;hl&#45;R -->
<g id="edge7" class="edge">
<title>pdm&#45;&gt;hl&#45;R</title>
<path fill="none" stroke="#f5c451" d="M279.74,-556C312.39,-556 352.44,-556 382.81,-556"/>
<text xml:space="preserve" text-anchor="middle" x="307.65" y="-548.4" font-family="Helvetica,sans-Serif" font-size="8.00" fill="#f5c451">HL.HI.OUT.R</text>
</g>
<!-- bh4&#45;&gt;pdm -->
<g id="edge2" class="edge">
<title>bh4&#45;&gt;pdm</title>
<path fill="none" stroke="#f5c451" d="M84.53,-497.6C131.25,-497.6 220.5,-497.6 220.5,-497.6 220.5,-497.6 220.5,-524.68 220.5,-543.72"/>
<text xml:space="preserve" text-anchor="middle" x="196.95" y="-499" font-family="Helvetica,sans-Serif" font-size="8.00" fill="#f5c451">HL.LO.TRG</text>
</g>
<!-- bh4&#45;&gt;pdm -->
<g id="edge3" class="edge">
<title>bh4&#45;&gt;pdm</title>
<path fill="none" stroke="#f5c451" d="M84.51,-490.4C138.08,-490.4 250.5,-490.4 250.5,-490.4 250.5,-490.4 250.5,-522.35 250.5,-543.56"/>
<text xml:space="preserve" text-anchor="middle" x="173.84" y="-482.8" font-family="Helvetica,sans-Serif" font-size="8.00" fill="#f5c451">HL.HI.TRG</text>
</g>
<!-- park&#45;fl -->
<g id="node6" class="node">
<title>park&#45;fl</title>
<path fill="#161d28" stroke="#2a323f" d="M478.88,-512C478.88,-512 378.88,-512 378.88,-512 372.88,-512 366.88,-506 366.88,-500 366.88,-500 366.88,-488 366.88,-488 366.88,-482 372.88,-476 378.88,-476 378.88,-476 478.88,-476 478.88,-476 484.88,-476 490.88,-482 490.88,-488 490.88,-488 490.88,-500 490.88,-500 490.88,-506 484.88,-512 478.88,-512"/>
<text xml:space="preserve" text-anchor="middle" x="428.88" y="-490.12" font-family="Helvetica,sans-Serif" font-size="10.00" fill="#e7ecf3">Front position/park LEFT</text>
</g>
<!-- bh4&#45;&gt;park&#45;fl -->
<g id="edge9" class="edge">
<title>bh4&#45;&gt;park&#45;fl</title>
<path fill="none" stroke="#8bd17c" d="M84.72,-483.2C144.22,-483.2 284.57,-483.2 366.48,-483.2"/>
<text xml:space="preserve" text-anchor="middle" x="246.6" y="-475.6" font-family="Helvetica,sans-Serif" font-size="8.00" fill="#8bd17c">POS.OUT.F</text>
</g>
<!-- turn&#45;fl -->
<g id="node8" class="node">
<title>turn&#45;fl</title>
<path fill="#161d28" stroke="#2a323f" d="M459.38,-376C459.38,-376 398.38,-376 398.38,-376 392.38,-376 386.38,-370 386.38,-364 386.38,-364 386.38,-352 386.38,-352 386.38,-346 392.38,-340 398.38,-340 398.38,-340 459.38,-340 459.38,-340 465.38,-340 471.38,-346 471.38,-352 471.38,-352 471.38,-364 471.38,-364 471.38,-370 465.38,-376 459.38,-376"/>
<text xml:space="preserve" text-anchor="middle" x="428.88" y="-354.12" font-family="Helvetica,sans-Serif" font-size="10.00" fill="#e7ecf3">Front turn LEFT</text>
</g>
<!-- bh4&#45;&gt;turn&#45;fl -->
<g id="edge11" class="edge">
<title>bh4&#45;&gt;turn&#45;fl</title>
<path fill="none" stroke="#56b4e9" d="M70.5,-475.09C70.5,-437.72 70.5,-358 70.5,-358 70.5,-358 290.88,-358 386,-358"/>
<text xml:space="preserve" text-anchor="middle" x="141.96" y="-350.4" font-family="Helvetica,sans-Serif" font-size="8.00" fill="#56b4e9">TURN.L.OUT.F</text>
</g>
<!-- turn&#45;fr -->
<g id="node9" class="node">
<title>turn&#45;fr</title>
<path fill="#161d28" stroke="#2a323f" d="M463.12,-240C463.12,-240 394.62,-240 394.62,-240 388.62,-240 382.62,-234 382.62,-228 382.62,-228 382.62,-216 382.62,-216 382.62,-210 388.62,-204 394.62,-204 394.62,-204 463.12,-204 463.12,-204 469.12,-204 475.12,-210 475.12,-216 475.12,-216 475.12,-228 475.12,-228 475.12,-234 469.12,-240 463.12,-240"/>
<text xml:space="preserve" text-anchor="middle" x="428.88" y="-218.12" font-family="Helvetica,sans-Serif" font-size="10.00" fill="#e7ecf3">Front turn RIGHT</text>
</g>
<!-- bh4&#45;&gt;turn&#45;fr -->
<g id="edge12" class="edge">
<title>bh4&#45;&gt;turn&#45;fr</title>
<path fill="none" stroke="#56b4e9" d="M56.5,-475.3C56.5,-413.85 56.5,-222 56.5,-222 56.5,-222 282.64,-222 382.47,-222"/>
<text xml:space="preserve" text-anchor="middle" x="64.33" y="-214.4" font-family="Helvetica,sans-Serif" font-size="8.00" fill="#56b4e9">TURN.R.OUT.F</text>
</g>
<!-- horn&#45;hi -->
<g id="node12" class="node">
<title>horn&#45;hi</title>
<path fill="#161d28" stroke="#2a323f" d="M443.88,-104C443.88,-104 413.88,-104 413.88,-104 407.88,-104 401.88,-98 401.88,-92 401.88,-92 401.88,-80 401.88,-80 401.88,-74 407.88,-68 413.88,-68 413.88,-68 443.88,-68 443.88,-68 449.88,-68 455.88,-74 455.88,-80 455.88,-80 455.88,-92 455.88,-92 455.88,-98 449.88,-104 443.88,-104"/>
<text xml:space="preserve" text-anchor="middle" x="428.88" y="-82.12" font-family="Helvetica,sans-Serif" font-size="10.00" fill="#e7ecf3">Horn</text>
</g>
<!-- bh4&#45;&gt;horn&#45;hi -->
<g id="edge15" class="edge">
<title>bh4&#45;&gt;horn&#45;hi</title>
<path fill="none" stroke="#9a9a9a" d="M43.5,-475.14C43.5,-394.9 43.5,-86 43.5,-86 43.5,-86 313.43,-86 401.47,-86"/>
<text xml:space="preserve" text-anchor="middle" x="21.75" y="-93.99" font-family="Helvetica,sans-Serif" font-size="8.00" fill="#9a9a9a">HORN.OUT</text>
</g>
<!-- park&#45;fr -->
<g id="node7" class="node">
<title>park&#45;fr</title>
<path fill="#161d28" stroke="#2a323f" d="M482.62,-444C482.62,-444 375.12,-444 375.12,-444 369.12,-444 363.12,-438 363.12,-432 363.12,-432 363.12,-420 363.12,-420 363.12,-414 369.12,-408 375.12,-408 375.12,-408 482.62,-408 482.62,-408 488.62,-408 494.62,-414 494.62,-420 494.62,-420 494.62,-432 494.62,-432 494.62,-438 488.62,-444 482.62,-444"/>
<text xml:space="preserve" text-anchor="middle" x="428.88" y="-422.12" font-family="Helvetica,sans-Serif" font-size="10.00" fill="#e7ecf3">Front position/park RIGHT</text>
</g>
<!-- park&#45;fl&#45;&gt;park&#45;fr -->
<g id="edge10" class="edge">
<title>park&#45;fl&#45;&gt;park&#45;fr</title>
<path fill="none" stroke="#8bd17c" d="M428.5,-475.78C428.5,-466.02 428.5,-454.04 428.5,-444.27"/>
<text xml:space="preserve" text-anchor="middle" x="396.62" y="-452.43" font-family="Helvetica,sans-Serif" font-size="8.00" fill="#8bd17c">POS.FRONT.JMP</text>
</g>
<!-- side&#45;l -->
<g id="node10" class="node">
<title>side&#45;l</title>
<path fill="#161d28" stroke="#2a323f" d="M483.75,-308C483.75,-308 374,-308 374,-308 368,-308 362,-302 362,-296 362,-296 362,-284 362,-284 362,-278 368,-272 374,-272 374,-272 483.75,-272 483.75,-272 489.75,-272 495.75,-278 495.75,-284 495.75,-284 495.75,-296 495.75,-296 495.75,-302 489.75,-308 483.75,-308"/>
<text xml:space="preserve" text-anchor="middle" x="428.88" y="-286.12" font-family="Helvetica,sans-Serif" font-size="10.00" fill="#e7ecf3">Side marker/repeater LEFT</text>
</g>
<!-- turn&#45;fl&#45;&gt;side&#45;l -->
<g id="edge13" class="edge">
<title>turn&#45;fl&#45;&gt;side&#45;l</title>
<path fill="none" stroke="#56b4e9" d="M428.5,-339.78C428.5,-330.02 428.5,-318.04 428.5,-308.27"/>
<text xml:space="preserve" text-anchor="middle" x="415.75" y="-316.43" font-family="Helvetica,sans-Serif" font-size="8.00" fill="#56b4e9">SIDE.L</text>
</g>
<!-- side&#45;r -->
<g id="node11" class="node">
<title>side&#45;r</title>
<path fill="#161d28" stroke="#2a323f" d="M487.5,-172C487.5,-172 370.25,-172 370.25,-172 364.25,-172 358.25,-166 358.25,-160 358.25,-160 358.25,-148 358.25,-148 358.25,-142 364.25,-136 370.25,-136 370.25,-136 487.5,-136 487.5,-136 493.5,-136 499.5,-142 499.5,-148 499.5,-148 499.5,-160 499.5,-160 499.5,-166 493.5,-172 487.5,-172"/>
<text xml:space="preserve" text-anchor="middle" x="428.88" y="-150.12" font-family="Helvetica,sans-Serif" font-size="10.00" fill="#e7ecf3">Side marker/repeater RIGHT</text>
</g>
<!-- turn&#45;fr&#45;&gt;side&#45;r -->
<g id="edge14" class="edge">
<title>turn&#45;fr&#45;&gt;side&#45;r</title>
<path fill="none" stroke="#56b4e9" d="M428.5,-203.78C428.5,-194.02 428.5,-182.04 428.5,-172.27"/>
<text xml:space="preserve" text-anchor="middle" x="415" y="-180.43" font-family="Helvetica,sans-Serif" font-size="8.00" fill="#56b4e9">SIDE.R</text>
</g>
<!-- horn&#45;lo -->
<g id="node13" class="node">
<title>horn&#45;lo</title>
<path fill="#161d28" stroke="#2a323f" d="M443.88,-36C443.88,-36 413.88,-36 413.88,-36 407.88,-36 401.88,-30 401.88,-24 401.88,-24 401.88,-12 401.88,-12 401.88,-6 407.88,0 413.88,0 413.88,0 443.88,0 443.88,0 449.88,0 455.88,-6 455.88,-12 455.88,-12 455.88,-24 455.88,-24 455.88,-30 449.88,-36 443.88,-36"/>
<text xml:space="preserve" text-anchor="middle" x="428.88" y="-14.12" font-family="Helvetica,sans-Serif" font-size="10.00" fill="#e7ecf3">Horn</text>
</g>
<!-- horn&#45;hi&#45;&gt;horn&#45;lo -->
<g id="edge16" class="edge">
<title>horn&#45;hi&#45;&gt;horn&#45;lo</title>
<path fill="none" stroke="#9a9a9a" d="M428.5,-67.78C428.5,-58.02 428.5,-46.04 428.5,-36.27"/>
<text xml:space="preserve" text-anchor="middle" x="404.5" y="-44.43" font-family="Helvetica,sans-Serif" font-size="8.00" fill="#9a9a9a">HORN.OUT2</text>
</g>
</g>
</svg>
