<?xml version="1.0" encoding="UTF-8" standalone="no"?>
<!DOCTYPE svg PUBLIC "-//W3C//DTD SVG 1.1//EN"
 "http://www.w3.org/Graphics/SVG/1.1/DTD/svg11.dtd">
<!-- Generated by graphviz version 15.0.0 (20260523.1842)
 -->
<!-- Title: main&#45;loom Pages: 1 -->
<svg width="1217pt" height="1733pt"
 viewBox="0.00 0.00 1217.00 1733.00" xmlns="http://www.w3.org/2000/svg" xmlns:xlink="http://www.w3.org/1999/xlink">
<g id="graph0" class="graph" transform="scale(1 1) rotate(0) translate(4 1728.8)">
<title>main&#45;loom</title>
<!-- battery -->
<g id="node1" class="node">
<title>battery</title>
<path fill="#161d28" stroke="#2a323f" d="M435,-1456.8C435,-1456.8 405,-1456.8 405,-1456.8 399,-1456.8 393,-1450.8 393,-1444.8 393,-1444.8 393,-1432.8 393,-1432.8 393,-1426.8 399,-1420.8 405,-1420.8 405,-1420.8 435,-1420.8 435,-1420.8 441,-1420.8 447,-1426.8 447,-1432.8 447,-1432.8 447,-1444.8 447,-1444.8 447,-1450.8 441,-1456.8 435,-1456.8"/>
<text xml:space="preserve" text-anchor="middle" x="420" y="-1434.92" font-family="Helvetica,sans-Serif" font-size="10.00" fill="#e7ecf3">Battery</text>
</g>
<!-- rtmr&#45;const -->
<g id="node2" class="node">
<title>rtmr&#45;const</title>
<path fill="#13201a" stroke="#2a323f" d="M617,-709.8C617,-709.8 551.5,-709.8 551.5,-709.8 545.5,-709.8 539.5,-703.8 539.5,-697.8 539.5,-697.8 539.5,-685.8 539.5,-685.8 539.5,-679.8 545.5,-673.8 551.5,-673.8 551.5,-673.8 617,-673.8 617,-673.8 623,-673.8 629,-679.8 629,-685.8 629,-685.8 629,-697.8 629,-697.8 629,-703.8 623,-709.8 617,-709.8"/>
<text xml:space="preserve" text-anchor="middle" x="584.25" y="-687.92" font-family="Helvetica,sans-Serif" font-size="10.00" fill="#e7ecf3">CONSTANT bus</text>
</g>
<!-- battery&#45;&gt;rtmr&#45;const -->
<g id="edge1" class="edge">
<title>battery&#45;&gt;rtmr&#45;const</title>
<path fill="none" stroke="#9aa7b8" d="M406.75,-1420.6C406.75,-1307.23 406.75,-702.6 406.75,-702.6 406.75,-702.6 486.88,-702.6 539.46,-702.6"/>
<text xml:space="preserve" text-anchor="middle" x="393.62" y="-987.65" font-family="Helvetica,sans-Serif" font-size="8.00" fill="#9aa7b8">BAT.+B</text>
</g>
<!-- battery&#45;&gt;rtmr&#45;const -->
<g id="edge7" class="edge">
<title>battery&#45;&gt;rtmr&#45;const</title>
<path fill="none" stroke="#c98a4b" d="M419.75,-1420.32C419.75,-1306.58 419.75,-706.2 419.75,-706.2 419.75,-706.2 490.59,-706.2 539.3,-706.2"/>
<text xml:space="preserve" text-anchor="middle" x="435.88" y="-995.89" font-family="Helvetica,sans-Serif" font-size="8.00" fill="#c98a4b">STRT.+B</text>
</g>
<!-- pdm -->
<g id="node3" class="node">
<title>pdm</title>
<path fill="#13201a" stroke="#2a323f" d="M630.5,-1522.8C630.5,-1522.8 538,-1522.8 538,-1522.8 532,-1522.8 526,-1516.8 526,-1510.8 526,-1510.8 526,-1498.8 526,-1498.8 526,-1492.8 532,-1486.8 538,-1486.8 538,-1486.8 630.5,-1486.8 630.5,-1486.8 636.5,-1486.8 642.5,-1492.8 642.5,-1498.8 642.5,-1498.8 642.5,-1510.8 642.5,-1510.8 642.5,-1516.8 636.5,-1522.8 630.5,-1522.8"/>
<text xml:space="preserve" text-anchor="middle" x="584.25" y="-1500.92" font-family="Helvetica,sans-Serif" font-size="10.00" fill="#e7ecf3">Headlight power centre</text>
</g>
<!-- battery&#45;&gt;pdm -->
<g id="edge2" class="edge">
<title>battery&#45;&gt;pdm</title>
<path fill="none" stroke="#9aa7b8" d="M447.29,-1439.8C480.66,-1439.8 532.75,-1439.8 532.75,-1439.8 532.75,-1439.8 532.75,-1467.13 532.75,-1486.35"/>
<text xml:space="preserve" text-anchor="middle" x="498.3" y="-1432.2" font-family="Helvetica,sans-Serif" font-size="8.00" fill="#9aa7b8">PDM.+B</text>
</g>
<!-- starter -->
<g id="node6" class="node">
<title>starter</title>
<path fill="#161d28" stroke="#2a323f" d="M1188.88,-1422.8C1188.88,-1422.8 1091.88,-1422.8 1091.88,-1422.8 1085.88,-1422.8 1079.88,-1416.8 1079.88,-1410.8 1079.88,-1410.8 1079.88,-1398.8 1079.88,-1398.8 1079.88,-1392.8 1085.88,-1386.8 1091.88,-1386.8 1091.88,-1386.8 1188.88,-1386.8 1188.88,-1386.8 1194.88,-1386.8 1200.88,-1392.8 1200.88,-1398.8 1200.88,-1398.8 1200.88,-1410.8 1200.88,-1410.8 1200.88,-1416.8 1194.88,-1422.8 1188.88,-1422.8"/>
<text xml:space="preserve" text-anchor="middle" x="1140.38" y="-1400.92" font-family="Helvetica,sans-Serif" font-size="10.00" fill="#e7ecf3">Starter motor + solenoid</text>
</g>
<!-- battery&#45;&gt;starter -->
<g id="edge5" class="edge">
<title>battery&#45;&gt;starter</title>
<path fill="none" stroke="#c98a4b" d="M433.75,-1420.48C433.75,-1412.01 433.75,-1403.8 433.75,-1403.8 433.75,-1403.8 908.12,-1403.8 1079.52,-1403.8"/>
<text xml:space="preserve" text-anchor="middle" x="732.17" y="-1396.2" font-family="Helvetica,sans-Serif" font-size="8.00" fill="#c98a4b">STRT.B+</text>
</g>
<!-- bh1 -->
<g id="node5" class="node">
<title>bh1</title>
<path fill="#1c2530" stroke="#5a6678" stroke-width="2" d="M42,-1259.8C42,-1259.8 12,-1259.8 12,-1259.8 6,-1259.8 0,-1253.8 0,-1247.8 0,-1247.8 0,-1235.8 0,-1235.8 0,-1229.8 6,-1223.8 12,-1223.8 12,-1223.8 42,-1223.8 42,-1223.8 48,-1223.8 54,-1229.8 54,-1235.8 54,-1235.8 54,-1247.8 54,-1247.8 54,-1253.8 48,-1259.8 42,-1259.8"/>
<text xml:space="preserve" text-anchor="middle" x="27" y="-1237.92" font-family="Helvetica,sans-Serif" font-size="10.00" fill="#e7ecf3">BH1</text>
</g>
<!-- rtmr&#45;const&#45;&gt;bh1 -->
<g id="edge9" class="edge">
<title>rtmr&#45;const&#45;&gt;bh1</title>
<path fill="none" stroke="#e2554a" d="M579.75,-710.07C579.75,-804.34 579.75,-1231.51 579.75,-1231.51 579.75,-1231.51 166.88,-1231.51 54.79,-1231.51"/>
<text xml:space="preserve" text-anchor="middle" x="559.24" y="-1223.91" font-family="Helvetica,sans-Serif" font-size="8.00" fill="#e2554a">IGN.30.+B</text>
</g>
<!-- rtmr&#45;const&#45;&gt;bh1 -->
<g id="edge27" class="edge">
<title>rtmr&#45;const&#45;&gt;bh1</title>
<path fill="none" stroke="#56b4e9" d="M588.75,-710.15C588.75,-804.88 588.75,-1234.09 588.75,-1234.09 588.75,-1234.09 168.21,-1234.09 54.86,-1234.09"/>
<text xml:space="preserve" text-anchor="middle" x="598.02" y="-1226.49" font-family="Helvetica,sans-Serif" font-size="8.00" fill="#56b4e9">HAZ.+B</text>
</g>
<!-- rtmr&#45;const&#45;&gt;bh1 -->
<g id="edge58" class="edge">
<title>rtmr&#45;const&#45;&gt;bh1</title>
<path fill="none" stroke="#9a9a9a" d="M598.75,-710.24C598.75,-805.42 598.75,-1236.66 598.75,-1236.66 598.75,-1236.66 169.75,-1236.66 54.96,-1236.66"/>
<text xml:space="preserve" text-anchor="middle" x="602.07" y="-1229.06" font-family="Helvetica,sans-Serif" font-size="8.00" fill="#9a9a9a">INT.+B</text>
</g>
<!-- rtmr&#45;const&#45;&gt;starter -->
<g id="edge8" class="edge">
<title>rtmr&#45;const&#45;&gt;starter</title>
<path fill="none" stroke="#c98a4b" d="M629.29,-700.05C752.62,-700.05 1086.75,-700.05 1086.75,-700.05 1086.75,-700.05 1086.75,-1275.12 1086.75,-1386.31"/>
<text xml:space="preserve" text-anchor="middle" x="1066.88" y="-806.85" font-family="Helvetica,sans-Serif" font-size="8.00" fill="#c98a4b">STRT.OUT</text>
</g>
<!-- rtmr&#45;ign -->
<g id="node7" class="node">
<title>rtmr&#45;ign</title>
<path fill="#13201a" stroke="#2a323f" d="M817.75,-462.8C817.75,-462.8 733.5,-462.8 733.5,-462.8 727.5,-462.8 721.5,-456.8 721.5,-450.8 721.5,-450.8 721.5,-438.8 721.5,-438.8 721.5,-432.8 727.5,-426.8 733.5,-426.8 733.5,-426.8 817.75,-426.8 817.75,-426.8 823.75,-426.8 829.75,-432.8 829.75,-438.8 829.75,-438.8 829.75,-450.8 829.75,-450.8 829.75,-456.8 823.75,-462.8 817.75,-462.8"/>
<text xml:space="preserve" text-anchor="middle" x="775.62" y="-440.92" font-family="Helvetica,sans-Serif" font-size="10.00" fill="#e7ecf3">Cabin IGNITION bus</text>
</g>
<!-- rtmr&#45;const&#45;&gt;rtmr&#45;ign -->
<g id="edge11" class="edge">
<title>rtmr&#45;const&#45;&gt;rtmr&#45;ign</title>
<path fill="none" stroke="#e2554a" d="M603.75,-673.66C603.75,-618.35 603.75,-455.6 603.75,-455.6 603.75,-455.6 670.89,-455.6 721.24,-455.6"/>
<text xml:space="preserve" text-anchor="middle" x="628.12" y="-498.28" font-family="Helvetica,sans-Serif" font-size="8.00" fill="#e2554a">IGN.MAIN.+B</text>
</g>
<!-- rtmr&#45;const&#45;&gt;rtmr&#45;ign -->
<g id="edge54" class="edge">
<title>rtmr&#45;const&#45;&gt;rtmr&#45;ign</title>
<path fill="none" stroke="#7cd1c4" d="M615.75,-673.55C615.75,-618.71 615.75,-459.2 615.75,-459.2 615.75,-459.2 674.74,-459.2 721.05,-459.2"/>
<text xml:space="preserve" text-anchor="middle" x="627" y="-506.12" font-family="Helvetica,sans-Serif" font-size="8.00" fill="#7cd1c4">FAN.+</text>
</g>
<!-- bh4 -->
<g id="node10" class="node">
<title>bh4</title>
<path fill="#1c2530" stroke="#5a6678" stroke-width="2" d="M42,-903.8C42,-903.8 12,-903.8 12,-903.8 6,-903.8 0,-897.8 0,-891.8 0,-891.8 0,-879.8 0,-879.8 0,-873.8 6,-867.8 12,-867.8 12,-867.8 42,-867.8 42,-867.8 48,-867.8 54,-873.8 54,-879.8 54,-879.8 54,-891.8 54,-891.8 54,-897.8 48,-903.8 42,-903.8"/>
<text xml:space="preserve" text-anchor="middle" x="27" y="-881.92" font-family="Helvetica,sans-Serif" font-size="10.00" fill="#e7ecf3">BH4</text>
</g>
<!-- rtmr&#45;const&#45;&gt;bh4 -->
<g id="edge21" class="edge">
<title>rtmr&#45;const&#45;&gt;bh4</title>
<path fill="none" stroke="#56b4e9" d="M549.75,-710.04C549.75,-756.37 549.75,-875 549.75,-875 549.75,-875 162.81,-875 54.74,-875"/>
<text xml:space="preserve" text-anchor="middle" x="356.98" y="-867.4" font-family="Helvetica,sans-Serif" font-size="8.00" fill="#56b4e9">TURN.L.OUT.F</text>
</g>
<!-- rtmr&#45;const&#45;&gt;bh4 -->
<g id="edge23" class="edge">
<title>rtmr&#45;const&#45;&gt;bh4</title>
<path fill="none" stroke="#56b4e9" d="M569.75,-710.04C569.75,-758.95 569.75,-889.4 569.75,-889.4 569.75,-889.4 165.26,-889.4 54.66,-889.4"/>
<text xml:space="preserve" text-anchor="middle" x="430.39" y="-881.8" font-family="Helvetica,sans-Serif" font-size="8.00" fill="#56b4e9">TURN.R.OUT.F</text>
</g>
<!-- rtmr&#45;const&#45;&gt;bh4 -->
<g id="edge56" class="edge">
<title>rtmr&#45;const&#45;&gt;bh4</title>
<path fill="none" stroke="#9a9a9a" d="M559.75,-710.06C559.75,-757.71 559.75,-882.2 559.75,-882.2 559.75,-882.2 164.51,-882.2 54.89,-882.2"/>
<text xml:space="preserve" text-anchor="middle" x="415.14" y="-874.6" font-family="Helvetica,sans-Serif" font-size="8.00" fill="#9a9a9a">HORN.OUT</text>
</g>
<!-- bh3 -->
<g id="node11" class="node">
<title>bh3</title>
<path fill="#1c2530" stroke="#5a6678" stroke-width="2" d="M42,-367.8C42,-367.8 12,-367.8 12,-367.8 6,-367.8 0,-361.8 0,-355.8 0,-355.8 0,-343.8 0,-343.8 0,-337.8 6,-331.8 12,-331.8 12,-331.8 42,-331.8 42,-331.8 48,-331.8 54,-337.8 54,-343.8 54,-343.8 54,-355.8 54,-355.8 54,-361.8 48,-367.8 42,-367.8"/>
<text xml:space="preserve" text-anchor="middle" x="27" y="-345.92" font-family="Helvetica,sans-Serif" font-size="10.00" fill="#e7ecf3">BH3</text>
</g>
<!-- rtmr&#45;const&#45;&gt;bh3 -->
<g id="edge22" class="edge">
<title>rtmr&#45;const&#45;&gt;bh3</title>
<path fill="none" stroke="#56b4e9" d="M552.75,-673.59C552.75,-604.41 552.75,-361.8 552.75,-361.8 552.75,-361.8 163.59,-361.8 54.9,-361.8"/>
<text xml:space="preserve" text-anchor="middle" x="431.59" y="-354.2" font-family="Helvetica,sans-Serif" font-size="8.00" fill="#56b4e9">TURN.L.OUT.R</text>
</g>
<!-- rtmr&#45;const&#45;&gt;bh3 -->
<g id="edge24" class="edge">
<title>rtmr&#45;const&#45;&gt;bh3</title>
<path fill="none" stroke="#56b4e9" d="M564.75,-673.74C564.75,-603.94 564.75,-355.8 564.75,-355.8 564.75,-355.8 164.9,-355.8 54.78,-355.8"/>
<text xml:space="preserve" text-anchor="middle" x="497.61" y="-348.2" font-family="Helvetica,sans-Serif" font-size="8.00" fill="#56b4e9">TURN.R.OUT.R</text>
</g>
<!-- flasher -->
<g id="node12" class="node">
<title>flasher</title>
<path fill="#161d28" stroke="#2a323f" d="M813.62,-763.8C813.62,-763.8 737.62,-763.8 737.62,-763.8 731.62,-763.8 725.62,-757.8 725.62,-751.8 725.62,-751.8 725.62,-739.8 725.62,-739.8 725.62,-733.8 731.62,-727.8 737.62,-727.8 737.62,-727.8 813.62,-727.8 813.62,-727.8 819.62,-727.8 825.62,-733.8 825.62,-739.8 825.62,-739.8 825.62,-751.8 825.62,-751.8 825.62,-757.8 819.62,-763.8 813.62,-763.8"/>
<text xml:space="preserve" text-anchor="middle" x="775.62" y="-741.92" font-family="Helvetica,sans-Serif" font-size="10.00" fill="#e7ecf3">Turn/hazard flasher</text>
</g>
<!-- rtmr&#45;const&#45;&gt;flasher -->
<g id="edge16" class="edge">
<title>rtmr&#45;const&#45;&gt;flasher</title>
<path fill="none" stroke="#56b4e9" d="M629.19,-706.55C680.89,-706.55 758.75,-706.55 758.75,-706.55 758.75,-706.55 758.75,-717.3 758.75,-727.55"/>
<text xml:space="preserve" text-anchor="middle" x="687.97" y="-698.95" font-family="Helvetica,sans-Serif" font-size="8.00" fill="#56b4e9">FLSH.+B</text>
</g>
<!-- bh2 -->
<g id="node13" class="node">
<title>bh2</title>
<path fill="#1c2530" stroke="#5a6678" stroke-width="2" d="M42,-709.8C42,-709.8 12,-709.8 12,-709.8 6,-709.8 0,-703.8 0,-697.8 0,-697.8 0,-685.8 0,-685.8 0,-679.8 6,-673.8 12,-673.8 12,-673.8 42,-673.8 42,-673.8 48,-673.8 54,-679.8 54,-685.8 54,-685.8 54,-697.8 54,-697.8 54,-703.8 48,-709.8 42,-709.8"/>
<text xml:space="preserve" text-anchor="middle" x="27" y="-687.92" font-family="Helvetica,sans-Serif" font-size="10.00" fill="#e7ecf3">BH2</text>
</g>
<!-- rtmr&#45;const&#45;&gt;bh2 -->
<g id="edge25" class="edge">
<title>rtmr&#45;const&#45;&gt;bh2</title>
<path fill="none" stroke="#56b4e9" d="M539.12,-688.2C428.22,-688.2 144.87,-688.2 54.88,-688.2"/>
<text xml:space="preserve" text-anchor="middle" x="322.87" y="-680.6" font-family="Helvetica,sans-Serif" font-size="8.00" fill="#56b4e9">TURN.TELL.L</text>
</g>
<!-- rtmr&#45;const&#45;&gt;bh2 -->
<g id="edge26" class="edge">
<title>rtmr&#45;const&#45;&gt;bh2</title>
<path fill="none" stroke="#56b4e9" d="M539.12,-695.4C428.22,-695.4 144.87,-695.4 54.88,-695.4"/>
<text xml:space="preserve" text-anchor="middle" x="323.62" y="-687.8" font-family="Helvetica,sans-Serif" font-size="8.00" fill="#56b4e9">TURN.TELL.R</text>
</g>
<!-- rtmr&#45;const&#45;&gt;bh2 -->
<g id="edge57" class="edge">
<title>rtmr&#45;const&#45;&gt;bh2</title>
<path fill="none" stroke="#9a9a9a" d="M539.12,-699C428.22,-699 144.87,-699 54.88,-699"/>
<text xml:space="preserve" text-anchor="middle" x="318.75" y="-691.4" font-family="Helvetica,sans-Serif" font-size="8.00" fill="#9a9a9a">HORN.TRG</text>
</g>
<!-- sw&#45;brake -->
<g id="node14" class="node">
<title>sw&#45;brake</title>
<path fill="#161d28" stroke="#2a323f" d="M810.62,-253.8C810.62,-253.8 740.62,-253.8 740.62,-253.8 734.62,-253.8 728.62,-247.8 728.62,-241.8 728.62,-241.8 728.62,-229.8 728.62,-229.8 728.62,-223.8 734.62,-217.8 740.62,-217.8 740.62,-217.8 810.62,-217.8 810.62,-217.8 816.62,-217.8 822.62,-223.8 822.62,-229.8 822.62,-229.8 822.62,-241.8 822.62,-241.8 822.62,-247.8 816.62,-253.8 810.62,-253.8"/>
<text xml:space="preserve" text-anchor="middle" x="775.62" y="-231.92" font-family="Helvetica,sans-Serif" font-size="10.00" fill="#e7ecf3">Brake&#45;light switch</text>
</g>
<!-- rtmr&#45;const&#45;&gt;sw&#45;brake -->
<g id="edge30" class="edge">
<title>rtmr&#45;const&#45;&gt;sw&#45;brake</title>
<path fill="none" stroke="#56b4e9" d="M577.75,-673.32C577.75,-588.64 577.75,-241.8 577.75,-241.8 577.75,-241.8 669.69,-241.8 728.23,-241.8"/>
<text xml:space="preserve" text-anchor="middle" x="563.5" y="-374.72" font-family="Helvetica,sans-Serif" font-size="8.00" fill="#56b4e9">BRK.+B</text>
</g>
<!-- washer&#45;pump -->
<g id="node22" class="node">
<title>washer&#45;pump</title>
<path fill="#161d28" stroke="#2a323f" d="M1166.38,-696.8C1166.38,-696.8 1114.38,-696.8 1114.38,-696.8 1108.38,-696.8 1102.38,-690.8 1102.38,-684.8 1102.38,-684.8 1102.38,-672.8 1102.38,-672.8 1102.38,-666.8 1108.38,-660.8 1114.38,-660.8 1114.38,-660.8 1166.38,-660.8 1166.38,-660.8 1172.38,-660.8 1178.38,-666.8 1178.38,-672.8 1178.38,-672.8 1178.38,-684.8 1178.38,-684.8 1178.38,-690.8 1172.38,-696.8 1166.38,-696.8"/>
<text xml:space="preserve" text-anchor="middle" x="1140.38" y="-674.92" font-family="Helvetica,sans-Serif" font-size="10.00" fill="#e7ecf3">Washer pump</text>
</g>
<!-- rtmr&#45;const&#45;&gt;washer&#45;pump -->
<g id="edge51" class="edge">
<title>rtmr&#45;const&#45;&gt;washer&#45;pump</title>
<path fill="none" stroke="#4bc0c0" d="M629.29,-685.3C735.95,-685.3 1002.49,-685.3 1102.06,-685.3"/>
<text xml:space="preserve" text-anchor="middle" x="843.92" y="-677.7" font-family="Helvetica,sans-Serif" font-size="8.00" fill="#4bc0c0">WASH.OUT</text>
</g>
<!-- alternator -->
<g id="node4" class="node">
<title>alternator</title>
<path fill="#161d28" stroke="#2a323f" d="M240.5,-1456.8C240.5,-1456.8 206.5,-1456.8 206.5,-1456.8 200.5,-1456.8 194.5,-1450.8 194.5,-1444.8 194.5,-1444.8 194.5,-1432.8 194.5,-1432.8 194.5,-1426.8 200.5,-1420.8 206.5,-1420.8 206.5,-1420.8 240.5,-1420.8 240.5,-1420.8 246.5,-1420.8 252.5,-1426.8 252.5,-1432.8 252.5,-1432.8 252.5,-1444.8 252.5,-1444.8 252.5,-1450.8 246.5,-1456.8 240.5,-1456.8"/>
<text xml:space="preserve" text-anchor="middle" x="223.5" y="-1434.92" font-family="Helvetica,sans-Serif" font-size="10.00" fill="#e7ecf3">Alternator</text>
</g>
<!-- alternator&#45;&gt;battery -->
<g id="edge3" class="edge">
<title>alternator&#45;&gt;battery</title>
<path fill="none" stroke="#e8b04b" d="M252.92,-1438.8C290.71,-1438.8 355.81,-1438.8 392.6,-1438.8"/>
<text xml:space="preserve" text-anchor="middle" x="307.76" y="-1431.2" font-family="Helvetica,sans-Serif" font-size="8.00" fill="#e8b04b">CHG.B+</text>
</g>
<!-- alternator&#45;&gt;bh1 -->
<g id="edge4" class="edge">
<title>alternator&#45;&gt;bh1</title>
<path fill="none" stroke="#e8b04b" d="M194.14,-1438.8C142.48,-1438.8 40.75,-1438.8 40.75,-1438.8 40.75,-1438.8 40.75,-1310 40.75,-1260.69"/>
<text xml:space="preserve" text-anchor="middle" x="28.38" y="-1418.84" font-family="Helvetica,sans-Serif" font-size="8.00" fill="#e8b04b">CHG.L</text>
</g>
<!-- bh1&#45;&gt;rtmr&#45;const -->
<g id="edge6" class="edge">
<title>bh1&#45;&gt;rtmr&#45;const</title>
<path fill="none" stroke="#c98a4b" d="M54.75,-1241.8C171.74,-1241.8 618.75,-1241.8 618.75,-1241.8 618.75,-1241.8 618.75,-805.53 618.75,-710.1"/>
<text xml:space="preserve" text-anchor="middle" x="622.47" y="-1234.2" font-family="Helvetica,sans-Serif" font-size="8.00" fill="#c98a4b">STRT.TRG</text>
</g>
<!-- bh1&#45;&gt;rtmr&#45;const -->
<g id="edge49" class="edge">
<title>bh1&#45;&gt;rtmr&#45;const</title>
<path fill="none" stroke="#4bc0c0" d="M54.67,-1239.23C170.28,-1239.23 608.75,-1239.23 608.75,-1239.23 608.75,-1239.23 608.75,-805 608.75,-710.01"/>
<text xml:space="preserve" text-anchor="middle" x="618.07" y="-1231.63" font-family="Helvetica,sans-Serif" font-size="8.00" fill="#4bc0c0">WASH.TRG</text>
</g>
<!-- bh1&#45;&gt;rtmr&#45;ign -->
<g id="edge10" class="edge">
<title>bh1&#45;&gt;rtmr&#45;ign</title>
<path fill="none" stroke="#e2554a" d="M54.92,-1226.37C73.21,-1226.37 93.75,-1226.37 93.75,-1226.37 93.75,-1226.37 93.75,-430.4 93.75,-430.4 93.75,-430.4 559.72,-430.4 721.26,-430.4"/>
<text xml:space="preserve" text-anchor="middle" x="65.62" y="-526.44" font-family="Helvetica,sans-Serif" font-size="8.00" fill="#e2554a">IGN.MAIN.TRG</text>
</g>
<!-- rtmr&#45;ign&#45;&gt;rtmr&#45;const -->
<g id="edge50" class="edge">
<title>rtmr&#45;ign&#45;&gt;rtmr&#45;const</title>
<path fill="none" stroke="#4bc0c0" d="M721.16,-452C666.62,-452 590.75,-452 590.75,-452 590.75,-452 590.75,-617.23 590.75,-673.38"/>
<text xml:space="preserve" text-anchor="middle" x="572.75" y="-489.89" font-family="Helvetica,sans-Serif" font-size="8.00" fill="#4bc0c0">WASH.+B</text>
</g>
<!-- rtmr&#45;ign&#45;&gt;bh1 -->
<g id="edge17" class="edge">
<title>rtmr&#45;ign&#45;&gt;bh1</title>
<path fill="none" stroke="#56b4e9" d="M721.23,-444.8C706.6,-444.8 694.75,-444.8 694.75,-444.8 694.75,-444.8 694.75,-1249.51 694.75,-1249.51 694.75,-1249.51 181.22,-1249.51 54.84,-1249.51"/>
<text xml:space="preserve" text-anchor="middle" x="671.12" y="-1146.27" font-family="Helvetica,sans-Serif" font-size="8.00" fill="#56b4e9">TURN.SW.+I</text>
</g>
<!-- rtmr&#45;ign&#45;&gt;bh1 -->
<g id="edge34" class="edge">
<title>rtmr&#45;ign&#45;&gt;bh1</title>
<path fill="none" stroke="#b07cd1" d="M721.02,-441.2C700.37,-441.2 681.75,-441.2 681.75,-441.2 681.75,-441.2 681.75,-1246.94 681.75,-1246.94 681.75,-1246.94 179.34,-1246.94 54.72,-1246.94"/>
<text xml:space="preserve" text-anchor="middle" x="663" y="-1130.35" font-family="Helvetica,sans-Serif" font-size="8.00" fill="#b07cd1">GAUGE.+I</text>
</g>
<!-- rtmr&#45;ign&#45;&gt;bh1 -->
<g id="edge48" class="edge">
<title>rtmr&#45;ign&#45;&gt;bh1</title>
<path fill="none" stroke="#4bc0c0" d="M721.25,-437.6C694.85,-437.6 668.75,-437.6 668.75,-437.6 668.75,-437.6 668.75,-1244.37 668.75,-1244.37 668.75,-1244.37 178.51,-1244.37 54.99,-1244.37"/>
<text xml:space="preserve" text-anchor="middle" x="652.25" y="-1114.02" font-family="Helvetica,sans-Serif" font-size="8.00" fill="#4bc0c0">WASH.+I</text>
</g>
<!-- rtmr&#45;ign&#45;&gt;bh1 -->
<g id="edge59" class="edge">
<title>rtmr&#45;ign&#45;&gt;bh1</title>
<path fill="none" stroke="#9a9a9a" d="M721.02,-448.4C713.75,-448.4 708.75,-448.4 708.75,-448.4 708.75,-448.4 708.75,-1252.09 708.75,-1252.09 708.75,-1252.09 183.28,-1252.09 55,-1252.09"/>
<text xml:space="preserve" text-anchor="middle" x="695.62" y="-1163.39" font-family="Helvetica,sans-Serif" font-size="8.00" fill="#9a9a9a">ACC.+I</text>
</g>
<!-- coil -->
<g id="node8" class="node">
<title>coil</title>
<path fill="#161d28" stroke="#2a323f" d="M971.62,-628.8C971.62,-628.8 930.12,-628.8 930.12,-628.8 924.12,-628.8 918.12,-622.8 918.12,-616.8 918.12,-616.8 918.12,-604.8 918.12,-604.8 918.12,-598.8 924.12,-592.8 930.12,-592.8 930.12,-592.8 971.62,-592.8 971.62,-592.8 977.62,-592.8 983.62,-598.8 983.62,-604.8 983.62,-604.8 983.62,-616.8 983.62,-616.8 983.62,-622.8 977.62,-628.8 971.62,-628.8"/>
<text xml:space="preserve" text-anchor="middle" x="950.88" y="-606.92" font-family="Helvetica,sans-Serif" font-size="10.00" fill="#e7ecf3">Ignition coil</text>
</g>
<!-- rtmr&#45;ign&#45;&gt;coil -->
<g id="edge12" class="edge">
<title>rtmr&#45;ign&#45;&gt;coil</title>
<path fill="none" stroke="#e2554a" d="M830.08,-456.8C881.48,-456.8 950.75,-456.8 950.75,-456.8 950.75,-456.8 950.75,-551.74 950.75,-592.53"/>
<text xml:space="preserve" text-anchor="middle" x="936.88" y="-456.73" font-family="Helvetica,sans-Serif" font-size="8.00" fill="#e2554a">COIL.+I</text>
</g>
<!-- rtmr&#45;ign&#45;&gt;bh4 -->
<g id="edge14" class="edge">
<title>rtmr&#45;ign&#45;&gt;bh4</title>
<path fill="none" stroke="#8bd17c" d="M721.3,-434C689.58,-434 655.75,-434 655.75,-434 655.75,-434 655.75,-896.6 655.75,-896.6 655.75,-896.6 176.51,-896.6 54.83,-896.6"/>
<text xml:space="preserve" text-anchor="middle" x="598.36" y="-889" font-family="Helvetica,sans-Serif" font-size="8.00" fill="#8bd17c">POS.OUT.F</text>
</g>
<!-- rtmr&#45;ign&#45;&gt;bh3 -->
<g id="edge15" class="edge">
<title>rtmr&#45;ign&#45;&gt;bh3</title>
<path fill="none" stroke="#8bd17c" d="M723.75,-426.48C723.75,-398.88 723.75,-349.8 723.75,-349.8 723.75,-349.8 184.33,-349.8 54.74,-349.8"/>
<text xml:space="preserve" text-anchor="middle" x="403.59" y="-342.2" font-family="Helvetica,sans-Serif" font-size="8.00" fill="#8bd17c">POS.REAR.L</text>
</g>
<!-- rtmr&#45;ign&#45;&gt;bh3 -->
<g id="edge55" class="edge">
<title>rtmr&#45;ign&#45;&gt;bh3</title>
<path fill="none" stroke="#e87c7c" d="M724.75,-426.74C724.75,-397.69 724.75,-343.8 724.75,-343.8 724.75,-343.8 184.56,-343.8 54.78,-343.8"/>
<text xml:space="preserve" text-anchor="middle" x="410.99" y="-336.2" font-family="Helvetica,sans-Serif" font-size="8.00" fill="#e87c7c">FUEL.OUT</text>
</g>
<!-- sw&#45;reverse -->
<g id="node15" class="node">
<title>sw&#45;reverse</title>
<path fill="#161d28" stroke="#2a323f" d="M981,-204.8C981,-204.8 920.75,-204.8 920.75,-204.8 914.75,-204.8 908.75,-198.8 908.75,-192.8 908.75,-192.8 908.75,-180.8 908.75,-180.8 908.75,-174.8 914.75,-168.8 920.75,-168.8 920.75,-168.8 981,-168.8 981,-168.8 987,-168.8 993,-174.8 993,-180.8 993,-180.8 993,-192.8 993,-192.8 993,-198.8 987,-204.8 981,-204.8"/>
<text xml:space="preserve" text-anchor="middle" x="950.88" y="-182.92" font-family="Helvetica,sans-Serif" font-size="10.00" fill="#e7ecf3">Reverse switch</text>
</g>
<!-- rtmr&#45;ign&#45;&gt;sw&#45;reverse -->
<g id="edge32" class="edge">
<title>rtmr&#45;ign&#45;&gt;sw&#45;reverse</title>
<path fill="none" stroke="#56b4e9" d="M828.75,-426.66C828.75,-367.93 828.75,-186.8 828.75,-186.8 828.75,-186.8 873.23,-186.8 908.5,-186.8"/>
<text xml:space="preserve" text-anchor="middle" x="816.38" y="-259.25" font-family="Helvetica,sans-Serif" font-size="8.00" fill="#56b4e9">REV.+I</text>
</g>
<!-- sw3 -->
<g id="node19" class="node">
<title>sw3</title>
<path fill="#1c2530" stroke="#5a6678" stroke-width="2" d="M42,-37.8C42,-37.8 12,-37.8 12,-37.8 6,-37.8 0,-31.8 0,-25.8 0,-25.8 0,-13.8 0,-13.8 0,-7.8 6,-1.8 12,-1.8 12,-1.8 42,-1.8 42,-1.8 48,-1.8 54,-7.8 54,-13.8 54,-13.8 54,-25.8 54,-25.8 54,-31.8 48,-37.8 42,-37.8"/>
<text xml:space="preserve" text-anchor="middle" x="27" y="-15.92" font-family="Helvetica,sans-Serif" font-size="10.00" fill="#e7ecf3">SW3</text>
</g>
<!-- rtmr&#45;ign&#45;&gt;sw3 -->
<g id="edge42" class="edge">
<title>rtmr&#45;ign&#45;&gt;sw3</title>
<path fill="none" stroke="#b07cd1" d="M726.75,-426.47C726.75,-346.31 726.75,-30.6 726.75,-30.6 726.75,-30.6 185.01,-30.6 54.86,-30.6"/>
<text xml:space="preserve" text-anchor="middle" x="575.62" y="-23" font-family="Helvetica,sans-Serif" font-size="8.00" fill="#b07cd1">SW3.+I</text>
</g>
<!-- wiper -->
<g id="node21" class="node">
<title>wiper</title>
<path fill="#161d28" stroke="#2a323f" d="M1163,-462.8C1163,-462.8 1117.75,-462.8 1117.75,-462.8 1111.75,-462.8 1105.75,-456.8 1105.75,-450.8 1105.75,-450.8 1105.75,-438.8 1105.75,-438.8 1105.75,-432.8 1111.75,-426.8 1117.75,-426.8 1117.75,-426.8 1163,-426.8 1163,-426.8 1169,-426.8 1175,-432.8 1175,-438.8 1175,-438.8 1175,-450.8 1175,-450.8 1175,-456.8 1169,-462.8 1163,-462.8"/>
<text xml:space="preserve" text-anchor="middle" x="1140.38" y="-440.92" font-family="Helvetica,sans-Serif" font-size="10.00" fill="#e7ecf3">Wiper motor</text>
</g>
<!-- rtmr&#45;ign&#45;&gt;wiper -->
<g id="edge45" class="edge">
<title>rtmr&#45;ign&#45;&gt;wiper</title>
<path fill="none" stroke="#4bc0c0" d="M830.23,-432.8C906.35,-432.8 1042.14,-432.8 1105.73,-432.8"/>
<text xml:space="preserve" text-anchor="middle" x="952.23" y="-425.2" font-family="Helvetica,sans-Serif" font-size="8.00" fill="#4bc0c0">WIPE.53</text>
</g>
<!-- rtmr&#45;ign&#45;&gt;wiper -->
<g id="edge46" class="edge">
<title>rtmr&#45;ign&#45;&gt;wiper</title>
<path fill="none" stroke="#4bc0c0" d="M830.23,-444.8C906.35,-444.8 1042.14,-444.8 1105.73,-444.8"/>
<text xml:space="preserve" text-anchor="middle" x="949.98" y="-437.2" font-family="Helvetica,sans-Serif" font-size="8.00" fill="#4bc0c0">WIPE.53a</text>
</g>
<!-- rtmr&#45;ign&#45;&gt;wiper -->
<g id="edge47" class="edge">
<title>rtmr&#45;ign&#45;&gt;wiper</title>
<path fill="none" stroke="#4bc0c0" d="M830.23,-438.8C906.35,-438.8 1042.14,-438.8 1105.73,-438.8"/>
<text xml:space="preserve" text-anchor="middle" x="949.98" y="-431.2" font-family="Helvetica,sans-Serif" font-size="8.00" fill="#4bc0c0">WIPE.53b</text>
</g>
<!-- heater&#45;fan -->
<g id="node23" class="node">
<title>heater&#45;fan</title>
<path fill="#161d28" stroke="#2a323f" d="M1175,-560.8C1175,-560.8 1105.75,-560.8 1105.75,-560.8 1099.75,-560.8 1093.75,-554.8 1093.75,-548.8 1093.75,-548.8 1093.75,-536.8 1093.75,-536.8 1093.75,-530.8 1099.75,-524.8 1105.75,-524.8 1105.75,-524.8 1175,-524.8 1175,-524.8 1181,-524.8 1187,-530.8 1187,-536.8 1187,-536.8 1187,-548.8 1187,-548.8 1187,-554.8 1181,-560.8 1175,-560.8"/>
<text xml:space="preserve" text-anchor="middle" x="1140.38" y="-538.92" font-family="Helvetica,sans-Serif" font-size="10.00" fill="#e7ecf3">Heater blower fan</text>
</g>
<!-- rtmr&#45;ign&#45;&gt;heater&#45;fan -->
<g id="edge53" class="edge">
<title>rtmr&#45;ign&#45;&gt;heater&#45;fan</title>
<path fill="none" stroke="#7cd1c4" d="M830.24,-450.8C922.62,-450.8 1099.75,-450.8 1099.75,-450.8 1099.75,-450.8 1099.75,-497.81 1099.75,-524.62"/>
<text xml:space="preserve" text-anchor="middle" x="1019.53" y="-443.2" font-family="Helvetica,sans-Serif" font-size="8.00" fill="#7cd1c4">FAN.OUT</text>
</g>
<!-- coil&#45;&gt;bh1 -->
<g id="edge38" class="edge">
<title>coil&#45;&gt;bh1</title>
<path fill="none" stroke="#b07cd1" d="M950.75,-629.03C950.75,-733.81 950.75,-1254.66 950.75,-1254.66 950.75,-1254.66 209.16,-1254.66 54.9,-1254.66"/>
<text xml:space="preserve" text-anchor="middle" x="796.89" y="-1247.06" font-family="Helvetica,sans-Serif" font-size="8.00" fill="#b07cd1">TACH.SIG</text>
</g>
<!-- dist -->
<g id="node9" class="node">
<title>dist</title>
<path fill="#161d28" stroke="#2a323f" d="M1158.88,-628.8C1158.88,-628.8 1121.88,-628.8 1121.88,-628.8 1115.88,-628.8 1109.88,-622.8 1109.88,-616.8 1109.88,-616.8 1109.88,-604.8 1109.88,-604.8 1109.88,-598.8 1115.88,-592.8 1121.88,-592.8 1121.88,-592.8 1158.88,-592.8 1158.88,-592.8 1164.88,-592.8 1170.88,-598.8 1170.88,-604.8 1170.88,-604.8 1170.88,-616.8 1170.88,-616.8 1170.88,-622.8 1164.88,-628.8 1158.88,-628.8"/>
<text xml:space="preserve" text-anchor="middle" x="1140.38" y="-606.92" font-family="Helvetica,sans-Serif" font-size="10.00" fill="#e7ecf3">Distributor</text>
</g>
<!-- coil&#45;&gt;dist -->
<g id="edge13" class="edge">
<title>coil&#45;&gt;dist</title>
<path fill="none" stroke="#e2554a" d="M983.88,-610.8C1019.3,-610.8 1075.11,-610.8 1109.63,-610.8"/>
<text xml:space="preserve" text-anchor="middle" x="1034" y="-603.2" font-family="Helvetica,sans-Serif" font-size="8.00" fill="#e2554a">COIL.1</text>
</g>
<!-- flasher&#45;&gt;rtmr&#45;const -->
<g id="edge20" class="edge">
<title>flasher&#45;&gt;rtmr&#45;const</title>
<path fill="none" stroke="#56b4e9" d="M792.75,-727.53C792.75,-716.01 792.75,-703.3 792.75,-703.3 792.75,-703.3 690.81,-703.3 629.49,-703.3"/>
<text xml:space="preserve" text-anchor="middle" x="697.74" y="-695.7" font-family="Helvetica,sans-Serif" font-size="8.00" fill="#56b4e9">TURN.L.COM</text>
</g>
<!-- bh2&#45;&gt;rtmr&#45;const -->
<g id="edge18" class="edge">
<title>bh2&#45;&gt;rtmr&#45;const</title>
<path fill="none" stroke="#56b4e9" d="M54.63,-681C144.35,-681 428.04,-681 539.07,-681"/>
<text xml:space="preserve" text-anchor="middle" x="272.1" y="-673.4" font-family="Helvetica,sans-Serif" font-size="8.00" fill="#56b4e9">TURN.L.TRG</text>
</g>
<!-- bh2&#45;&gt;rtmr&#45;const -->
<g id="edge19" class="edge">
<title>bh2&#45;&gt;rtmr&#45;const</title>
<path fill="none" stroke="#56b4e9" d="M54.63,-677.4C144.35,-677.4 428.04,-677.4 539.07,-677.4"/>
<text xml:space="preserve" text-anchor="middle" x="271.35" y="-669.8" font-family="Helvetica,sans-Serif" font-size="8.00" fill="#56b4e9">TURN.R.TRG</text>
</g>
<!-- bh2&#45;&gt;rtmr&#45;const -->
<g id="edge28" class="edge">
<title>bh2&#45;&gt;rtmr&#45;const</title>
<path fill="none" stroke="#56b4e9" d="M54.63,-684.6C144.35,-684.6 428.04,-684.6 539.07,-684.6"/>
<text xml:space="preserve" text-anchor="middle" x="275.48" y="-677" font-family="Helvetica,sans-Serif" font-size="8.00" fill="#56b4e9">HAZ.L.TRG</text>
</g>
<!-- bh2&#45;&gt;rtmr&#45;const -->
<g id="edge29" class="edge">
<title>bh2&#45;&gt;rtmr&#45;const</title>
<path fill="none" stroke="#56b4e9" d="M54.63,-691.8C144.35,-691.8 428.04,-691.8 539.07,-691.8"/>
<text xml:space="preserve" text-anchor="middle" x="274.73" y="-684.2" font-family="Helvetica,sans-Serif" font-size="8.00" fill="#56b4e9">HAZ.R.TRG</text>
</g>
<!-- sw&#45;brake&#45;&gt;bh3 -->
<g id="edge31" class="edge">
<title>sw&#45;brake&#45;&gt;bh3</title>
<path fill="none" stroke="#56b4e9" d="M728.25,-229.8C561.8,-229.8 13.75,-229.8 13.75,-229.8 13.75,-229.8 13.75,-297.3 13.75,-331.05"/>
<text xml:space="preserve" text-anchor="middle" x="299.75" y="-222.2" font-family="Helvetica,sans-Serif" font-size="8.00" fill="#56b4e9">BRK.OUT.L</text>
</g>
<!-- sw&#45;reverse&#45;&gt;bh3 -->
<g id="edge33" class="edge">
<title>sw&#45;reverse&#45;&gt;bh3</title>
<path fill="none" stroke="#56b4e9" d="M913.75,-205.01C913.75,-245.18 913.75,-337.8 913.75,-337.8 913.75,-337.8 204.18,-337.8 54.51,-337.8"/>
<text xml:space="preserve" text-anchor="middle" x="532.9" y="-330.2" font-family="Helvetica,sans-Serif" font-size="8.00" fill="#56b4e9">REV.OUT</text>
</g>
<!-- snd&#45;temp -->
<g id="node16" class="node">
<title>snd&#45;temp</title>
<path fill="#161d28" stroke="#2a323f" d="M1181.75,-1724.8C1181.75,-1724.8 1099,-1724.8 1099,-1724.8 1093,-1724.8 1087,-1718.8 1087,-1712.8 1087,-1712.8 1087,-1700.8 1087,-1700.8 1087,-1694.8 1093,-1688.8 1099,-1688.8 1099,-1688.8 1181.75,-1688.8 1181.75,-1688.8 1187.75,-1688.8 1193.75,-1694.8 1193.75,-1700.8 1193.75,-1700.8 1193.75,-1712.8 1193.75,-1712.8 1193.75,-1718.8 1187.75,-1724.8 1181.75,-1724.8"/>
<text xml:space="preserve" text-anchor="middle" x="1140.38" y="-1702.92" font-family="Helvetica,sans-Serif" font-size="10.00" fill="#e7ecf3">Coolant&#45;temp sender</text>
</g>
<!-- snd&#45;temp&#45;&gt;bh1 -->
<g id="edge35" class="edge">
<title>snd&#45;temp&#45;&gt;bh1</title>
<path fill="none" stroke="#b07cd1" d="M1086.79,-1706.8C862.9,-1706.8 13.75,-1706.8 13.75,-1706.8 13.75,-1706.8 13.75,-1347.6 13.75,-1260.6"/>
<text xml:space="preserve" text-anchor="middle" x="308.8" y="-1699.2" font-family="Helvetica,sans-Serif" font-size="8.00" fill="#b07cd1">TEMP.SIG</text>
</g>
<!-- snd&#45;oil -->
<g id="node17" class="node">
<title>snd&#45;oil</title>
<path fill="#161d28" stroke="#2a323f" d="M1193.38,-1656.8C1193.38,-1656.8 1087.38,-1656.8 1087.38,-1656.8 1081.38,-1656.8 1075.38,-1650.8 1075.38,-1644.8 1075.38,-1644.8 1075.38,-1632.8 1075.38,-1632.8 1075.38,-1626.8 1081.38,-1620.8 1087.38,-1620.8 1087.38,-1620.8 1193.38,-1620.8 1193.38,-1620.8 1199.38,-1620.8 1205.38,-1626.8 1205.38,-1632.8 1205.38,-1632.8 1205.38,-1644.8 1205.38,-1644.8 1205.38,-1650.8 1199.38,-1656.8 1193.38,-1656.8"/>
<text xml:space="preserve" text-anchor="middle" x="1140.38" y="-1634.92" font-family="Helvetica,sans-Serif" font-size="10.00" fill="#e7ecf3">Oil&#45;pressure gauge sender</text>
</g>
<!-- snd&#45;oil&#45;&gt;bh1 -->
<g id="edge36" class="edge">
<title>snd&#45;oil&#45;&gt;bh1</title>
<path fill="none" stroke="#b07cd1" d="M1075.28,-1638.8C837.09,-1638.8 26.75,-1638.8 26.75,-1638.8 26.75,-1638.8 26.75,-1339.58 26.75,-1260.68"/>
<text xml:space="preserve" text-anchor="middle" x="345.83" y="-1631.2" font-family="Helvetica,sans-Serif" font-size="8.00" fill="#b07cd1">OILP.SIG</text>
</g>
<!-- sw&#45;oillight -->
<g id="node18" class="node">
<title>sw&#45;oillight</title>
<path fill="#161d28" stroke="#2a323f" d="M1196.75,-1588.8C1196.75,-1588.8 1084,-1588.8 1084,-1588.8 1078,-1588.8 1072,-1582.8 1072,-1576.8 1072,-1576.8 1072,-1564.8 1072,-1564.8 1072,-1558.8 1078,-1552.8 1084,-1552.8 1084,-1552.8 1196.75,-1552.8 1196.75,-1552.8 1202.75,-1552.8 1208.75,-1558.8 1208.75,-1564.8 1208.75,-1564.8 1208.75,-1576.8 1208.75,-1576.8 1208.75,-1582.8 1202.75,-1588.8 1196.75,-1588.8"/>
<text xml:space="preserve" text-anchor="middle" x="1140.38" y="-1566.92" font-family="Helvetica,sans-Serif" font-size="10.00" fill="#e7ecf3">Oil&#45;pressure warning switch</text>
</g>
<!-- sw&#45;oillight&#45;&gt;bh1 -->
<g id="edge37" class="edge">
<title>sw&#45;oillight&#45;&gt;bh1</title>
<path fill="none" stroke="#b07cd1" d="M1075.75,-1552.59C1075.75,-1485.66 1075.75,-1257.23 1075.75,-1257.23 1075.75,-1257.23 220.91,-1257.23 54.78,-1257.23"/>
<text xml:space="preserve" text-anchor="middle" x="699.44" y="-1249.63" font-family="Helvetica,sans-Serif" font-size="8.00" fill="#b07cd1">OIL.WL</text>
</g>
<!-- sw3&#45;&gt;rtmr&#45;ign -->
<g id="edge43" class="edge">
<title>sw3&#45;&gt;rtmr&#45;ign</title>
<path fill="none" stroke="#4bc0c0" d="M54.89,-23.4C195.91,-23.4 823.75,-23.4 823.75,-23.4 823.75,-23.4 823.75,-345.31 823.75,-426.42"/>
<text xml:space="preserve" text-anchor="middle" x="614.58" y="-15.8" font-family="Helvetica,sans-Serif" font-size="8.00" fill="#4bc0c0">WIPE.LO.TRG</text>
</g>
<!-- sw3&#45;&gt;rtmr&#45;ign -->
<g id="edge44" class="edge">
<title>sw3&#45;&gt;rtmr&#45;ign</title>
<path fill="none" stroke="#4bc0c0" d="M54.96,-16.2C196.33,-16.2 825.75,-16.2 825.75,-16.2 825.75,-16.2 825.75,-344.35 825.75,-426.38"/>
<text xml:space="preserve" text-anchor="middle" x="620.32" y="-8.6" font-family="Helvetica,sans-Serif" font-size="8.00" fill="#4bc0c0">WIPE.HI.TRG</text>
</g>
<!-- sw3&#45;&gt;rtmr&#45;ign -->
<g id="edge52" class="edge">
<title>sw3&#45;&gt;rtmr&#45;ign</title>
<path fill="none" stroke="#7cd1c4" d="M54.99,-9C196.54,-9 826.75,-9 826.75,-9 826.75,-9 826.75,-343.4 826.75,-426.35"/>
<text xml:space="preserve" text-anchor="middle" x="631.92" y="-1.4" font-family="Helvetica,sans-Serif" font-size="8.00" fill="#7cd1c4">FAN.TRG</text>
</g>
<!-- instr&#45;pwm -->
<g id="node20" class="node">
<title>instr&#45;pwm</title>
<path fill="#161d28" stroke="#2a323f" d="M302,-152.8C302,-152.8 145,-152.8 145,-152.8 139,-152.8 133,-146.8 133,-140.8 133,-140.8 133,-128.8 133,-128.8 133,-122.8 139,-116.8 145,-116.8 145,-116.8 302,-116.8 302,-116.8 308,-116.8 314,-122.8 314,-128.8 314,-128.8 314,-140.8 314,-140.8 314,-146.8 308,-152.8 302,-152.8"/>
<text xml:space="preserve" text-anchor="middle" x="223.5" y="-130.92" font-family="Helvetica,sans-Serif" font-size="10.00" fill="#e7ecf3">Instrument&#45;light PWM dimmer module</text>
</g>
<!-- sw3&#45;&gt;instr&#45;pwm -->
<g id="edge39" class="edge">
<title>sw3&#45;&gt;instr&#45;pwm</title>
<path fill="none" stroke="#b07cd1" d="M26.75,-38.71C26.75,-72.74 26.75,-140.8 26.75,-140.8 26.75,-140.8 81.06,-140.8 132.61,-140.8"/>
<text xml:space="preserve" text-anchor="middle" x="14.38" y="-133.2" font-family="Helvetica,sans-Serif" font-size="8.00" fill="#b07cd1">ILL.DIM</text>
</g>
<!-- sw3&#45;&gt;instr&#45;pwm -->
<g id="edge40" class="edge">
<title>sw3&#45;&gt;instr&#45;pwm</title>
<path fill="none" stroke="#b07cd1" d="M40.75,-38.79C40.75,-70.02 40.75,-128.8 40.75,-128.8 40.75,-128.8 86.8,-128.8 132.66,-128.8"/>
<text xml:space="preserve" text-anchor="middle" x="27.07" y="-121.2" font-family="Helvetica,sans-Serif" font-size="8.00" fill="#b07cd1">ILL.BRT</text>
</g>
<!-- instr&#45;pwm&#45;&gt;bh1 -->
<g id="edge41" class="edge">
<title>instr&#45;pwm&#45;&gt;bh1</title>
<path fill="none" stroke="#b07cd1" d="M163.75,-152.88C163.75,-295.14 163.75,-1228.94 163.75,-1228.94 163.75,-1228.94 94.63,-1228.94 54.67,-1228.94"/>
<text xml:space="preserve" text-anchor="middle" x="148.38" y="-737.85" font-family="Helvetica,sans-Serif" font-size="8.00" fill="#b07cd1">ILL.OUT</text>
</g>
</g>
</svg>
