<?xml version="1.0" encoding="UTF-8" standalone="no"?>
<!DOCTYPE svg PUBLIC "-//W3C//DTD SVG 1.1//EN"
 "http://www.w3.org/Graphics/SVG/1.1/DTD/svg11.dtd">
<!-- Generated by graphviz version 15.0.0 (20260523.1842)
 -->
<!-- Title: dashboard Pages: 1 -->
<svg width="652pt" height="1143pt"
 viewBox="0.00 0.00 652.00 1143.00" xmlns="http://www.w3.org/2000/svg" xmlns:xlink="http://www.w3.org/1999/xlink">
<g id="graph0" class="graph" transform="scale(1 1) rotate(0) translate(4 1139)">
<title>dashboard</title>
<!-- bh1 -->
<g id="node1" class="node">
<title>bh1</title>
<path fill="#1c2530" stroke="#5a6678" stroke-width="2" d="M75,-470C75,-470 45,-470 45,-470 39,-470 33,-464 33,-458 33,-458 33,-446 33,-446 33,-440 39,-434 45,-434 45,-434 75,-434 75,-434 81,-434 87,-440 87,-446 87,-446 87,-458 87,-458 87,-464 81,-470 75,-470"/>
<text xml:space="preserve" text-anchor="middle" x="60" y="-448.12" font-family="Helvetica,sans-Serif" font-size="10.00" fill="#e7ecf3">BH1</text>
</g>
<!-- wl&#45;charge -->
<g id="node2" class="node">
<title>wl&#45;charge</title>
<path fill="#161d28" stroke="#2a323f" d="M601.75,-439C601.75,-439 571.75,-439 571.75,-439 565.75,-439 559.75,-433 559.75,-427 559.75,-427 559.75,-415 559.75,-415 559.75,-409 565.75,-403 571.75,-403 571.75,-403 601.75,-403 601.75,-403 607.75,-403 613.75,-409 613.75,-415 613.75,-415 613.75,-427 613.75,-427 613.75,-433 607.75,-439 601.75,-439"/>
<text xml:space="preserve" text-anchor="middle" x="586.75" y="-417.12" font-family="Helvetica,sans-Serif" font-size="10.00" fill="#e7ecf3">Warning</text>
</g>
<!-- bh1&#45;&gt;wl&#45;charge -->
<g id="edge1" class="edge">
<title>bh1&#45;&gt;wl&#45;charge</title>
<path fill="none" stroke="#e8b04b" d="M87.66,-456.71C197.32,-456.71 595.5,-456.71 595.5,-456.71 595.5,-456.71 595.5,-448.06 595.5,-439.28"/>
<text xml:space="preserve" text-anchor="middle" x="337.93" y="-449.11" font-family="Helvetica,sans-Serif" font-size="8.00" fill="#e8b04b">CHG.L</text>
</g>
<!-- ign&#45;switch -->
<g id="node3" class="node">
<title>ign&#45;switch</title>
<path fill="#161d28" stroke="#2a323f" d="M245,-668C245,-668 190,-668 190,-668 184,-668 178,-662 178,-656 178,-656 178,-644 178,-644 178,-638 184,-632 190,-632 190,-632 245,-632 245,-632 251,-632 257,-638 257,-644 257,-644 257,-656 257,-656 257,-662 251,-668 245,-668"/>
<text xml:space="preserve" text-anchor="middle" x="217.5" y="-646.12" font-family="Helvetica,sans-Serif" font-size="10.00" fill="#e7ecf3">Ignition switch</text>
</g>
<!-- bh1&#45;&gt;ign&#45;switch -->
<g id="edge3" class="edge">
<title>bh1&#45;&gt;ign&#45;switch</title>
<path fill="none" stroke="#e2554a" d="M44.5,-470.73C44.5,-521.69 44.5,-659 44.5,-659 44.5,-659 126.73,-659 177.81,-659"/>
<text xml:space="preserve" text-anchor="middle" x="25.75" y="-623.92" font-family="Helvetica,sans-Serif" font-size="8.00" fill="#e2554a">IGN.30.+B</text>
</g>
<!-- sw&#45;turn -->
<g id="node8" class="node">
<title>sw&#45;turn</title>
<path fill="#161d28" stroke="#2a323f" d="M253.25,-804C253.25,-804 181.75,-804 181.75,-804 175.75,-804 169.75,-798 169.75,-792 169.75,-792 169.75,-780 169.75,-780 169.75,-774 175.75,-768 181.75,-768 181.75,-768 253.25,-768 253.25,-768 259.25,-768 265.25,-774 265.25,-780 265.25,-780 265.25,-792 265.25,-792 265.25,-798 259.25,-804 253.25,-804"/>
<text xml:space="preserve" text-anchor="middle" x="217.5" y="-782.12" font-family="Helvetica,sans-Serif" font-size="10.00" fill="#e7ecf3">Turn&#45;signal switch</text>
</g>
<!-- bh1&#45;&gt;sw&#45;turn -->
<g id="edge11" class="edge">
<title>bh1&#45;&gt;sw&#45;turn</title>
<path fill="none" stroke="#56b4e9" d="M87.81,-465.57C121.12,-465.57 172.5,-465.57 172.5,-465.57 172.5,-465.57 172.5,-700.07 172.5,-767.85"/>
<text xml:space="preserve" text-anchor="middle" x="148.88" y="-566.77" font-family="Helvetica,sans-Serif" font-size="8.00" fill="#56b4e9">TURN.SW.+I</text>
</g>
<!-- sw&#45;hazard -->
<g id="node10" class="node">
<title>sw&#45;hazard</title>
<path fill="#161d28" stroke="#2a323f" d="M245,-736C245,-736 190,-736 190,-736 184,-736 178,-730 178,-724 178,-724 178,-712 178,-712 178,-706 184,-700 190,-700 190,-700 245,-700 245,-700 251,-700 257,-706 257,-712 257,-712 257,-724 257,-724 257,-730 251,-736 245,-736"/>
<text xml:space="preserve" text-anchor="middle" x="217.5" y="-714.12" font-family="Helvetica,sans-Serif" font-size="10.00" fill="#e7ecf3">Hazard switch</text>
</g>
<!-- bh1&#45;&gt;sw&#45;hazard -->
<g id="edge16" class="edge">
<title>bh1&#45;&gt;sw&#45;hazard</title>
<path fill="none" stroke="#56b4e9" d="M38.5,-470.9C38.5,-530.25 38.5,-709 38.5,-709 38.5,-709 125.04,-709 177.77,-709"/>
<text xml:space="preserve" text-anchor="middle" x="24.25" y="-651.99" font-family="Helvetica,sans-Serif" font-size="8.00" fill="#56b4e9">HAZ.+B</text>
</g>
<!-- g&#45;fuel -->
<g id="node11" class="node">
<title>g&#45;fuel</title>
<path fill="#161d28" stroke="#2a323f" d="M606.75,-585C606.75,-585 566.75,-585 566.75,-585 560.75,-585 554.75,-579 554.75,-573 554.75,-573 554.75,-561 554.75,-561 554.75,-555 560.75,-549 566.75,-549 566.75,-549 606.75,-549 606.75,-549 612.75,-549 618.75,-555 618.75,-561 618.75,-561 618.75,-573 618.75,-573 618.75,-579 612.75,-585 606.75,-585"/>
<text xml:space="preserve" text-anchor="middle" x="586.75" y="-563.12" font-family="Helvetica,sans-Serif" font-size="10.00" fill="#e7ecf3">Fuel gauge</text>
</g>
<!-- bh1&#45;&gt;g&#45;fuel -->
<g id="edge19" class="edge">
<title>bh1&#45;&gt;g&#45;fuel</title>
<path fill="none" stroke="#b07cd1" d="M62.5,-470.99C62.5,-503.65 62.5,-567 62.5,-567 62.5,-567 440.05,-567 554.35,-567"/>
<text xml:space="preserve" text-anchor="middle" x="241.67" y="-559.4" font-family="Helvetica,sans-Serif" font-size="8.00" fill="#b07cd1">GAUGE.+I</text>
</g>
<!-- bh1&#45;&gt;g&#45;fuel -->
<g id="edge26" class="edge">
<title>bh1&#45;&gt;g&#45;fuel</title>
<path fill="none" stroke="#b07cd1" d="M68.5,-470.95C68.5,-501.44 68.5,-558 68.5,-558 68.5,-558 440.87,-558 554.33,-558"/>
<text xml:space="preserve" text-anchor="middle" x="252.52" y="-550.4" font-family="Helvetica,sans-Serif" font-size="8.00" fill="#b07cd1">ILL.OUT</text>
</g>
<!-- g&#45;temp -->
<g id="node13" class="node">
<title>g&#45;temp</title>
<path fill="#161d28" stroke="#2a323f" d="M626.62,-371C626.62,-371 546.88,-371 546.88,-371 540.88,-371 534.88,-365 534.88,-359 534.88,-359 534.88,-347 534.88,-347 534.88,-341 540.88,-335 546.88,-335 546.88,-335 626.62,-335 626.62,-335 632.62,-335 638.62,-341 638.62,-347 638.62,-347 638.62,-359 638.62,-359 638.62,-365 632.62,-371 626.62,-371"/>
<text xml:space="preserve" text-anchor="middle" x="586.75" y="-349.12" font-family="Helvetica,sans-Serif" font-size="10.00" fill="#e7ecf3">Coolant&#45;temp gauge</text>
</g>
<!-- bh1&#45;&gt;g&#45;temp -->
<g id="edge21" class="edge">
<title>bh1&#45;&gt;g&#45;temp</title>
<path fill="none" stroke="#b07cd1" d="M87.91,-452.29C190.46,-452.29 540.5,-452.29 540.5,-452.29 540.5,-452.29 540.5,-399.87 540.5,-371.21"/>
<text xml:space="preserve" text-anchor="middle" x="373.12" y="-444.69" font-family="Helvetica,sans-Serif" font-size="8.00" fill="#b07cd1">TEMP.SIG</text>
</g>
<!-- g&#45;oil -->
<g id="node14" class="node">
<title>g&#45;oil</title>
<path fill="#161d28" stroke="#2a323f" d="M623.62,-303C623.62,-303 549.88,-303 549.88,-303 543.88,-303 537.88,-297 537.88,-291 537.88,-291 537.88,-279 537.88,-279 537.88,-273 543.88,-267 549.88,-267 549.88,-267 623.62,-267 623.62,-267 629.62,-267 635.62,-273 635.62,-279 635.62,-279 635.62,-291 635.62,-291 635.62,-297 629.62,-303 623.62,-303"/>
<text xml:space="preserve" text-anchor="middle" x="586.75" y="-281.12" font-family="Helvetica,sans-Serif" font-size="10.00" fill="#e7ecf3">Oil&#45;pressure gauge</text>
</g>
<!-- bh1&#45;&gt;g&#45;oil -->
<g id="edge22" class="edge">
<title>bh1&#45;&gt;g&#45;oil</title>
<path fill="none" stroke="#b07cd1" d="M76.5,-433.17C76.5,-389.49 76.5,-285 76.5,-285 76.5,-285 410.11,-285 537.83,-285"/>
<text xml:space="preserve" text-anchor="middle" x="216.95" y="-277.4" font-family="Helvetica,sans-Serif" font-size="8.00" fill="#b07cd1">OILP.SIG</text>
</g>
<!-- wl&#45;oil -->
<g id="node15" class="node">
<title>wl&#45;oil</title>
<path fill="#161d28" stroke="#2a323f" d="M601.75,-512C601.75,-512 571.75,-512 571.75,-512 565.75,-512 559.75,-506 559.75,-500 559.75,-500 559.75,-488 559.75,-488 559.75,-482 565.75,-476 571.75,-476 571.75,-476 601.75,-476 601.75,-476 607.75,-476 613.75,-482 613.75,-488 613.75,-488 613.75,-500 613.75,-500 613.75,-506 607.75,-512 601.75,-512"/>
<text xml:space="preserve" text-anchor="middle" x="586.75" y="-490.12" font-family="Helvetica,sans-Serif" font-size="10.00" fill="#e7ecf3">Warning</text>
</g>
<!-- bh1&#45;&gt;wl&#45;oil -->
<g id="edge23" class="edge">
<title>bh1&#45;&gt;wl&#45;oil</title>
<path fill="none" stroke="#b07cd1" d="M87.82,-461.14C195.31,-461.14 577.5,-461.14 577.5,-461.14 577.5,-461.14 577.5,-468.12 577.5,-475.65"/>
<text xml:space="preserve" text-anchor="middle" x="326.42" y="-462.54" font-family="Helvetica,sans-Serif" font-size="8.00" fill="#b07cd1">OIL.WL</text>
</g>
<!-- g&#45;tach -->
<g id="node16" class="node">
<title>g&#45;tach</title>
<path fill="#161d28" stroke="#2a323f" d="M608.25,-171C608.25,-171 565.25,-171 565.25,-171 559.25,-171 553.25,-165 553.25,-159 553.25,-159 553.25,-147 553.25,-147 553.25,-141 559.25,-135 565.25,-135 565.25,-135 608.25,-135 608.25,-135 614.25,-135 620.25,-141 620.25,-147 620.25,-147 620.25,-159 620.25,-159 620.25,-165 614.25,-171 608.25,-171"/>
<text xml:space="preserve" text-anchor="middle" x="586.75" y="-149.12" font-family="Helvetica,sans-Serif" font-size="10.00" fill="#e7ecf3">Tachometer</text>
</g>
<!-- bh1&#45;&gt;g&#45;tach -->
<g id="edge24" class="edge">
<title>bh1&#45;&gt;g&#45;tach</title>
<path fill="none" stroke="#b07cd1" d="M65.5,-433.3C65.5,-367.84 65.5,-153 65.5,-153 65.5,-153 437.44,-153 552.95,-153"/>
<text xml:space="preserve" text-anchor="middle" x="150.33" y="-145.4" font-family="Helvetica,sans-Serif" font-size="8.00" fill="#b07cd1">TACH.SIG</text>
</g>
<!-- sw&#45;washer -->
<g id="node17" class="node">
<title>sw&#45;washer</title>
<path fill="#161d28" stroke="#2a323f" d="M257,-104C257,-104 178,-104 178,-104 172,-104 166,-98 166,-92 166,-92 166,-80 166,-80 166,-74 172,-68 178,-68 178,-68 257,-68 257,-68 263,-68 269,-74 269,-80 269,-80 269,-92 269,-92 269,-98 263,-104 257,-104"/>
<text xml:space="preserve" text-anchor="middle" x="217.5" y="-82.12" font-family="Helvetica,sans-Serif" font-size="10.00" fill="#e7ecf3">Washer push button</text>
</g>
<!-- bh1&#45;&gt;sw&#45;washer -->
<g id="edge27" class="edge">
<title>bh1&#45;&gt;sw&#45;washer</title>
<path fill="none" stroke="#4bc0c0" d="M54.5,-433.15C54.5,-359.08 54.5,-92 54.5,-92 54.5,-92 118.17,-92 165.93,-92"/>
<text xml:space="preserve" text-anchor="middle" x="38" y="-199.26" font-family="Helvetica,sans-Serif" font-size="8.00" fill="#4bc0c0">WASH.+I</text>
</g>
<!-- int&#45;light -->
<g id="node19" class="node">
<title>int&#45;light</title>
<path fill="#161d28" stroke="#2a323f" d="M631.5,-36C631.5,-36 542,-36 542,-36 536,-36 530,-30 530,-24 530,-24 530,-12 530,-12 530,-6 536,0 542,0 542,0 631.5,0 631.5,0 637.5,0 643.5,-6 643.5,-12 643.5,-12 643.5,-24 643.5,-24 643.5,-30 637.5,-36 631.5,-36"/>
<text xml:space="preserve" text-anchor="middle" x="586.75" y="-14.12" font-family="Helvetica,sans-Serif" font-size="10.00" fill="#e7ecf3">Interior / courtesy light</text>
</g>
<!-- bh1&#45;&gt;int&#45;light -->
<g id="edge30" class="edge">
<title>bh1&#45;&gt;int&#45;light</title>
<path fill="none" stroke="#9a9a9a" d="M87.91,-447.86C183.31,-447.86 490.5,-447.86 490.5,-447.86 490.5,-447.86 490.5,-24 490.5,-24 490.5,-24 508.92,-24 529.65,-24"/>
<text xml:space="preserve" text-anchor="middle" x="478.5" y="-410.05" font-family="Helvetica,sans-Serif" font-size="8.00" fill="#9a9a9a">INT.+B</text>
</g>
<!-- usb&#45;charge -->
<g id="node22" class="node">
<title>usb&#45;charge</title>
<path fill="#161d28" stroke="#2a323f" d="M255.12,-238C255.12,-238 179.88,-238 179.88,-238 173.88,-238 167.88,-232 167.88,-226 167.88,-226 167.88,-214 167.88,-214 167.88,-208 173.88,-202 179.88,-202 179.88,-202 255.12,-202 255.12,-202 261.12,-202 267.12,-208 267.12,-214 267.12,-214 267.12,-226 267.12,-226 267.12,-232 261.12,-238 255.12,-238"/>
<text xml:space="preserve" text-anchor="middle" x="217.5" y="-216.12" font-family="Helvetica,sans-Serif" font-size="10.00" fill="#e7ecf3">USB&#45;C charge port</text>
</g>
<!-- bh1&#45;&gt;usb&#45;charge -->
<g id="edge33" class="edge">
<title>bh1&#45;&gt;usb&#45;charge</title>
<path fill="none" stroke="#9a9a9a" d="M87.96,-443.43C122.14,-443.43 175.5,-443.43 175.5,-443.43 175.5,-443.43 175.5,-291.65 175.5,-238.28"/>
<text xml:space="preserve" text-anchor="middle" x="162.37" y="-377.03" font-family="Helvetica,sans-Serif" font-size="8.00" fill="#9a9a9a">ACC.+I</text>
</g>
<!-- ign&#45;switch&#45;&gt;bh1 -->
<g id="edge2" class="edge">
<title>ign&#45;switch&#45;&gt;bh1</title>
<path fill="none" stroke="#c98a4b" d="M177.92,-650C128.54,-650 50.5,-650 50.5,-650 50.5,-650 50.5,-520.54 50.5,-470.99"/>
<text xml:space="preserve" text-anchor="middle" x="70.38" y="-625.6" font-family="Helvetica,sans-Serif" font-size="8.00" fill="#c98a4b">STRT.TRG</text>
</g>
<!-- ign&#45;switch&#45;&gt;bh1 -->
<g id="edge4" class="edge">
<title>ign&#45;switch&#45;&gt;bh1</title>
<path fill="none" stroke="#e2554a" d="M177.7,-641C130.03,-641 56.5,-641 56.5,-641 56.5,-641 56.5,-518.62 56.5,-470.81"/>
<text xml:space="preserve" text-anchor="middle" x="28.38" y="-608.91" font-family="Helvetica,sans-Serif" font-size="8.00" fill="#e2554a">IGN.MAIN.TRG</text>
</g>
<!-- sw&#45;headlight -->
<g id="node4" class="node">
<title>sw&#45;headlight</title>
<path fill="#161d28" stroke="#2a323f" d="M431.88,-668C431.88,-668 367.12,-668 367.12,-668 361.12,-668 355.12,-662 355.12,-656 355.12,-656 355.12,-644 355.12,-644 355.12,-638 361.12,-632 367.12,-632 367.12,-632 431.88,-632 431.88,-632 437.88,-632 443.88,-638 443.88,-644 443.88,-644 443.88,-656 443.88,-656 443.88,-662 437.88,-668 431.88,-668"/>
<text xml:space="preserve" text-anchor="middle" x="399.5" y="-646.12" font-family="Helvetica,sans-Serif" font-size="10.00" fill="#e7ecf3">Headlight switch</text>
</g>
<!-- ign&#45;switch&#45;&gt;sw&#45;headlight -->
<g id="edge5" class="edge">
<title>ign&#45;switch&#45;&gt;sw&#45;headlight</title>
<path fill="none" stroke="#f5c451" d="M257.44,-656C286.22,-656 325.06,-656 354.86,-656"/>
<text xml:space="preserve" text-anchor="middle" x="289.65" y="-648.4" font-family="Helvetica,sans-Serif" font-size="8.00" fill="#f5c451">HL.EN.+I</text>
</g>
<!-- sw&#45;dipflash -->
<g id="node5" class="node">
<title>sw&#45;dipflash</title>
<path fill="#161d28" stroke="#2a323f" d="M605.25,-735C605.25,-735 568.25,-735 568.25,-735 562.25,-735 556.25,-729 556.25,-723 556.25,-723 556.25,-711 556.25,-711 556.25,-705 562.25,-699 568.25,-699 568.25,-699 605.25,-699 605.25,-699 611.25,-699 617.25,-705 617.25,-711 617.25,-711 617.25,-723 617.25,-723 617.25,-729 611.25,-735 605.25,-735"/>
<text xml:space="preserve" text-anchor="middle" x="586.75" y="-713.12" font-family="Helvetica,sans-Serif" font-size="10.00" fill="#e7ecf3">Dip / flash</text>
</g>
<!-- ign&#45;switch&#45;&gt;sw&#45;dipflash -->
<g id="edge7" class="edge">
<title>ign&#45;switch&#45;&gt;sw&#45;dipflash</title>
<path fill="none" stroke="#f5c451" d="M257.44,-644C259.95,-644 261.5,-644 261.5,-644 261.5,-644 261.5,-708.75 261.5,-708.75 261.5,-708.75 474.67,-708.75 555.86,-708.75"/>
<text xml:space="preserve" text-anchor="middle" x="350.27" y="-701.15" font-family="Helvetica,sans-Serif" font-size="8.00" fill="#f5c451">HL.FLASH.+I</text>
</g>
<!-- sw&#45;headlight&#45;&gt;sw&#45;dipflash -->
<g id="edge6" class="edge">
<title>sw&#45;headlight&#45;&gt;sw&#45;dipflash</title>
<path fill="none" stroke="#f5c451" d="M444.29,-650C499.61,-650 586.5,-650 586.5,-650 586.5,-650 586.5,-678.85 586.5,-698.69"/>
<text xml:space="preserve" text-anchor="middle" x="522.12" y="-642.4" font-family="Helvetica,sans-Serif" font-size="8.00" fill="#f5c451">HL.HEAD</text>
</g>
<!-- bh2 -->
<g id="node6" class="node">
<title>bh2</title>
<path fill="#1c2530" stroke="#5a6678" stroke-width="2" d="M75,-887C75,-887 45,-887 45,-887 39,-887 33,-881 33,-875 33,-875 33,-863 33,-863 33,-857 39,-851 45,-851 45,-851 75,-851 75,-851 81,-851 87,-857 87,-863 87,-863 87,-875 87,-875 87,-881 81,-887 75,-887"/>
<text xml:space="preserve" text-anchor="middle" x="60" y="-865.12" font-family="Helvetica,sans-Serif" font-size="10.00" fill="#e7ecf3">BH2</text>
</g>
<!-- sw&#45;dipflash&#45;&gt;bh2 -->
<g id="edge8" class="edge">
<title>sw&#45;dipflash&#45;&gt;bh2</title>
<path fill="none" stroke="#f5c451" d="M555.78,-717.5C545.44,-717.5 536.5,-717.5 536.5,-717.5 536.5,-717.5 536.5,-866.43 536.5,-866.43 536.5,-866.43 189.38,-866.43 87.68,-866.43"/>
<text xml:space="preserve" text-anchor="middle" x="374.82" y="-858.83" font-family="Helvetica,sans-Serif" font-size="8.00" fill="#f5c451">HL.LO.TRG</text>
</g>
<!-- sw&#45;dipflash&#45;&gt;bh2 -->
<g id="edge9" class="edge">
<title>sw&#45;dipflash&#45;&gt;bh2</title>
<path fill="none" stroke="#f5c451" d="M555.92,-726.25C546.46,-726.25 538.5,-726.25 538.5,-726.25 538.5,-726.25 538.5,-871.57 538.5,-871.57 538.5,-871.57 189.92,-871.57 87.79,-871.57"/>
<text xml:space="preserve" text-anchor="middle" x="374.27" y="-872.97" font-family="Helvetica,sans-Serif" font-size="8.00" fill="#f5c451">HL.HI.TRG</text>
</g>
<!-- wl&#45;main -->
<g id="node7" class="node">
<title>wl&#45;main</title>
<path fill="#161d28" stroke="#2a323f" d="M601.75,-1135C601.75,-1135 571.75,-1135 571.75,-1135 565.75,-1135 559.75,-1129 559.75,-1123 559.75,-1123 559.75,-1111 559.75,-1111 559.75,-1105 565.75,-1099 571.75,-1099 571.75,-1099 601.75,-1099 601.75,-1099 607.75,-1099 613.75,-1105 613.75,-1111 613.75,-1111 613.75,-1123 613.75,-1123 613.75,-1129 607.75,-1135 601.75,-1135"/>
<text xml:space="preserve" text-anchor="middle" x="586.75" y="-1113.12" font-family="Helvetica,sans-Serif" font-size="10.00" fill="#e7ecf3">Tell&#45;tale</text>
</g>
<!-- bh2&#45;&gt;wl&#45;main -->
<g id="edge10" class="edge">
<title>bh2&#45;&gt;wl&#45;main</title>
<path fill="none" stroke="#f5c451" d="M50.5,-887.64C50.5,-945.32 50.5,-1117 50.5,-1117 50.5,-1117 450.14,-1117 559.42,-1117"/>
<text xml:space="preserve" text-anchor="middle" x="168.91" y="-1109.4" font-family="Helvetica,sans-Serif" font-size="8.00" fill="#f5c451">HL.HI.TELL</text>
</g>
<!-- wl&#45;turn -->
<g id="node9" class="node">
<title>wl&#45;turn</title>
<path fill="#161d28" stroke="#2a323f" d="M601.75,-1053C601.75,-1053 571.75,-1053 571.75,-1053 565.75,-1053 559.75,-1047 559.75,-1041 559.75,-1041 559.75,-1029 559.75,-1029 559.75,-1023 565.75,-1017 571.75,-1017 571.75,-1017 601.75,-1017 601.75,-1017 607.75,-1017 613.75,-1023 613.75,-1029 613.75,-1029 613.75,-1041 613.75,-1041 613.75,-1047 607.75,-1053 601.75,-1053"/>
<text xml:space="preserve" text-anchor="middle" x="586.75" y="-1031.12" font-family="Helvetica,sans-Serif" font-size="10.00" fill="#e7ecf3">Tell&#45;tale</text>
</g>
<!-- bh2&#45;&gt;wl&#45;turn -->
<g id="edge14" class="edge">
<title>bh2&#45;&gt;wl&#45;turn</title>
<path fill="none" stroke="#56b4e9" d="M87.82,-881.86C195.31,-881.86 577.5,-881.86 577.5,-881.86 577.5,-881.86 577.5,-975.8 577.5,-1016.53"/>
<text xml:space="preserve" text-anchor="middle" x="374.12" y="-883.26" font-family="Helvetica,sans-Serif" font-size="8.00" fill="#56b4e9">TURN.TELL.L</text>
</g>
<!-- bh2&#45;&gt;wl&#45;turn -->
<g id="edge15" class="edge">
<title>bh2&#45;&gt;wl&#45;turn</title>
<path fill="none" stroke="#56b4e9" d="M87.66,-876.71C197.32,-876.71 595.5,-876.71 595.5,-876.71 595.5,-876.71 595.5,-974.78 595.5,-1016.53"/>
<text xml:space="preserve" text-anchor="middle" x="438.12" y="-869.11" font-family="Helvetica,sans-Serif" font-size="8.00" fill="#56b4e9">TURN.TELL.R</text>
</g>
<!-- sw&#45;horn -->
<g id="node18" class="node">
<title>sw&#45;horn</title>
<path fill="#161d28" stroke="#2a323f" d="M239,-970C239,-970 196,-970 196,-970 190,-970 184,-964 184,-958 184,-958 184,-946 184,-946 184,-940 190,-934 196,-934 196,-934 239,-934 239,-934 245,-934 251,-940 251,-946 251,-946 251,-958 251,-958 251,-964 245,-970 239,-970"/>
<text xml:space="preserve" text-anchor="middle" x="217.5" y="-948.12" font-family="Helvetica,sans-Serif" font-size="10.00" fill="#e7ecf3">Horn button</text>
</g>
<!-- bh2&#45;&gt;sw&#45;horn -->
<g id="edge29" class="edge">
<title>bh2&#45;&gt;sw&#45;horn</title>
<path fill="none" stroke="#9a9a9a" d="M68.5,-887.83C68.5,-912.32 68.5,-952 68.5,-952 68.5,-952 139.73,-952 183.69,-952"/>
<text xml:space="preserve" text-anchor="middle" x="72.26" y="-944.4" font-family="Helvetica,sans-Serif" font-size="8.00" fill="#9a9a9a">HORN.TRG</text>
</g>
<!-- sw&#45;turn&#45;&gt;bh2 -->
<g id="edge12" class="edge">
<title>sw&#45;turn&#45;&gt;bh2</title>
<path fill="none" stroke="#56b4e9" d="M179.5,-804.22C179.5,-826.51 179.5,-861.29 179.5,-861.29 179.5,-861.29 123.02,-861.29 87.72,-861.29"/>
<text xml:space="preserve" text-anchor="middle" x="186.89" y="-853.69" font-family="Helvetica,sans-Serif" font-size="8.00" fill="#56b4e9">TURN.L.TRG</text>
</g>
<!-- sw&#45;turn&#45;&gt;bh2 -->
<g id="edge13" class="edge">
<title>sw&#45;turn&#45;&gt;bh2</title>
<path fill="none" stroke="#56b4e9" d="M174.5,-804.43C174.5,-825.21 174.5,-856.14 174.5,-856.14 174.5,-856.14 121.6,-856.14 87.72,-856.14"/>
<text xml:space="preserve" text-anchor="middle" x="131.47" y="-848.54" font-family="Helvetica,sans-Serif" font-size="8.00" fill="#56b4e9">TURN.R.TRG</text>
</g>
<!-- sw&#45;hazard&#45;&gt;bh2 -->
<g id="edge17" class="edge">
<title>sw&#45;hazard&#45;&gt;bh2</title>
<path fill="none" stroke="#56b4e9" d="M177.51,-727C137.07,-727 80.5,-727 80.5,-727 80.5,-727 80.5,-811.52 80.5,-850.14"/>
<text xml:space="preserve" text-anchor="middle" x="101.88" y="-732.47" font-family="Helvetica,sans-Serif" font-size="8.00" fill="#56b4e9">HAZ.L.TRG</text>
</g>
<!-- sw&#45;hazard&#45;&gt;bh2 -->
<g id="edge18" class="edge">
<title>sw&#45;hazard&#45;&gt;bh2</title>
<path fill="none" stroke="#56b4e9" d="M177.67,-718C135.35,-718 74.5,-718 74.5,-718 74.5,-718 74.5,-809.7 74.5,-850.18"/>
<text xml:space="preserve" text-anchor="middle" x="52.38" y="-724.91" font-family="Helvetica,sans-Serif" font-size="8.00" fill="#56b4e9">HAZ.R.TRG</text>
</g>
<!-- g&#45;fuel&#45;&gt;wl&#45;oil -->
<g id="edge25" class="edge">
<title>g&#45;fuel&#45;&gt;wl&#45;oil</title>
<path fill="none" stroke="#b07cd1" d="M586.5,-548.58C586.5,-537.51 586.5,-523.48 586.5,-512.42"/>
<text xml:space="preserve" text-anchor="middle" x="576" y="-522.9" font-family="Helvetica,sans-Serif" font-size="8.00" fill="#b07cd1">WL.+I</text>
</g>
<!-- snd&#45;fuel -->
<g id="node12" class="node">
<title>snd&#45;fuel</title>
<path fill="#161d28" stroke="#2a323f" d="M619.12,-803C619.12,-803 554.38,-803 554.38,-803 548.38,-803 542.38,-797 542.38,-791 542.38,-791 542.38,-779 542.38,-779 542.38,-773 548.38,-767 554.38,-767 554.38,-767 619.12,-767 619.12,-767 625.12,-767 631.12,-773 631.12,-779 631.12,-779 631.12,-791 631.12,-791 631.12,-797 625.12,-803 619.12,-803"/>
<text xml:space="preserve" text-anchor="middle" x="586.75" y="-781.12" font-family="Helvetica,sans-Serif" font-size="10.00" fill="#e7ecf3">Fuel&#45;tank sender</text>
</g>
<!-- snd&#45;fuel&#45;&gt;g&#45;fuel -->
<g id="edge20" class="edge">
<title>snd&#45;fuel&#45;&gt;g&#45;fuel</title>
<path fill="none" stroke="#b07cd1" d="M548.5,-766.82C548.5,-715.97 548.5,-576 548.5,-576 548.5,-576 550.89,-576 554.48,-576"/>
<text xml:space="preserve" text-anchor="middle" x="530.12" y="-660.82" font-family="Helvetica,sans-Serif" font-size="8.00" fill="#b07cd1">FUEL.SIG</text>
</g>
<!-- sw&#45;washer&#45;&gt;bh1 -->
<g id="edge28" class="edge">
<title>sw&#45;washer&#45;&gt;bh1</title>
<path fill="none" stroke="#4bc0c0" d="M165.77,-80C114.47,-80 43.5,-80 43.5,-80 43.5,-80 43.5,-357.23 43.5,-433.04"/>
<text xml:space="preserve" text-anchor="middle" x="21.75" y="-187.79" font-family="Helvetica,sans-Serif" font-size="8.00" fill="#4bc0c0">WASH.TRG</text>
</g>
<!-- sw&#45;door&#45;l -->
<g id="node20" class="node">
<title>sw&#45;door&#45;l</title>
<path fill="#161d28" stroke="#2a323f" d="M435.25,-104C435.25,-104 363.75,-104 363.75,-104 357.75,-104 351.75,-98 351.75,-92 351.75,-92 351.75,-80 351.75,-80 351.75,-74 357.75,-68 363.75,-68 363.75,-68 435.25,-68 435.25,-68 441.25,-68 447.25,-74 447.25,-80 447.25,-80 447.25,-92 447.25,-92 447.25,-98 441.25,-104 435.25,-104"/>
<text xml:space="preserve" text-anchor="middle" x="399.5" y="-82.12" font-family="Helvetica,sans-Serif" font-size="10.00" fill="#e7ecf3">Door switch LEFT</text>
</g>
<!-- int&#45;light&#45;&gt;sw&#45;door&#45;l -->
<g id="edge31" class="edge">
<title>int&#45;light&#45;&gt;sw&#45;door&#45;l</title>
<path fill="none" stroke="#9a9a9a" d="M545.5,-36.22C545.5,-56.37 545.5,-86 545.5,-86 545.5,-86 490.24,-86 447.71,-86"/>
<text xml:space="preserve" text-anchor="middle" x="498.99" y="-78.4" font-family="Helvetica,sans-Serif" font-size="8.00" fill="#9a9a9a">INT.DOOR.L</text>
</g>
<!-- sw&#45;door&#45;r -->
<g id="node21" class="node">
<title>sw&#45;door&#45;r</title>
<path fill="#161d28" stroke="#2a323f" d="M439,-36C439,-36 360,-36 360,-36 354,-36 348,-30 348,-24 348,-24 348,-12 348,-12 348,-6 354,0 360,0 360,0 439,0 439,0 445,0 451,-6 451,-12 451,-12 451,-24 451,-24 451,-30 445,-36 439,-36"/>
<text xml:space="preserve" text-anchor="middle" x="399.5" y="-14.12" font-family="Helvetica,sans-Serif" font-size="10.00" fill="#e7ecf3">Door switch RIGHT</text>
</g>
<!-- int&#45;light&#45;&gt;sw&#45;door&#45;r -->
<g id="edge32" class="edge">
<title>int&#45;light&#45;&gt;sw&#45;door&#45;r</title>
<path fill="none" stroke="#9a9a9a" d="M529.55,-12C504.6,-12 475.56,-12 451.26,-12"/>
<text xml:space="preserve" text-anchor="middle" x="467.15" y="-4.4" font-family="Helvetica,sans-Serif" font-size="8.00" fill="#9a9a9a">INT.DOOR.R</text>
</g>
<!-- stereo -->
<g id="node23" class="node">
<title>stereo</title>
<path fill="#161d28" stroke="#2a323f" d="M414.5,-238C414.5,-238 384.5,-238 384.5,-238 378.5,-238 372.5,-232 372.5,-226 372.5,-226 372.5,-214 372.5,-214 372.5,-208 378.5,-202 384.5,-202 384.5,-202 414.5,-202 414.5,-202 420.5,-202 426.5,-208 426.5,-214 426.5,-214 426.5,-226 426.5,-226 426.5,-232 420.5,-238 414.5,-238"/>
<text xml:space="preserve" text-anchor="middle" x="399.5" y="-216.12" font-family="Helvetica,sans-Serif" font-size="10.00" fill="#e7ecf3">Stereo</text>
</g>
<!-- usb&#45;charge&#45;&gt;stereo -->
<g id="edge34" class="edge">
<title>usb&#45;charge&#45;&gt;stereo</title>
<path fill="none" stroke="#9a9a9a" d="M267.23,-220C301.02,-220 344.43,-220 372.12,-220"/>
<text xml:space="preserve" text-anchor="middle" x="284.42" y="-212.4" font-family="Helvetica,sans-Serif" font-size="8.00" fill="#9a9a9a">ACC.STEREO.JMP</text>
</g>
</g>
</svg>
