<?xml version="1.0" encoding="UTF-8" standalone="no"?>
<!DOCTYPE svg PUBLIC "-//W3C//DTD SVG 1.1//EN"
 "http://www.w3.org/Graphics/SVG/1.1/DTD/svg11.dtd">
<!-- Generated by graphviz version 15.0.0 (20260523.1842)
 -->
<!-- Pages: 1 -->
<svg width="4797pt" height="554pt"
 viewBox="0.00 0.00 4797.00 554.00" xmlns="http://www.w3.org/2000/svg" xmlns:xlink="http://www.w3.org/1999/xlink">
<g id="graph0" class="graph" transform="scale(1 1) rotate(0) translate(4 549.75)">
<polygon fill="#ffffff" stroke="none" points="-4,4 -4,-549.75 4792.5,-549.75 4792.5,4 -4,4"/>
<!-- sw&#45;instr -->
<g id="node1" class="node">
<title>sw&#45;instr</title>
<polygon fill="#ffffff" stroke="black" points="2392.88,-402.75 2140.62,-402.75 2140.62,-284 2392.88,-284 2392.88,-402.75"/>
<polygon fill="none" stroke="black" points="2140.62,-379 2140.62,-402.75 2392.88,-402.75 2392.88,-379 2140.62,-379"/>
<text xml:space="preserve" text-anchor="start" x="2243.5" y="-386" font-family="arial" font-size="14.00">sw&#45;instr</text>
<polygon fill="none" stroke="black" points="2140.62,-355.25 2140.62,-379 2354.88,-379 2354.88,-355.25 2140.62,-355.25"/>
<text xml:space="preserve" text-anchor="start" x="2144.62" y="-362.25" font-family="arial" font-size="14.00">Instrument&#45;light switch (3&#45;position)</text>
<polygon fill="none" stroke="black" points="2354.88,-355.25 2354.88,-379 2392.88,-379 2392.88,-355.25 2354.88,-355.25"/>
<text xml:space="preserve" text-anchor="start" x="2358.88" y="-362.25" font-family="arial" font-size="14.00">3&#45;pin</text>
<polygon fill="none" stroke="black" points="2140.62,-331.5 2140.62,-355.25 2215.96,-355.25 2215.96,-331.5 2140.62,-331.5"/>
<text xml:space="preserve" text-anchor="start" x="2174.54" y="-338.5" font-family="arial" font-size="14.00">1</text>
<polygon fill="none" stroke="black" points="2215.96,-331.5 2215.96,-355.25 2317.54,-355.25 2317.54,-331.5 2215.96,-331.5"/>
<text xml:space="preserve" text-anchor="start" x="2255.5" y="-338.5" font-family="arial" font-size="14.00">dim</text>
<polygon fill="none" stroke="black" points="2317.54,-331.5 2317.54,-355.25 2392.88,-355.25 2392.88,-331.5 2317.54,-331.5"/>
<text xml:space="preserve" text-anchor="start" x="2351.46" y="-338.5" font-family="arial" font-size="14.00">1</text>
<polygon fill="none" stroke="black" points="2140.62,-307.75 2140.62,-331.5 2215.96,-331.5 2215.96,-307.75 2140.62,-307.75"/>
<text xml:space="preserve" text-anchor="start" x="2174.54" y="-314.75" font-family="arial" font-size="14.00">2</text>
<polygon fill="none" stroke="black" points="2215.96,-307.75 2215.96,-331.5 2317.54,-331.5 2317.54,-307.75 2215.96,-307.75"/>
<text xml:space="preserve" text-anchor="start" x="2249.88" y="-314.75" font-family="arial" font-size="14.00">bright</text>
<polygon fill="none" stroke="black" points="2317.54,-307.75 2317.54,-331.5 2392.88,-331.5 2392.88,-307.75 2317.54,-307.75"/>
<text xml:space="preserve" text-anchor="start" x="2351.46" y="-314.75" font-family="arial" font-size="14.00">2</text>
<polygon fill="none" stroke="black" points="2140.62,-284 2140.62,-307.75 2215.96,-307.75 2215.96,-284 2140.62,-284"/>
<text xml:space="preserve" text-anchor="start" x="2174.54" y="-291" font-family="arial" font-size="14.00">3</text>
<polygon fill="none" stroke="black" points="2215.96,-284 2215.96,-307.75 2317.54,-307.75 2317.54,-284 2215.96,-284"/>
<text xml:space="preserve" text-anchor="start" x="2261.5" y="-291" font-family="arial" font-size="14.00">in</text>
<polygon fill="none" stroke="black" points="2317.54,-284 2317.54,-307.75 2392.88,-307.75 2392.88,-284 2317.54,-284"/>
<text xml:space="preserve" text-anchor="start" x="2351.46" y="-291" font-family="arial" font-size="14.00">3</text>
</g>
<!-- w&#45;ill&#45;dim -->
<g id="node10" class="node">
<title>w&#45;ill&#45;dim</title>
<polygon fill="#ffffff" stroke="black" points="2924.25,-545.75 2628.75,-545.75 2628.75,-433 2924.25,-433 2924.25,-545.75"/>
<polygon fill="none" stroke="black" points="2628.75,-522 2628.75,-545.75 2924.25,-545.75 2924.25,-522 2628.75,-522"/>
<text xml:space="preserve" text-anchor="start" x="2751.38" y="-529" font-family="arial" font-size="14.00">w&#45;ill&#45;dim</text>
<polygon fill="none" stroke="black" points="2628.75,-498.25 2628.75,-522 2754.38,-522 2754.38,-498.25 2628.75,-498.25"/>
<text xml:space="preserve" text-anchor="start" x="2684.44" y="-505.25" font-family="arial" font-size="14.00">1x</text>
<polygon fill="none" stroke="black" points="2754.38,-498.25 2754.38,-522 2924.25,-522 2924.25,-498.25 2754.38,-498.25"/>
<text xml:space="preserve" text-anchor="start" x="2810.06" y="-505.25" font-family="arial" font-size="14.00">0.75 mm²</text>
<text xml:space="preserve" text-anchor="start" x="2670.88" y="-483.5" font-family="arial" font-size="14.00"> </text>
<text xml:space="preserve" text-anchor="start" x="2630.75" y="-463.75" font-family="arial" font-size="14.00">sw&#45;instr:1:dim</text>
<text xml:space="preserve" text-anchor="start" x="2718.75" y="-463.75" font-family="arial" font-size="14.00"> &#160;&#160;&#160;&#160;1:BK:ILL.DIM &#160;&#160;&#160;</text>
<text xml:space="preserve" text-anchor="start" x="2837.5" y="-463.75" font-family="arial" font-size="14.00">instr&#45;pwm:1:lo</text>
<polygon fill="#000000" stroke="none" points="2628.75,-456.75 2628.75,-458.75 2924.25,-458.75 2924.25,-456.75 2628.75,-456.75"/>
<polygon fill="#000000" stroke="none" points="2628.75,-454.75 2628.75,-456.75 2924.25,-456.75 2924.25,-454.75 2628.75,-454.75"/>
<polygon fill="#000000" stroke="none" points="2628.75,-452.75 2628.75,-454.75 2924.25,-454.75 2924.25,-452.75 2628.75,-452.75"/>
<text xml:space="preserve" text-anchor="start" x="2670.88" y="-438" font-family="arial" font-size="14.00"> </text>
</g>
<!-- sw&#45;instr&#45;&#45;w&#45;ill&#45;dim -->
<g id="edge1" class="edge">
<title>sw&#45;instr:e&#45;&#45;w&#45;ill&#45;dim:w</title>
<path fill="none" stroke="#000000" stroke-width="2" d="M2393.88,-341.38C2511.2,-343.32 2514.43,-455.69 2627.75,-453.75"/>
<path fill="none" stroke="#000000" stroke-width="2" d="M2393.88,-343.38C2509.2,-343.37 2512.43,-455.75 2627.75,-455.75"/>
<path fill="none" stroke="#000000" stroke-width="2" d="M2393.88,-345.37C2507.2,-343.43 2510.43,-455.81 2627.75,-457.75"/>
</g>
<!-- w&#45;ill&#45;brt -->
<g id="node11" class="node">
<title>w&#45;ill&#45;brt</title>
<polygon fill="#ffffff" stroke="black" points="2930.62,-408.75 2622.38,-408.75 2622.38,-296 2930.62,-296 2930.62,-408.75"/>
<polygon fill="none" stroke="black" points="2622.38,-385 2622.38,-408.75 2930.62,-408.75 2930.62,-385 2622.38,-385"/>
<text xml:space="preserve" text-anchor="start" x="2754.75" y="-392" font-family="arial" font-size="14.00">w&#45;ill&#45;brt</text>
<polygon fill="none" stroke="black" points="2622.38,-361.25 2622.38,-385 2754.38,-385 2754.38,-361.25 2622.38,-361.25"/>
<text xml:space="preserve" text-anchor="start" x="2681.25" y="-368.25" font-family="arial" font-size="14.00">1x</text>
<polygon fill="none" stroke="black" points="2754.38,-361.25 2754.38,-385 2930.62,-385 2930.62,-361.25 2754.38,-361.25"/>
<text xml:space="preserve" text-anchor="start" x="2813.25" y="-368.25" font-family="arial" font-size="14.00">0.75 mm²</text>
<text xml:space="preserve" text-anchor="start" x="2670.12" y="-346.5" font-family="arial" font-size="14.00"> </text>
<text xml:space="preserve" text-anchor="start" x="2624.38" y="-326.75" font-family="arial" font-size="14.00">sw&#45;instr:2:bright</text>
<text xml:space="preserve" text-anchor="start" x="2723.62" y="-326.75" font-family="arial" font-size="14.00"> &#160;&#160;&#160;&#160;1:BK:ILL.BRT &#160;&#160;&#160;</text>
<text xml:space="preserve" text-anchor="start" x="2843.88" y="-326.75" font-family="arial" font-size="14.00">instr&#45;pwm:2:hi</text>
<polygon fill="#000000" stroke="none" points="2622.38,-319.75 2622.38,-321.75 2930.62,-321.75 2930.62,-319.75 2622.38,-319.75"/>
<polygon fill="#000000" stroke="none" points="2622.38,-317.75 2622.38,-319.75 2930.62,-319.75 2930.62,-317.75 2622.38,-317.75"/>
<polygon fill="#000000" stroke="none" points="2622.38,-315.75 2622.38,-317.75 2930.62,-317.75 2930.62,-315.75 2622.38,-315.75"/>
<text xml:space="preserve" text-anchor="start" x="2670.12" y="-301" font-family="arial" font-size="14.00"> </text>
</g>
<!-- sw&#45;instr&#45;&#45;w&#45;ill&#45;brt -->
<g id="edge3" class="edge">
<title>sw&#45;instr:e&#45;&#45;w&#45;ill&#45;brt:w</title>
<path fill="none" stroke="#000000" stroke-width="2" d="M2393.88,-317.63C2494.92,-317.63 2520.19,-316.75 2621.38,-316.75"/>
<path fill="none" stroke="#000000" stroke-width="2" d="M2393.88,-319.62C2494.99,-319.62 2520.26,-318.75 2621.38,-318.75"/>
<path fill="none" stroke="#000000" stroke-width="2" d="M2393.88,-321.62C2495.06,-321.62 2520.33,-320.75 2621.38,-320.75"/>
</g>
<!-- w&#45;sw3&#45;jmp&#45;if -->
<g id="node14" class="node">
<title>w&#45;sw3&#45;jmp&#45;if</title>
<polygon fill="#ffffff" stroke="black" points="2935.5,-271.75 2617.5,-271.75 2617.5,-159 2935.5,-159 2935.5,-271.75"/>
<polygon fill="none" stroke="black" points="2617.5,-248 2617.5,-271.75 2935.5,-271.75 2935.5,-248 2617.5,-248"/>
<text xml:space="preserve" text-anchor="start" x="2738.25" y="-255" font-family="arial" font-size="14.00">w&#45;sw3&#45;jmp&#45;if</text>
<polygon fill="none" stroke="black" points="2617.5,-224.25 2617.5,-248 2754.38,-248 2754.38,-224.25 2617.5,-224.25"/>
<text xml:space="preserve" text-anchor="start" x="2678.81" y="-231.25" font-family="arial" font-size="14.00">1x</text>
<polygon fill="none" stroke="black" points="2754.38,-224.25 2754.38,-248 2935.5,-248 2935.5,-224.25 2754.38,-224.25"/>
<text xml:space="preserve" text-anchor="start" x="2815.69" y="-231.25" font-family="arial" font-size="14.00">0.75 mm²</text>
<text xml:space="preserve" text-anchor="start" x="2653.62" y="-209.5" font-family="arial" font-size="14.00"> </text>
<text xml:space="preserve" text-anchor="start" x="2619.5" y="-189.75" font-family="arial" font-size="14.00">sw&#45;instr:3:in</text>
<text xml:space="preserve" text-anchor="start" x="2695.5" y="-189.75" font-family="arial" font-size="14.00"> &#160;&#160;&#160;&#160;1:BK:SW3.+I.J2 &#160;&#160;&#160;</text>
<text xml:space="preserve" text-anchor="start" x="2830" y="-189.75" font-family="arial" font-size="14.00">sw&#45;heaterfan:1:in</text>
<polygon fill="#000000" stroke="none" points="2617.5,-182.75 2617.5,-184.75 2935.5,-184.75 2935.5,-182.75 2617.5,-182.75"/>
<polygon fill="#000000" stroke="none" points="2617.5,-180.75 2617.5,-182.75 2935.5,-182.75 2935.5,-180.75 2617.5,-180.75"/>
<polygon fill="#000000" stroke="none" points="2617.5,-178.75 2617.5,-180.75 2935.5,-180.75 2935.5,-178.75 2617.5,-178.75"/>
<text xml:space="preserve" text-anchor="start" x="2653.62" y="-164" font-family="arial" font-size="14.00"> </text>
</g>
<!-- sw&#45;instr&#45;&#45;w&#45;sw3&#45;jmp&#45;if -->
<g id="edge9" class="edge">
<title>sw&#45;instr:e&#45;&#45;w&#45;sw3&#45;jmp&#45;if:w</title>
<path fill="none" stroke="#000000" stroke-width="2" d="M2393.88,-293.88C2503.46,-295.87 2503.92,-181.74 2617.5,-179.75"/>
<path fill="none" stroke="#000000" stroke-width="2" d="M2393.88,-295.87C2505.46,-295.88 2505.92,-181.75 2617.5,-181.75"/>
<path fill="none" stroke="#000000" stroke-width="2" d="M2393.88,-297.87C2507.46,-295.88 2507.92,-181.76 2617.5,-183.75"/>
</g>
<!-- instr&#45;pwm -->
<g id="node2" class="node">
<title>instr&#45;pwm</title>
<polygon fill="#ffffff" stroke="black" points="3551.5,-463.12 3079.5,-463.12 3079.5,-363.62 3551.5,-363.62 3551.5,-463.12"/>
<polygon fill="#2a2118" stroke="none" points="3079.5,-363.62 3079.5,-463.12 3551.5,-463.12 3551.5,-363.62 3079.5,-363.62"/>
<polygon fill="none" stroke="black" points="3079.5,-439.38 3079.5,-463.12 3551.5,-463.12 3551.5,-439.38 3079.5,-439.38"/>
<text xml:space="preserve" text-anchor="start" x="3285.88" y="-446.38" font-family="arial" font-size="14.00">instr&#45;pwm</text>
<polygon fill="none" stroke="black" points="3079.5,-411.12 3079.5,-439.38 3513.5,-439.38 3513.5,-411.12 3079.5,-411.12"/>
<text xml:space="preserve" text-anchor="start" x="3083.5" y="-420.38" font-family="arial" font-size="14.00">Instrument&#45;light PWM dimmer module &#160;↗ Main loom (engine&#45;bay hub)</text>
<polygon fill="none" stroke="black" points="3513.5,-411.12 3513.5,-439.38 3551.5,-439.38 3551.5,-411.12 3513.5,-411.12"/>
<text xml:space="preserve" text-anchor="start" x="3517.5" y="-420.38" font-family="arial" font-size="14.00">2&#45;pin</text>
<polygon fill="none" stroke="black" points="3079.5,-387.38 3079.5,-411.12 3314,-411.12 3314,-387.38 3079.5,-387.38"/>
<text xml:space="preserve" text-anchor="start" x="3193" y="-394.38" font-family="arial" font-size="14.00">1</text>
<polygon fill="none" stroke="black" points="3314,-387.38 3314,-411.12 3551.5,-411.12 3551.5,-387.38 3314,-387.38"/>
<text xml:space="preserve" text-anchor="start" x="3427.5" y="-394.38" font-family="arial" font-size="14.00">lo</text>
<polygon fill="none" stroke="black" points="3079.5,-363.62 3079.5,-387.38 3314,-387.38 3314,-363.62 3079.5,-363.62"/>
<text xml:space="preserve" text-anchor="start" x="3193" y="-370.62" font-family="arial" font-size="14.00">2</text>
<polygon fill="none" stroke="black" points="3314,-363.62 3314,-387.38 3551.5,-387.38 3551.5,-363.62 3314,-363.62"/>
<text xml:space="preserve" text-anchor="start" x="3427.5" y="-370.62" font-family="arial" font-size="14.00">hi</text>
</g>
<!-- rtmr&#45;ign -->
<g id="node3" class="node">
<title>rtmr&#45;ign</title>
<polygon fill="#ffffff" stroke="black" points="470.5,-248.25 0,-248.25 0,-172.5 470.5,-172.5 470.5,-248.25"/>
<polygon fill="#2a2118" stroke="none" points="0,-172.5 0,-248.25 470.5,-248.25 470.5,-172.5 0,-172.5"/>
<polygon fill="none" stroke="black" points="0,-224.5 0,-248.25 470.5,-248.25 470.5,-224.5 0,-224.5"/>
<text xml:space="preserve" text-anchor="start" x="211.62" y="-231.5" font-family="arial" font-size="14.00">rtmr&#45;ign</text>
<polygon fill="none" stroke="black" points="0,-196.25 0,-224.5 432.5,-224.5 432.5,-196.25 0,-196.25"/>
<text xml:space="preserve" text-anchor="start" x="4" y="-205.5" font-family="arial" font-size="14.00">Cabin IGNITION bus (RTMR, bussed) &#160;↗ Main loom (engine&#45;bay hub)</text>
<polygon fill="none" stroke="black" points="432.5,-196.25 432.5,-224.5 470.5,-224.5 470.5,-196.25 432.5,-196.25"/>
<text xml:space="preserve" text-anchor="start" x="436.5" y="-205.5" font-family="arial" font-size="14.00">1&#45;pin</text>
<polygon fill="none" stroke="black" points="0,-172.5 0,-196.25 250.62,-196.25 250.62,-172.5 0,-172.5"/>
<text xml:space="preserve" text-anchor="start" x="106.19" y="-179.5" font-family="arial" font-size="14.00">f&#45;ign&#45;9</text>
<polygon fill="none" stroke="black" points="250.62,-172.5 250.62,-196.25 470.5,-196.25 470.5,-172.5 250.62,-172.5"/>
<text xml:space="preserve" text-anchor="start" x="356.81" y="-179.5" font-family="arial" font-size="14.00">1</text>
</g>
<!-- w&#45;sw3&#45;feed -->
<g id="node12" class="node">
<title>w&#45;sw3&#45;feed</title>
<polygon fill="#ffffff" stroke="black" points="918.25,-273.75 614.5,-273.75 614.5,-161 918.25,-161 918.25,-273.75"/>
<polygon fill="none" stroke="black" points="614.5,-250 614.5,-273.75 918.25,-273.75 918.25,-250 614.5,-250"/>
<text xml:space="preserve" text-anchor="start" x="731.88" y="-257" font-family="arial" font-size="14.00">w&#45;sw3&#45;feed</text>
<polygon fill="none" stroke="black" points="614.5,-226.25 614.5,-250 744.25,-250 744.25,-226.25 614.5,-226.25"/>
<text xml:space="preserve" text-anchor="start" x="672.25" y="-233.25" font-family="arial" font-size="14.00">1x</text>
<polygon fill="none" stroke="black" points="744.25,-226.25 744.25,-250 918.25,-250 918.25,-226.25 744.25,-226.25"/>
<text xml:space="preserve" text-anchor="start" x="802" y="-233.25" font-family="arial" font-size="14.00">0.75 mm²</text>
<text xml:space="preserve" text-anchor="start" x="664.88" y="-211.5" font-family="arial" font-size="14.00"> </text>
<text xml:space="preserve" text-anchor="start" x="616.5" y="-191.75" font-family="arial" font-size="14.00">rtmr&#45;ign:1:f&#45;ign&#45;9</text>
<text xml:space="preserve" text-anchor="start" x="721" y="-191.75" font-family="arial" font-size="14.00"> &#160;&#160;&#160;&#160;1:BK:SW3.+I &#160;&#160;&#160;</text>
<text xml:space="preserve" text-anchor="start" x="837.5" y="-191.75" font-family="arial" font-size="14.00">sw&#45;wiper:1:in</text>
<polygon fill="#000000" stroke="none" points="614.5,-184.75 614.5,-186.75 918.25,-186.75 918.25,-184.75 614.5,-184.75"/>
<polygon fill="#000000" stroke="none" points="614.5,-182.75 614.5,-184.75 918.25,-184.75 918.25,-182.75 614.5,-182.75"/>
<polygon fill="#000000" stroke="none" points="614.5,-180.75 614.5,-182.75 918.25,-182.75 918.25,-180.75 614.5,-180.75"/>
<text xml:space="preserve" text-anchor="start" x="664.88" y="-166" font-family="arial" font-size="14.00"> </text>
</g>
<!-- rtmr&#45;ign&#45;&#45;w&#45;sw3&#45;feed -->
<g id="edge5" class="edge">
<title>rtmr&#45;ign:e&#45;&#45;w&#45;sw3&#45;feed:w</title>
<path fill="none" stroke="#000000" stroke-width="2" d="M470.5,-182.38C534.42,-182.38 550.42,-181.75 614.5,-181.75"/>
<path fill="none" stroke="#000000" stroke-width="2" d="M470.5,-184.38C534.5,-184.38 550.5,-183.75 614.5,-183.75"/>
<path fill="none" stroke="#000000" stroke-width="2" d="M470.5,-186.37C534.58,-186.37 550.58,-185.75 614.5,-185.75"/>
</g>
<!-- sw&#45;wiper -->
<g id="node4" class="node">
<title>sw&#45;wiper</title>
<polygon fill="#ffffff" stroke="black" points="1430,-243.75 1062.25,-243.75 1062.25,-125 1430,-125 1430,-243.75"/>
<polygon fill="none" stroke="black" points="1062.25,-220 1062.25,-243.75 1430,-243.75 1430,-220 1062.25,-220"/>
<text xml:space="preserve" text-anchor="start" x="1219.5" y="-227" font-family="arial" font-size="14.00">sw&#45;wiper</text>
<polygon fill="none" stroke="black" points="1062.25,-196.25 1062.25,-220 1392,-220 1392,-196.25 1062.25,-196.25"/>
<text xml:space="preserve" text-anchor="start" x="1066.25" y="-203.25" font-family="arial" font-size="14.00">Wiper switch (3&#45;position) — DEDICATED, low&#45;current</text>
<polygon fill="none" stroke="black" points="1392,-196.25 1392,-220 1430,-220 1430,-196.25 1392,-196.25"/>
<text xml:space="preserve" text-anchor="start" x="1396" y="-203.25" font-family="arial" font-size="14.00">3&#45;pin</text>
<polygon fill="none" stroke="black" points="1062.25,-172.5 1062.25,-196.25 1178.83,-196.25 1178.83,-172.5 1062.25,-172.5"/>
<text xml:space="preserve" text-anchor="start" x="1116.79" y="-179.5" font-family="arial" font-size="14.00">1</text>
<polygon fill="none" stroke="black" points="1178.83,-172.5 1178.83,-196.25 1313.42,-196.25 1313.42,-172.5 1178.83,-172.5"/>
<text xml:space="preserve" text-anchor="start" x="1240.88" y="-179.5" font-family="arial" font-size="14.00">in</text>
<polygon fill="none" stroke="black" points="1313.42,-172.5 1313.42,-196.25 1430,-196.25 1430,-172.5 1313.42,-172.5"/>
<text xml:space="preserve" text-anchor="start" x="1367.96" y="-179.5" font-family="arial" font-size="14.00">1</text>
<polygon fill="none" stroke="black" points="1062.25,-148.75 1062.25,-172.5 1178.83,-172.5 1178.83,-148.75 1062.25,-148.75"/>
<text xml:space="preserve" text-anchor="start" x="1116.79" y="-155.75" font-family="arial" font-size="14.00">2</text>
<polygon fill="none" stroke="black" points="1178.83,-148.75 1178.83,-172.5 1313.42,-172.5 1313.42,-148.75 1178.83,-148.75"/>
<text xml:space="preserve" text-anchor="start" x="1236" y="-155.75" font-family="arial" font-size="14.00">low</text>
<polygon fill="none" stroke="black" points="1313.42,-148.75 1313.42,-172.5 1430,-172.5 1430,-148.75 1313.42,-148.75"/>
<text xml:space="preserve" text-anchor="start" x="1367.96" y="-155.75" font-family="arial" font-size="14.00">2</text>
<polygon fill="none" stroke="black" points="1062.25,-125 1062.25,-148.75 1178.83,-148.75 1178.83,-125 1062.25,-125"/>
<text xml:space="preserve" text-anchor="start" x="1116.79" y="-132" font-family="arial" font-size="14.00">3</text>
<polygon fill="none" stroke="black" points="1178.83,-125 1178.83,-148.75 1313.42,-148.75 1313.42,-125 1178.83,-125"/>
<text xml:space="preserve" text-anchor="start" x="1233.38" y="-132" font-family="arial" font-size="14.00">high</text>
<polygon fill="none" stroke="black" points="1313.42,-125 1313.42,-148.75 1430,-148.75 1430,-125 1313.42,-125"/>
<text xml:space="preserve" text-anchor="start" x="1367.96" y="-132" font-family="arial" font-size="14.00">3</text>
</g>
<!-- w&#45;sw3&#45;jmp&#45;wi -->
<g id="node13" class="node">
<title>w&#45;sw3&#45;jmp&#45;wi</title>
<polygon fill="#ffffff" stroke="black" points="1891.62,-386.75 1598.38,-386.75 1598.38,-274 1891.62,-274 1891.62,-386.75"/>
<polygon fill="none" stroke="black" points="1598.38,-363 1598.38,-386.75 1891.62,-386.75 1891.62,-363 1598.38,-363"/>
<text xml:space="preserve" text-anchor="start" x="1703.75" y="-370" font-family="arial" font-size="14.00">w&#45;sw3&#45;jmp&#45;wi</text>
<polygon fill="none" stroke="black" points="1598.38,-339.25 1598.38,-363 1722.88,-363 1722.88,-339.25 1598.38,-339.25"/>
<text xml:space="preserve" text-anchor="start" x="1653.5" y="-346.25" font-family="arial" font-size="14.00">1x</text>
<polygon fill="none" stroke="black" points="1722.88,-339.25 1722.88,-363 1891.62,-363 1891.62,-339.25 1722.88,-339.25"/>
<text xml:space="preserve" text-anchor="start" x="1778" y="-346.25" font-family="arial" font-size="14.00">0.75 mm²</text>
<text xml:space="preserve" text-anchor="start" x="1637.88" y="-324.5" font-family="arial" font-size="14.00"> </text>
<text xml:space="preserve" text-anchor="start" x="1600.38" y="-304.75" font-family="arial" font-size="14.00">sw&#45;wiper:1:in</text>
<text xml:space="preserve" text-anchor="start" x="1683.12" y="-304.75" font-family="arial" font-size="14.00"> &#160;&#160;&#160;&#160;1:BK:SW3.+I.J1 &#160;&#160;&#160;</text>
<text xml:space="preserve" text-anchor="start" x="1817.62" y="-304.75" font-family="arial" font-size="14.00">sw&#45;instr:3:in</text>
<polygon fill="#000000" stroke="none" points="1598.38,-297.75 1598.38,-299.75 1891.62,-299.75 1891.62,-297.75 1598.38,-297.75"/>
<polygon fill="#000000" stroke="none" points="1598.38,-295.75 1598.38,-297.75 1891.62,-297.75 1891.62,-295.75 1598.38,-295.75"/>
<polygon fill="#000000" stroke="none" points="1598.38,-293.75 1598.38,-295.75 1891.62,-295.75 1891.62,-293.75 1598.38,-293.75"/>
<text xml:space="preserve" text-anchor="start" x="1637.88" y="-279" font-family="arial" font-size="14.00"> </text>
</g>
<!-- sw&#45;wiper&#45;&#45;w&#45;sw3&#45;jmp&#45;wi -->
<g id="edge7" class="edge">
<title>sw&#45;wiper:e&#45;&#45;w&#45;sw3&#45;jmp&#45;wi:w</title>
<path fill="none" stroke="#000000" stroke-width="2" d="M1430,-182.38C1521.59,-184.58 1509.76,-296.96 1597.38,-294.75"/>
<path fill="none" stroke="#000000" stroke-width="2" d="M1430,-184.38C1519.6,-184.37 1507.78,-296.75 1597.38,-296.75"/>
<path fill="none" stroke="#000000" stroke-width="2" d="M1430,-186.37C1517.61,-184.17 1505.79,-296.54 1597.38,-298.75"/>
</g>
<!-- w&#45;wlow&#45;trg -->
<g id="node15" class="node">
<title>w&#45;wlow&#45;trg</title>
<polygon fill="#ffffff" stroke="black" points="1913.38,-249.75 1576.62,-249.75 1576.62,-137 1913.38,-137 1913.38,-249.75"/>
<polygon fill="none" stroke="black" points="1576.62,-226 1576.62,-249.75 1913.38,-249.75 1913.38,-226 1576.62,-226"/>
<text xml:space="preserve" text-anchor="start" x="1712.75" y="-233" font-family="arial" font-size="14.00">w&#45;wlow&#45;trg</text>
<polygon fill="none" stroke="black" points="1576.62,-202.25 1576.62,-226 1722.88,-226 1722.88,-202.25 1576.62,-202.25"/>
<text xml:space="preserve" text-anchor="start" x="1642.62" y="-209.25" font-family="arial" font-size="14.00">1x</text>
<polygon fill="none" stroke="black" points="1722.88,-202.25 1722.88,-226 1913.38,-226 1913.38,-202.25 1722.88,-202.25"/>
<text xml:space="preserve" text-anchor="start" x="1788.88" y="-209.25" font-family="arial" font-size="14.00">0.75 mm²</text>
<text xml:space="preserve" text-anchor="start" x="1621" y="-187.5" font-family="arial" font-size="14.00"> </text>
<text xml:space="preserve" text-anchor="start" x="1578.62" y="-167.75" font-family="arial" font-size="14.00">sw&#45;wiper:2:low</text>
<text xml:space="preserve" text-anchor="start" x="1671.12" y="-167.75" font-family="arial" font-size="14.00"> &#160;&#160;&#160;&#160;1:BK:WIPE.LO.TRG &#160;&#160;&#160;</text>
<text xml:space="preserve" text-anchor="start" x="1832.62" y="-167.75" font-family="arial" font-size="14.00">rly&#45;wlow:1:86</text>
<polygon fill="#000000" stroke="none" points="1576.62,-160.75 1576.62,-162.75 1913.38,-162.75 1913.38,-160.75 1576.62,-160.75"/>
<polygon fill="#000000" stroke="none" points="1576.62,-158.75 1576.62,-160.75 1913.38,-160.75 1913.38,-158.75 1576.62,-158.75"/>
<polygon fill="#000000" stroke="none" points="1576.62,-156.75 1576.62,-158.75 1913.38,-158.75 1913.38,-156.75 1576.62,-156.75"/>
<text xml:space="preserve" text-anchor="start" x="1621" y="-142" font-family="arial" font-size="14.00"> </text>
</g>
<!-- sw&#45;wiper&#45;&#45;w&#45;wlow&#45;trg -->
<g id="edge11" class="edge">
<title>sw&#45;wiper:e&#45;&#45;w&#45;wlow&#45;trg:w</title>
<path fill="none" stroke="#000000" stroke-width="2" d="M1430,-158.63C1494.62,-158.63 1510.79,-157.75 1575.62,-157.75"/>
<path fill="none" stroke="#000000" stroke-width="2" d="M1430,-160.63C1494.72,-160.63 1510.9,-159.75 1575.62,-159.75"/>
<path fill="none" stroke="#000000" stroke-width="2" d="M1430,-162.62C1494.83,-162.62 1511.01,-161.75 1575.62,-161.75"/>
</g>
<!-- w&#45;whigh&#45;trg -->
<g id="node16" class="node">
<title>w&#45;whigh&#45;trg</title>
<polygon fill="#ffffff" stroke="black" points="1916,-112.75 1574,-112.75 1574,0 1916,0 1916,-112.75"/>
<polygon fill="none" stroke="black" points="1574,-89 1574,-112.75 1916,-112.75 1916,-89 1574,-89"/>
<text xml:space="preserve" text-anchor="start" x="1710.12" y="-96" font-family="arial" font-size="14.00">w&#45;whigh&#45;trg</text>
<polygon fill="none" stroke="black" points="1574,-65.25 1574,-89 1722.88,-89 1722.88,-65.25 1574,-65.25"/>
<text xml:space="preserve" text-anchor="start" x="1641.31" y="-72.25" font-family="arial" font-size="14.00">1x</text>
<polygon fill="none" stroke="black" points="1722.88,-65.25 1722.88,-89 1916,-89 1916,-65.25 1722.88,-65.25"/>
<text xml:space="preserve" text-anchor="start" x="1790.19" y="-72.25" font-family="arial" font-size="14.00">0.75 mm²</text>
<text xml:space="preserve" text-anchor="start" x="1621" y="-50.5" font-family="arial" font-size="14.00"> </text>
<text xml:space="preserve" text-anchor="start" x="1576" y="-30.75" font-family="arial" font-size="14.00">sw&#45;wiper:3:high</text>
<text xml:space="preserve" text-anchor="start" x="1673.75" y="-30.75" font-family="arial" font-size="14.00"> &#160;&#160;&#160;&#160;1:BK:WIPE.HI.TRG &#160;&#160;&#160;</text>
<text xml:space="preserve" text-anchor="start" x="1830" y="-30.75" font-family="arial" font-size="14.00">rly&#45;whigh:1:86</text>
<polygon fill="#000000" stroke="none" points="1574,-23.75 1574,-25.75 1916,-25.75 1916,-23.75 1574,-23.75"/>
<polygon fill="#000000" stroke="none" points="1574,-21.75 1574,-23.75 1916,-23.75 1916,-21.75 1574,-21.75"/>
<polygon fill="#000000" stroke="none" points="1574,-19.75 1574,-21.75 1916,-21.75 1916,-19.75 1574,-19.75"/>
<text xml:space="preserve" text-anchor="start" x="1621" y="-5" font-family="arial" font-size="14.00"> </text>
</g>
<!-- sw&#45;wiper&#45;&#45;w&#45;whigh&#45;trg -->
<g id="edge13" class="edge">
<title>sw&#45;wiper:e&#45;&#45;w&#45;whigh&#45;trg:w</title>
<path fill="none" stroke="#000000" stroke-width="2" d="M1430,-134.88C1509.69,-137.21 1490.37,-23.08 1574,-20.75"/>
<path fill="none" stroke="#000000" stroke-width="2" d="M1430,-136.88C1511.66,-136.87 1492.34,-22.75 1574,-22.75"/>
<path fill="none" stroke="#000000" stroke-width="2" d="M1430,-138.87C1513.63,-136.54 1494.31,-22.42 1574,-24.75"/>
</g>
<!-- sw&#45;heaterfan -->
<g id="node5" class="node">
<title>sw&#45;heaterfan</title>
<polygon fill="#ffffff" stroke="black" points="3513.25,-241.75 3117.75,-241.75 3117.75,-123 3513.25,-123 3513.25,-241.75"/>
<polygon fill="none" stroke="black" points="3117.75,-218 3117.75,-241.75 3513.25,-241.75 3513.25,-218 3117.75,-218"/>
<text xml:space="preserve" text-anchor="start" x="3276.5" y="-225" font-family="arial" font-size="14.00">sw&#45;heaterfan</text>
<polygon fill="none" stroke="black" points="3117.75,-194.25 3117.75,-218 3475.25,-218 3475.25,-194.25 3117.75,-194.25"/>
<text xml:space="preserve" text-anchor="start" x="3121.75" y="-201.25" font-family="arial" font-size="14.00">Heater&#45;fan switch (3&#45;position) — DEDICATED, low&#45;current</text>
<polygon fill="none" stroke="black" points="3475.25,-194.25 3475.25,-218 3513.25,-218 3513.25,-194.25 3475.25,-194.25"/>
<text xml:space="preserve" text-anchor="start" x="3479.25" y="-201.25" font-family="arial" font-size="14.00">3&#45;pin</text>
<polygon fill="none" stroke="black" points="3117.75,-170.5 3117.75,-194.25 3243.58,-194.25 3243.58,-170.5 3117.75,-170.5"/>
<text xml:space="preserve" text-anchor="start" x="3176.92" y="-177.5" font-family="arial" font-size="14.00">1</text>
<polygon fill="none" stroke="black" points="3243.58,-170.5 3243.58,-194.25 3387.42,-194.25 3387.42,-170.5 3243.58,-170.5"/>
<text xml:space="preserve" text-anchor="start" x="3310.25" y="-177.5" font-family="arial" font-size="14.00">in</text>
<polygon fill="none" stroke="black" points="3387.42,-170.5 3387.42,-194.25 3513.25,-194.25 3513.25,-170.5 3387.42,-170.5"/>
<text xml:space="preserve" text-anchor="start" x="3446.58" y="-177.5" font-family="arial" font-size="14.00">1</text>
<polygon fill="none" stroke="black" points="3117.75,-146.75 3117.75,-170.5 3243.58,-170.5 3243.58,-146.75 3117.75,-146.75"/>
<text xml:space="preserve" text-anchor="start" x="3176.92" y="-153.75" font-family="arial" font-size="14.00">2</text>
<polygon fill="none" stroke="black" points="3243.58,-146.75 3243.58,-170.5 3387.42,-170.5 3387.42,-146.75 3243.58,-146.75"/>
<text xml:space="preserve" text-anchor="start" x="3302.75" y="-153.75" font-family="arial" font-size="14.00">high</text>
<polygon fill="none" stroke="black" points="3387.42,-146.75 3387.42,-170.5 3513.25,-170.5 3513.25,-146.75 3387.42,-146.75"/>
<text xml:space="preserve" text-anchor="start" x="3446.58" y="-153.75" font-family="arial" font-size="14.00">2</text>
<polygon fill="none" stroke="black" points="3117.75,-123 3117.75,-146.75 3243.58,-146.75 3243.58,-123 3117.75,-123"/>
<text xml:space="preserve" text-anchor="start" x="3176.92" y="-130" font-family="arial" font-size="14.00">3</text>
<polygon fill="none" stroke="black" points="3243.58,-123 3243.58,-146.75 3387.42,-146.75 3387.42,-123 3243.58,-123"/>
<text xml:space="preserve" text-anchor="start" x="3305.38" y="-130" font-family="arial" font-size="14.00">low</text>
<polygon fill="none" stroke="black" points="3387.42,-123 3387.42,-146.75 3513.25,-146.75 3513.25,-123 3387.42,-123"/>
<text xml:space="preserve" text-anchor="start" x="3446.58" y="-130" font-family="arial" font-size="14.00">3</text>
</g>
<!-- w&#45;fan&#45;trg -->
<g id="node17" class="node">
<title>w&#45;fan&#45;trg</title>
<polygon fill="#ffffff" stroke="black" points="4044.25,-305.75 3720.25,-305.75 3720.25,-193 4044.25,-193 4044.25,-305.75"/>
<polygon fill="none" stroke="black" points="3720.25,-282 3720.25,-305.75 4044.25,-305.75 4044.25,-282 3720.25,-282"/>
<text xml:space="preserve" text-anchor="start" x="3855.62" y="-289" font-family="arial" font-size="14.00">w&#45;fan&#45;trg</text>
<polygon fill="none" stroke="black" points="3720.25,-258.25 3720.25,-282 3860.12,-282 3860.12,-258.25 3720.25,-258.25"/>
<text xml:space="preserve" text-anchor="start" x="3783.06" y="-265.25" font-family="arial" font-size="14.00">1x</text>
<polygon fill="none" stroke="black" points="3860.12,-258.25 3860.12,-282 4044.25,-282 4044.25,-258.25 3860.12,-258.25"/>
<text xml:space="preserve" text-anchor="start" x="3922.94" y="-265.25" font-family="arial" font-size="14.00">0.75 mm²</text>
<text xml:space="preserve" text-anchor="start" x="3779.62" y="-243.5" font-family="arial" font-size="14.00"> </text>
<text xml:space="preserve" text-anchor="start" x="3722.25" y="-223.75" font-family="arial" font-size="14.00">sw&#45;heaterfan:2:high</text>
<text xml:space="preserve" text-anchor="start" x="3844.75" y="-223.75" font-family="arial" font-size="14.00"> &#160;&#160;&#160;&#160;1:BK:FAN.TRG &#160;&#160;&#160;</text>
<text xml:space="preserve" text-anchor="start" x="3974.75" y="-223.75" font-family="arial" font-size="14.00">rly&#45;fan:1:86</text>
<polygon fill="#000000" stroke="none" points="3720.25,-216.75 3720.25,-218.75 4044.25,-218.75 4044.25,-216.75 3720.25,-216.75"/>
<polygon fill="#000000" stroke="none" points="3720.25,-214.75 3720.25,-216.75 4044.25,-216.75 4044.25,-214.75 3720.25,-214.75"/>
<polygon fill="#000000" stroke="none" points="3720.25,-212.75 3720.25,-214.75 4044.25,-214.75 4044.25,-212.75 3720.25,-212.75"/>
<text xml:space="preserve" text-anchor="start" x="3779.62" y="-198" font-family="arial" font-size="14.00"> </text>
</g>
<!-- sw&#45;heaterfan&#45;&#45;w&#45;fan&#45;trg -->
<g id="edge15" class="edge">
<title>sw&#45;heaterfan:e&#45;&#45;w&#45;fan&#45;trg:w</title>
<path fill="none" stroke="#000000" stroke-width="2" d="M3514.25,-156.63C3610.76,-158.09 3626.59,-215.22 3719.25,-213.75"/>
<path fill="none" stroke="#000000" stroke-width="2" d="M3514.25,-158.62C3608.83,-158.62 3624.67,-215.75 3719.25,-215.75"/>
<path fill="none" stroke="#000000" stroke-width="2" d="M3514.25,-160.62C3606.91,-159.16 3622.74,-216.28 3719.25,-217.75"/>
</g>
<!-- w&#45;fan&#45;lo -->
<g id="node18" class="node">
<title>w&#45;fan&#45;lo</title>
<polygon fill="#ffffff" stroke="black" points="4069,-168.75 3695.5,-168.75 3695.5,-56 4069,-56 4069,-168.75"/>
<polygon fill="none" stroke="black" points="3695.5,-145 3695.5,-168.75 4069,-168.75 4069,-145 3695.5,-145"/>
<text xml:space="preserve" text-anchor="start" x="3858.25" y="-152" font-family="arial" font-size="14.00">w&#45;fan&#45;lo</text>
<polygon fill="none" stroke="black" points="3695.5,-121.25 3695.5,-145 3860.12,-145 3860.12,-121.25 3695.5,-121.25"/>
<text xml:space="preserve" text-anchor="start" x="3770.69" y="-128.25" font-family="arial" font-size="14.00">1x</text>
<polygon fill="none" stroke="black" points="3860.12,-121.25 3860.12,-145 4069,-145 4069,-121.25 3860.12,-121.25"/>
<text xml:space="preserve" text-anchor="start" x="3935.31" y="-128.25" font-family="arial" font-size="14.00">0.75 mm²</text>
<text xml:space="preserve" text-anchor="start" x="3752.25" y="-106.5" font-family="arial" font-size="14.00"> </text>
<text xml:space="preserve" text-anchor="start" x="3697.5" y="-86.75" font-family="arial" font-size="14.00">sw&#45;heaterfan:3:low</text>
<text xml:space="preserve" text-anchor="start" x="3814.75" y="-86.75" font-family="arial" font-size="14.00"> &#160;&#160;&#160;&#160;1:BK:FAN.LOW.EN &#160;&#160;&#160;</text>
<text xml:space="preserve" text-anchor="start" x="3969.5" y="-86.75" font-family="arial" font-size="14.00">fan&#45;resistor:1:en</text>
<polygon fill="#000000" stroke="none" points="3695.5,-79.75 3695.5,-81.75 4069,-81.75 4069,-79.75 3695.5,-79.75"/>
<polygon fill="#000000" stroke="none" points="3695.5,-77.75 3695.5,-79.75 4069,-79.75 4069,-77.75 3695.5,-77.75"/>
<polygon fill="#000000" stroke="none" points="3695.5,-75.75 3695.5,-77.75 4069,-77.75 4069,-75.75 3695.5,-75.75"/>
<text xml:space="preserve" text-anchor="start" x="3752.25" y="-61" font-family="arial" font-size="14.00"> </text>
</g>
<!-- sw&#45;heaterfan&#45;&#45;w&#45;fan&#45;lo -->
<g id="edge17" class="edge">
<title>sw&#45;heaterfan:e&#45;&#45;w&#45;fan&#45;lo:w</title>
<path fill="none" stroke="#000000" stroke-width="2" d="M3514.25,-132.88C3596.63,-134.44 3609.22,-78.31 3695.5,-76.75"/>
<path fill="none" stroke="#000000" stroke-width="2" d="M3514.25,-134.87C3598.58,-134.88 3611.17,-78.75 3695.5,-78.75"/>
<path fill="none" stroke="#000000" stroke-width="2" d="M3514.25,-136.87C3600.53,-135.31 3613.12,-79.19 3695.5,-80.75"/>
</g>
<!-- rly&#45;wlow -->
<g id="node6" class="node">
<title>rly&#45;wlow</title>
<polygon fill="#ffffff" stroke="black" points="2473.5,-224.25 2060,-224.25 2060,-148.5 2473.5,-148.5 2473.5,-224.25"/>
<polygon fill="#2a2118" stroke="none" points="2060,-148.5 2060,-224.25 2473.5,-224.25 2473.5,-148.5 2060,-148.5"/>
<polygon fill="none" stroke="black" points="2060,-200.5 2060,-224.25 2473.5,-224.25 2473.5,-200.5 2060,-200.5"/>
<text xml:space="preserve" text-anchor="start" x="2242.38" y="-207.5" font-family="arial" font-size="14.00">rly&#45;wlow</text>
<polygon fill="none" stroke="black" points="2060,-172.25 2060,-200.5 2435.5,-200.5 2435.5,-172.25 2060,-172.25"/>
<text xml:space="preserve" text-anchor="start" x="2064" y="-181.5" font-family="arial" font-size="14.00">Wiper LOW + self&#45;park relay &#160;↗ Main loom (engine&#45;bay hub)</text>
<polygon fill="none" stroke="black" points="2435.5,-172.25 2435.5,-200.5 2473.5,-200.5 2473.5,-172.25 2435.5,-172.25"/>
<text xml:space="preserve" text-anchor="start" x="2439.5" y="-181.5" font-family="arial" font-size="14.00">1&#45;pin</text>
<polygon fill="none" stroke="black" points="2060,-148.5 2060,-172.25 2263,-172.25 2263,-148.5 2060,-148.5"/>
<text xml:space="preserve" text-anchor="start" x="2157.75" y="-155.5" font-family="arial" font-size="14.00">1</text>
<polygon fill="none" stroke="black" points="2263,-148.5 2263,-172.25 2473.5,-172.25 2473.5,-148.5 2263,-148.5"/>
<text xml:space="preserve" text-anchor="start" x="2360.75" y="-155.5" font-family="arial" font-size="14.00">86</text>
</g>
<!-- rly&#45;whigh -->
<g id="node7" class="node">
<title>rly&#45;whigh</title>
<polygon fill="#ffffff" stroke="black" points="2440.88,-87.25 2092.62,-87.25 2092.62,-11.5 2440.88,-11.5 2440.88,-87.25"/>
<polygon fill="#2a2118" stroke="none" points="2092.62,-11.5 2092.62,-87.25 2440.88,-87.25 2440.88,-11.5 2092.62,-11.5"/>
<polygon fill="none" stroke="black" points="2092.62,-63.5 2092.62,-87.25 2440.88,-87.25 2440.88,-63.5 2092.62,-63.5"/>
<text xml:space="preserve" text-anchor="start" x="2239.75" y="-70.5" font-family="arial" font-size="14.00">rly&#45;whigh</text>
<polygon fill="none" stroke="black" points="2092.62,-35.25 2092.62,-63.5 2402.88,-63.5 2402.88,-35.25 2092.62,-35.25"/>
<text xml:space="preserve" text-anchor="start" x="2096.62" y="-44.5" font-family="arial" font-size="14.00">Wiper HIGH relay &#160;↗ Main loom (engine&#45;bay hub)</text>
<polygon fill="none" stroke="black" points="2402.88,-35.25 2402.88,-63.5 2440.88,-63.5 2440.88,-35.25 2402.88,-35.25"/>
<text xml:space="preserve" text-anchor="start" x="2406.88" y="-44.5" font-family="arial" font-size="14.00">1&#45;pin</text>
<polygon fill="none" stroke="black" points="2092.62,-11.5 2092.62,-35.25 2263,-35.25 2263,-11.5 2092.62,-11.5"/>
<text xml:space="preserve" text-anchor="start" x="2174.06" y="-18.5" font-family="arial" font-size="14.00">1</text>
<polygon fill="none" stroke="black" points="2263,-11.5 2263,-35.25 2440.88,-35.25 2440.88,-11.5 2263,-11.5"/>
<text xml:space="preserve" text-anchor="start" x="2344.44" y="-18.5" font-family="arial" font-size="14.00">86</text>
</g>
<!-- rly&#45;fan -->
<g id="node8" class="node">
<title>rly&#45;fan</title>
<polygon fill="#ffffff" stroke="black" points="4693.25,-280.25 4308.25,-280.25 4308.25,-204.5 4693.25,-204.5 4693.25,-280.25"/>
<polygon fill="#2a2118" stroke="none" points="4308.25,-204.5 4308.25,-280.25 4693.25,-280.25 4693.25,-204.5 4308.25,-204.5"/>
<polygon fill="none" stroke="black" points="4308.25,-256.5 4308.25,-280.25 4693.25,-280.25 4693.25,-256.5 4308.25,-256.5"/>
<text xml:space="preserve" text-anchor="start" x="4482" y="-263.5" font-family="arial" font-size="14.00">rly&#45;fan</text>
<polygon fill="none" stroke="black" points="4308.25,-228.25 4308.25,-256.5 4655.25,-256.5 4655.25,-228.25 4308.25,-228.25"/>
<text xml:space="preserve" text-anchor="start" x="4312.25" y="-237.5" font-family="arial" font-size="14.00">Heater&#45;fan relay (HIGH) &#160;↗ Main loom (engine&#45;bay hub)</text>
<polygon fill="none" stroke="black" points="4655.25,-228.25 4655.25,-256.5 4693.25,-256.5 4693.25,-228.25 4655.25,-228.25"/>
<text xml:space="preserve" text-anchor="start" x="4659.25" y="-237.5" font-family="arial" font-size="14.00">1&#45;pin</text>
<polygon fill="none" stroke="black" points="4308.25,-204.5 4308.25,-228.25 4497,-228.25 4497,-204.5 4308.25,-204.5"/>
<text xml:space="preserve" text-anchor="start" x="4398.88" y="-211.5" font-family="arial" font-size="14.00">1</text>
<polygon fill="none" stroke="black" points="4497,-204.5 4497,-228.25 4693.25,-228.25 4693.25,-204.5 4497,-204.5"/>
<text xml:space="preserve" text-anchor="start" x="4587.62" y="-211.5" font-family="arial" font-size="14.00">86</text>
</g>
<!-- fan&#45;resistor -->
<g id="node9" class="node">
<title>fan&#45;resistor</title>
<polygon fill="#ffffff" stroke="black" points="4788.5,-143.25 4213,-143.25 4213,-67.5 4788.5,-67.5 4788.5,-143.25"/>
<polygon fill="#2a2118" stroke="none" points="4213,-67.5 4213,-143.25 4788.5,-143.25 4788.5,-67.5 4213,-67.5"/>
<polygon fill="none" stroke="black" points="4213,-119.5 4213,-143.25 4788.5,-143.25 4788.5,-119.5 4213,-119.5"/>
<text xml:space="preserve" text-anchor="start" x="4467" y="-126.5" font-family="arial" font-size="14.00">fan&#45;resistor</text>
<polygon fill="none" stroke="black" points="4213,-91.25 4213,-119.5 4750.5,-119.5 4750.5,-91.25 4213,-91.25"/>
<text xml:space="preserve" text-anchor="start" x="4217" y="-100.5" font-family="arial" font-size="14.00">Heater&#45;fan PWM / resistor module (low speed, optional) &#160;↗ Main loom (engine&#45;bay hub)</text>
<polygon fill="none" stroke="black" points="4750.5,-91.25 4750.5,-119.5 4788.5,-119.5 4788.5,-91.25 4750.5,-91.25"/>
<text xml:space="preserve" text-anchor="start" x="4754.5" y="-100.5" font-family="arial" font-size="14.00">1&#45;pin</text>
<polygon fill="none" stroke="black" points="4213,-67.5 4213,-91.25 4497,-91.25 4497,-67.5 4213,-67.5"/>
<text xml:space="preserve" text-anchor="start" x="4351.25" y="-74.5" font-family="arial" font-size="14.00">1</text>
<polygon fill="none" stroke="black" points="4497,-67.5 4497,-91.25 4788.5,-91.25 4788.5,-67.5 4497,-67.5"/>
<text xml:space="preserve" text-anchor="start" x="4635.25" y="-74.5" font-family="arial" font-size="14.00">en</text>
</g>
<!-- w&#45;ill&#45;dim&#45;&#45;instr&#45;pwm -->
<g id="edge2" class="edge">
<title>w&#45;ill&#45;dim:e&#45;&#45;instr&#45;pwm:w</title>
<path fill="none" stroke="#000000" stroke-width="2" d="M2925.25,-453.75C2996.28,-455.46 3004.51,-398.96 3079.5,-397.25"/>
<path fill="none" stroke="#000000" stroke-width="2" d="M2925.25,-455.75C2998.26,-455.75 3006.49,-399.25 3079.5,-399.25"/>
<path fill="none" stroke="#000000" stroke-width="2" d="M2925.25,-457.75C3000.24,-456.04 3008.47,-399.54 3079.5,-401.25"/>
</g>
<!-- w&#45;ill&#45;brt&#45;&#45;instr&#45;pwm -->
<g id="edge4" class="edge">
<title>w&#45;ill&#45;brt:e&#45;&#45;instr&#45;pwm:w</title>
<path fill="none" stroke="#000000" stroke-width="2" d="M2931.62,-316.75C3004.01,-318.5 3011.09,-375.25 3079.5,-373.5"/>
<path fill="none" stroke="#000000" stroke-width="2" d="M2931.62,-318.75C3002.02,-318.75 3009.1,-375.5 3079.5,-375.5"/>
<path fill="none" stroke="#000000" stroke-width="2" d="M2931.62,-320.75C3000.04,-319 3007.12,-375.75 3079.5,-377.5"/>
</g>
<!-- w&#45;sw3&#45;feed&#45;&#45;sw&#45;wiper -->
<g id="edge6" class="edge">
<title>w&#45;sw3&#45;feed:e&#45;&#45;sw&#45;wiper:w</title>
<path fill="none" stroke="#000000" stroke-width="2" d="M918.25,-181.75C982.33,-181.75 998.33,-182.38 1062.25,-182.38"/>
<path fill="none" stroke="#000000" stroke-width="2" d="M918.25,-183.75C982.25,-183.75 998.25,-184.38 1062.25,-184.38"/>
<path fill="none" stroke="#000000" stroke-width="2" d="M918.25,-185.75C982.17,-185.75 998.17,-186.37 1062.25,-186.37"/>
</g>
<!-- w&#45;sw3&#45;jmp&#45;wi&#45;&#45;sw&#45;instr -->
<g id="edge8" class="edge">
<title>w&#45;sw3&#45;jmp&#45;wi:e&#45;&#45;sw&#45;instr:w</title>
<path fill="none" stroke="#000000" stroke-width="2" d="M1892.62,-294.75C2002.34,-294.75 2029.78,-293.88 2139.62,-293.88"/>
<path fill="none" stroke="#000000" stroke-width="2" d="M1892.62,-296.75C2002.4,-296.75 2029.85,-295.88 2139.62,-295.88"/>
<path fill="none" stroke="#000000" stroke-width="2" d="M1892.62,-298.75C2002.47,-298.75 2029.91,-297.87 2139.62,-297.87"/>
</g>
<!-- w&#45;sw3&#45;jmp&#45;if&#45;&#45;sw&#45;heaterfan -->
<g id="edge10" class="edge">
<title>w&#45;sw3&#45;jmp&#45;if:e&#45;&#45;sw&#45;heaterfan:w</title>
<path fill="none" stroke="#000000" stroke-width="2" d="M2935.5,-179.75C3016.12,-179.75 3036.26,-180.38 3116.75,-180.38"/>
<path fill="none" stroke="#000000" stroke-width="2" d="M2935.5,-181.75C3016.06,-181.75 3036.19,-182.37 3116.75,-182.37"/>
<path fill="none" stroke="#000000" stroke-width="2" d="M2935.5,-183.75C3015.99,-183.75 3036.13,-184.37 3116.75,-184.37"/>
</g>
<!-- w&#45;wlow&#45;trg&#45;&#45;rly&#45;wlow -->
<g id="edge12" class="edge">
<title>w&#45;wlow&#45;trg:e&#45;&#45;rly&#45;wlow:w</title>
<path fill="none" stroke="#000000" stroke-width="2" d="M1914.38,-157.75C1979.18,-157.75 1995.35,-158.38 2060,-158.38"/>
<path fill="none" stroke="#000000" stroke-width="2" d="M1914.38,-159.75C1979.1,-159.75 1995.28,-160.37 2060,-160.38"/>
<path fill="none" stroke="#000000" stroke-width="2" d="M1914.38,-161.75C1979.02,-161.75 1995.2,-162.37 2060,-162.37"/>
</g>
<!-- w&#45;whigh&#45;trg&#45;&#45;rly&#45;whigh -->
<g id="edge14" class="edge">
<title>w&#45;whigh&#45;trg:e&#45;&#45;rly&#45;whigh:w</title>
<path fill="none" stroke="#000000" stroke-width="2" d="M1916,-20.75C1994.12,-20.75 2013.63,-21.38 2091.62,-21.38"/>
<path fill="none" stroke="#000000" stroke-width="2" d="M1916,-22.75C1994.06,-22.75 2013.57,-23.37 2091.62,-23.38"/>
<path fill="none" stroke="#000000" stroke-width="2" d="M1916,-24.75C1993.99,-24.75 2013.5,-25.37 2091.62,-25.37"/>
</g>
<!-- w&#45;fan&#45;trg&#45;&#45;rly&#45;fan -->
<g id="edge16" class="edge">
<title>w&#45;fan&#45;trg:e&#45;&#45;rly&#45;fan:w</title>
<path fill="none" stroke="#000000" stroke-width="2" d="M4045.25,-213.75C4161.74,-213.75 4190.85,-214.38 4307.25,-214.38"/>
<path fill="none" stroke="#000000" stroke-width="2" d="M4045.25,-215.75C4161.69,-215.75 4190.81,-216.37 4307.25,-216.37"/>
<path fill="none" stroke="#000000" stroke-width="2" d="M4045.25,-217.75C4161.65,-217.75 4190.76,-218.37 4307.25,-218.37"/>
</g>
<!-- w&#45;fan&#45;lo&#45;&#45;fan&#45;resistor -->
<g id="edge18" class="edge">
<title>w&#45;fan&#45;lo:e&#45;&#45;fan&#45;resistor:w</title>
<path fill="none" stroke="#000000" stroke-width="2" d="M4069,-76.75C4133.08,-76.75 4149.08,-77.38 4213,-77.38"/>
<path fill="none" stroke="#000000" stroke-width="2" d="M4069,-78.75C4133,-78.75 4149,-79.37 4213,-79.37"/>
<path fill="none" stroke="#000000" stroke-width="2" d="M4069,-80.75C4132.92,-80.75 4148.92,-81.37 4213,-81.37"/>
</g>
</g>
</svg>
