<svg xmlns="http://www.w3.org/2000/svg" xmlns:xlink="http://www.w3.org/1999/xlink" xml:lang="en" height="324.09999999999997pt" width="521.384pt" viewBox="-50.584 -65.79999999999998 521.384 324.09999999999997"><path d="M 0.0,-21.599999999999998 L 0.0,223.20000000000002 L 43.199999999999996,223.20000000000002 L 43.199999999999996,-21.599999999999998 L 0.0,-21.599999999999998" style="stroke:black;fill:none;stroke-width:2.0;stroke-dasharray:-;stroke-linecap:round;stroke-linejoin:round;" /><text x="-3.6" y="88.80000000000001" dominant-baseline="central" fill="black" font-size="8" font-family="sans" text-anchor="end"><tspan x="-3.6" dy="8">BH4</tspan><tspan x="-3.6" dy="8">→ main loom</tspan></text><path d="M 178.20000000000002,57.6 L 178.20000000000002,-0.0 L 246.41997770431485,-0.0 L 246.41997770431485,57.6 L 178.20000000000002,57.6" style="stroke:black;fill:none;stroke-width:2;stroke-dasharray:-;stroke-linecap:round;stroke-linejoin:round;" /><path d="M 178.20000000000002,158.4 L 178.20000000000002,100.80000000000001 L 246.41997770431485,100.80000000000001 L 246.41997770431485,158.4 L 178.20000000000002,158.4" style="stroke:black;fill:none;stroke-width:2;stroke-dasharray:-;stroke-linecap:round;stroke-linejoin:round;" /><path d="M 187.2 10.8 a 4.5 4.5 -270 1 1 0.0 9.0" style="stroke:black;fill:none;stroke-width:2;stroke-dasharray:-;" /><path d="M 187.2 19.8 a 4.5 4.5 -270 1 1 0.0 9.0" style="stroke:black;fill:none;stroke-width:2;stroke-dasharray:-;" /><path d="M 187.2 28.8 a 4.5 4.5 -270 1 1 0.0 8.999999999999996" style="stroke:black;fill:none;stroke-width:2;stroke-dasharray:-;" /><path d="M 187.2 37.8 a 4.5 4.5 -270 1 1 0.0 9.0" style="stroke:black;fill:none;stroke-width:2;stroke-dasharray:-;" /><path d="M 187.2 111.6 a 4.5 4.5 -270 1 1 0.0 9.0" style="stroke:black;fill:none;stroke-width:2;stroke-dasharray:-;" /><path d="M 187.2 120.6 a 4.5 4.5 -270 1 1 0.0 9.0" style="stroke:black;fill:none;stroke-width:2;stroke-dasharray:-;" /><path d="M 187.2 129.6 a 4.5 4.5 -270 1 1 0.0 9.0" style="stroke:black;fill:none;stroke-width:2;stroke-dasharray:-;" /><path d="M 187.2 138.6 a 4.5 4.5 -270 1 1 0.0 9.0" style="stroke:black;fill:none;stroke-width:2;stroke-dasharray:-;" /><polygon points="278.8199777043149,204.2 278.99133011373084,204.19864057887784 279.16263938609404,204.1945626577384 279.3338623952113,204.18776726317645 279.5049560366058,204.1782561058963 279.67587723836823,204.16603158028096 279.8465829720001,204.1510967637893 280.01703026324583,204.13345541618153 280.18717620291136,204.11311197857256 280.35697795766634,204.09007157231406 280.5263927808271,204.06433999770505 280.6953780231177,204.03592373253184 280.86389114340733,204.0048299304372 281.031889719419,203.97106641911958 281.1993314584095,203.93464169836238 281.3661742078167,203.89556493789422 281.53237596587053,203.85384597508065 281.69789489216726,203.80949531244738 281.86268931820234,203.76252411503654 282.02671775786024,203.71294420759597 282.18993891785857,203.66076807160218 282.352311708143,203.6060088421184 282.5137952522321,203.5486803044878 282.6743488975071,203.48879689086314 282.83393222544646,203.42637367657355 282.99250506180067,203.36142637632943 283.15002748670634,203.29397134026632 283.3064598447353,203.22402554982875 283.46176275487795,203.1516066134955 283.61589712045725,203.0767327623464 283.7688241389709,202.99942284547316 283.92050531185987,202.91969632523387 284.07090245419994,202.83757327235364 284.2199777043149,202.7530743608719 284.36769353330766,202.66622086293773 284.5140127545083,202.57703464345474 284.65889853283534,202.48553815457672 284.8023143940689,202.39175443005553 284.9442242340328,202.2957070794422 285.0845923276838,202.19742028214358 285.223383338105,202.0969187813354 285.36056232540165,201.99422787773295 285.49609475549744,201.88937342322208 285.62994650882774,201.78238181435094 285.7620838889295,201.67327998568493 285.892473630924,201.56209540302595 286.0210829098908,201.44885605649813 286.1478793491319,201.33359045350133 286.27283102832166,201.21632761153472 286.39590649154314,201.09709705089168 286.5170747552066,200.97592878722824 286.63630531584965,200.8528533240068 286.75356815781623,200.727901644817 286.868833760813,200.60110520557592 286.98207310734085,200.47249592660904 287.0932576899998,200.3421061846146 287.20235951866584,200.2099688045128 287.30935112753696,200.0761170511825 287.4142055820479,199.9405846210868 287.5168964856503,199.8034056337901 287.6173979864585,199.6646146233689 287.71568478375707,199.52424652971789 287.8117321343704,199.38233668975397 287.90551585889165,199.23892082852043 287.9970123477696,199.0940350501934 288.08619856725267,198.94771582899278 288.1730520651868,198.79999999999995 288.25755097666854,198.65092474988504 288.3396740295488,198.50052760754497 288.41940054978807,198.348846434656 288.4967104666613,198.19591941614235 288.5715843178104,198.04178505056302 288.6440032541436,197.88648214042036 288.7139490445812,197.7300497823914 288.78140408064434,197.57252735748574 288.84635138088845,197.41395452113153 288.908774595178,197.25437119319218 288.96865800880266,197.09381754791718 289.0259865464333,196.93233400382812 289.0807457759171,196.76996121354364 289.13292191191084,196.60674005354534 289.18250181935144,196.4427116138874 289.22947301676226,196.27791718785238 289.2738236793955,196.11239826155565 289.3155426422091,195.9461965035018 289.35461940267726,195.77935375409461 289.3910441234345,195.61191201510405 289.4248076347521,195.44391343909243 289.4559014368467,195.2754003188028 289.4843177020199,195.10641507651218 289.51004927662893,194.93700025335144 289.53308968288746,194.76719849859649 289.5534331204964,194.5970525589309 289.5710744681042,194.42660526768515 289.5860092845959,194.2558995340533 289.5982338102112,194.0849783322909 289.6077449674913,193.91388469089642 289.6145403620533,193.7426616817791 289.61861828319275,193.5713524094159 289.6199777043149,193.39999999999998 289.6199777043149,-25.999999999999996 289.61861828319275,-26.17135240941592 289.6145403620533,-26.342661681779127 289.6077449674914,-26.51388469089641 289.59823381021124,-26.684978332290893 289.5860092845959,-26.85589953405331 289.5710744681042,-27.026605267685166 289.55343312049644,-27.197052558930913 289.53308968288746,-27.367198498596487 289.510049276629,-27.537000253351476 289.48431770201995,-27.706415076512172 289.4559014368467,-27.875400318802843 289.42480763475214,-28.043913439092428 289.3910441234345,-28.211912015104055 289.3546194026773,-28.379353754094634 289.3155426422091,-28.54619650350181 289.27382367939555,-28.712398261555652 289.22947301676226,-28.877917187852375 289.1825018193515,-29.042711613887437 289.1329219119109,-29.206740053545364 289.0807457759171,-29.369961213543657 289.02598654643333,-29.532334003828147 288.9686580088027,-29.693817547917217 288.9087745951781,-29.85437119319221 288.8463513808885,-30.013954521131534 288.7814040806444,-30.172527357485784 288.7139490445813,-30.330049782391423 288.6440032541437,-30.486482140420367 288.5715843178104,-30.641785050563048 288.4967104666613,-30.795919416142358 288.4194005497881,-30.948846434656026 288.3396740295488,-31.10052760754497 288.2575509766686,-31.250924749885055 288.1730520651868,-31.399999999999995 288.08619856725267,-31.547715828992782 287.99701234776967,-31.694035050193424 287.90551585889165,-31.83892082852045 287.81173213437046,-31.982336689753986 287.71568478375707,-32.12424652971792 287.6173979864585,-32.264614623368935 287.5168964856503,-32.40340563379011 287.4142055820479,-32.54058462108679 287.309351127537,-32.67611705118253 287.20235951866584,-32.80996880451284 287.09325768999986,-32.942106184614616 286.9820731073409,-33.07249592660907 286.86883376081306,-33.20110520557594 286.75356815781623,-33.327901644817025 286.63630531584965,-33.4528533240068 286.51707475520664,-33.575928787228264 286.39590649154314,-33.69709705089171 286.2728310283217,-33.81632761153475 286.1478793491319,-33.93359045350135 286.0210829098909,-34.048856056498146 285.892473630924,-34.16209540302599 285.7620838889295,-34.27327998568496 285.62994650882774,-34.382381814350964 285.49609475549744,-34.489373423222105 285.3605623254017,-34.59422787773298 285.223383338105,-34.69691878133543 285.0845923276838,-34.79742028214362 284.9442242340328,-34.89570707944219 284.8023143940689,-34.99175443005552 284.65889853283534,-35.08553815457675 284.5140127545083,-35.177034643454746 284.36769353330766,-35.26622086293774 284.2199777043149,-35.353074360871936 284.0709024542,-35.437573272353674 283.92050531185987,-35.51969632523388 283.7688241389709,-35.599422845473164 283.61589712045725,-35.676732762346425 283.46176275487795,-35.751606613495504 283.3064598447353,-35.8240255498288 283.15002748670634,-35.89397134026635 282.99250506180067,-35.96142637632948 282.83393222544646,-36.026373676573584 282.6743488975071,-36.088796890863144 282.5137952522321,-36.14868030448781 282.352311708143,-36.206008842118415 282.18993891785857,-36.26076807160221 282.0267177578603,-36.312944207596 281.86268931820234,-36.36252411503657 281.69789489216726,-36.40949531244737 281.53237596587053,-36.45384597508064 281.3661742078167,-36.495564937894244 281.1993314584095,-36.53464169836239 281.031889719419,-36.5710664191196 280.86389114340733,-36.60482993043723 280.69537802311777,-36.63592373253184 280.5263927808271,-36.664339997705056 280.35697795766634,-36.69007157231407 280.18717620291136,-36.713111978572584 280.01703026324583,-36.73345541618154 279.8465829720001,-36.75109676378931 279.67587723836823,-36.76603158028097 279.5049560366058,-36.77825610589635 279.3338623952113,-36.787767263176484 279.16263938609404,-36.79456265773839 278.99133011373084,-36.798640578877844 278.8199777043149,-36.8 170.99999999999997,-36.8 170.82864759058404,-36.798640578877844 170.65733831822084,-36.79456265773839 170.48611530910352,-36.787767263176484 170.31502166770906,-36.77825610589635 170.14410046594665,-36.76603158028097 169.9733947323148,-36.75109676378931 169.80294744106905,-36.73345541618154 169.6328015014035,-36.713111978572584 169.4629997466485,-36.69007157231407 169.29358492348777,-36.664339997705056 169.12459968119714,-36.63592373253184 168.95608656090752,-36.60482993043723 168.7880879848959,-36.5710664191196 168.62064624590533,-36.53464169836239 168.45380349649815,-36.495564937894244 168.28760173844432,-36.45384597508065 168.1220828121476,-36.40949531244737 167.95728838611254,-36.36252411503657 167.7932599464546,-36.312944207596 167.6300387864563,-36.26076807160221 167.4676659961718,-36.206008842118415 167.30618245208277,-36.14868030448781 167.14562880680776,-36.088796890863144 166.98604547886845,-36.026373676573584 166.82747264251418,-35.96142637632948 166.66995021760854,-35.89397134026635 166.51351785957962,-35.8240255498288 166.3582149494369,-35.751606613495504 166.2040805838576,-35.67673276234642 166.05115356534395,-35.599422845473164 165.89947239245498,-35.51969632523388 165.74907525011488,-35.437573272353674 165.59999999999997,-35.35307436087193 165.4522841710072,-35.26622086293775 165.30596494980654,-35.177034643454746 165.1610791714795,-35.08553815457675 165.01766331024598,-34.99175443005552 164.87575347028206,-34.89570707944219 164.73538537663103,-34.79742028214363 164.59659436620984,-34.696918781335434 164.45941537891315,-34.59422787773298 164.32388294881744,-34.489373423222105 164.1900311954871,-34.382381814350964 164.05789381538534,-34.27327998568496 163.92750407339088,-34.16209540302599 163.798894794424,-34.048856056498146 163.67209835518292,-33.93359045350135 163.54714667599316,-33.81632761153475 163.4240712127717,-33.69709705089171 163.30290294910824,-33.575928787228264 163.18367238846523,-33.4528533240068 163.06640954649862,-33.327901644817025 162.95114394350185,-33.20110520557594 162.83790459697397,-33.07249592660908 162.72672001431502,-32.942106184614616 162.617618185649,-32.809968804512835 162.51062657677787,-32.67611705118254 162.40577212226697,-32.54058462108679 162.30308121866454,-32.40340563379011 162.20257971785637,-32.264614623368935 162.10429292055778,-32.12424652971792 162.00824556994442,-31.98233668975399 161.9144618454232,-31.83892082852045 161.8229653565452,-31.694035050193424 161.7337791370622,-31.547715828992782 161.64692563912803,-31.39999999999999 161.56242672764628,-31.250924749885055 161.48030367476608,-31.10052760754497 161.4005771545268,-30.94884643465603 161.32326723765354,-30.795919416142354 161.24839338650446,-30.64178505056305 161.17597445017117,-30.486482140420367 161.10602865973362,-30.330049782391427 161.0385736236705,-30.172527357485784 160.97362632342637,-30.013954521131534 160.9112031091368,-29.85437119319221 160.85131969551213,-29.69381754791722 160.79399115788152,-29.53233400382815 160.73923192839777,-29.369961213543657 160.68705579240395,-29.206740053545367 160.6374758849634,-29.042711613887437 160.5905046875526,-28.877917187852375 160.5461540249193,-28.712398261555652 160.50443506210573,-28.54619650350181 160.46535830163756,-28.379353754094634 160.42893358088034,-28.211912015104055 160.39517006956274,-28.043913439092428 160.3640762674681,-27.875400318802843 160.3356600022949,-27.706415076512172 160.3099284276859,-27.537000253351476 160.2868880214274,-27.36719849859649 160.26654458381842,-27.197052558930913 160.24890323621065,-27.026605267685166 160.233968419719,-26.855899534053314 160.22174389410364,-26.684978332290893 160.21223273682347,-26.51388469089641 160.20543734226158,-26.342661681779127 160.2013594211221,-26.17135240941592 160.2,-25.999999999999996 160.2,193.39999999999998 160.2013594211221,193.5713524094159 160.20543734226158,193.7426616817791 160.21223273682347,193.9138846908964 160.22174389410364,194.0849783322909 160.233968419719,194.2558995340533 160.24890323621065,194.42660526768515 160.26654458381842,194.5970525589309 160.2868880214274,194.76719849859649 160.3099284276859,194.93700025335144 160.3356600022949,195.10641507651218 160.3640762674681,195.2754003188028 160.39517006956274,195.44391343909243 160.42893358088034,195.61191201510405 160.46535830163756,195.77935375409461 160.50443506210573,195.9461965035018 160.5461540249193,196.11239826155565 160.5905046875526,196.27791718785238 160.63747588496338,196.4427116138874 160.68705579240395,196.60674005354537 160.73923192839777,196.76996121354364 160.79399115788152,196.93233400382815 160.85131969551213,197.09381754791718 160.9112031091368,197.25437119319218 160.97362632342637,197.41395452113153 161.0385736236705,197.5725273574858 161.10602865973362,197.7300497823914 161.17597445017117,197.88648214042036 161.24839338650446,198.04178505056305 161.32326723765354,198.19591941614235 161.4005771545268,198.348846434656 161.48030367476608,198.50052760754497 161.56242672764628,198.65092474988506 161.64692563912803,198.8 161.7337791370622,198.94771582899278 161.8229653565452,199.0940350501934 161.9144618454232,199.23892082852043 162.00824556994442,199.38233668975397 162.10429292055778,199.52424652971789 162.20257971785637,199.66461462336895 162.30308121866454,199.8034056337901 162.40577212226697,199.9405846210868 162.51062657677787,200.0761170511825 162.617618185649,200.20996880451284 162.72672001431502,200.3421061846146 162.83790459697397,200.47249592660907 162.9511439435018,200.60110520557595 163.06640954649862,200.72790164481702 163.18367238846523,200.8528533240068 163.30290294910824,200.97592878722824 163.4240712127717,201.0970970508917 163.54714667599316,201.21632761153472 163.67209835518292,201.33359045350133 163.798894794424,201.44885605649813 163.92750407339088,201.56209540302598 164.05789381538534,201.67327998568493 164.1900311954871,201.78238181435094 164.32388294881744,201.88937342322208 164.45941537891315,201.99422787773298 164.59659436620984,202.0969187813354 164.73538537663103,202.19742028214358 164.87575347028204,202.2957070794422 165.01766331024598,202.39175443005553 165.1610791714795,202.48553815457674 165.30596494980654,202.57703464345474 165.4522841710072,202.66622086293773 165.6,202.75307436087195 165.74907525011488,202.83757327235367 165.89947239245498,202.91969632523387 166.05115356534395,202.99942284547316 166.2040805838576,203.0767327623464 166.3582149494369,203.1516066134955 166.51351785957962,203.22402554982878 166.66995021760854,203.29397134026632 166.82747264251418,203.36142637632946 166.98604547886845,203.42637367657358 167.14562880680776,203.48879689086314 167.30618245208277,203.54868030448782 167.4676659961718,203.60600884211843 167.6300387864563,203.66076807160218 167.79325994645458,203.712944207596 167.95728838611254,203.76252411503654 168.1220828121476,203.80949531244738 168.28760173844432,203.85384597508065 168.45380349649815,203.89556493789422 168.6206462459053,203.93464169836238 168.7880879848959,203.9710664191196 168.95608656090752,204.0048299304372 169.12459968119714,204.03592373253184 169.29358492348777,204.06433999770505 169.4629997466485,204.09007157231406 169.6328015014035,204.1131119785726 169.80294744106905,204.13345541618153 169.9733947323148,204.1510967637893 170.14410046594665,204.16603158028096 170.31502166770906,204.1782561058963 170.48611530910352,204.18776726317645 170.65733831822084,204.1945626577384 170.82864759058407,204.19864057887784 170.99999999999997,204.2 278.8199777043149,204.2 " style="stroke:black;fill:none;stroke-width:2.0;stroke-dasharray:-;stroke-linecap:round;stroke-linejoin:round;" /><circle cx="332.81997770431485" cy="64.8" r="18.0" style="stroke:black;fill:none;stroke-width:2.0;stroke-dasharray:-;" /><circle cx="332.81997770431485" cy="165.6" r="18.0" style="stroke:black;fill:none;stroke-width:2.0;stroke-dasharray:-;" /><polygon points="415.8,192.6 415.8,228.6 424.8,228.6 424.8,192.6 " style="stroke:black;fill:none;stroke-width:2.0;stroke-dasharray:-;stroke-linecap:round;stroke-linejoin:round;" /><polyline points="424.8,192.6 438.3,179.1 438.3,242.1 424.8,228.6 " style="stroke:black;fill:none;stroke-width:2.0;stroke-dasharray:-;stroke-linecap:round;stroke-linejoin:round;" /><circle cx="432.0" cy="151.2" r="18.0" style="stroke:black;fill:none;stroke-width:2.0;stroke-dasharray:-;" /><path d="M 43.199999999999996,-0.0 L 54.0,-0.0 L 64.8,-0.0" style="stroke:black;fill:none;stroke-width:2.0;stroke-dasharray:-;stroke-linecap:round;stroke-linejoin:round;" /><path d="M 43.199999999999996,50.4 L 54.0,50.4 L 64.8,50.4" style="stroke:black;fill:none;stroke-width:2.0;stroke-dasharray:-;stroke-linecap:round;stroke-linejoin:round;" /><path d="M 43.199999999999996,100.8 L 54.0,100.8 L 64.8,100.8" style="stroke:black;fill:none;stroke-width:2.0;stroke-dasharray:-;stroke-linecap:round;stroke-linejoin:round;" /><path d="M 43.199999999999996,151.2 L 54.0,151.2 L 64.8,151.2" style="stroke:black;fill:none;stroke-width:2.0;stroke-dasharray:-;stroke-linecap:round;stroke-linejoin:round;" /><path d="M 43.199999999999996,201.6 L 54.0,201.6 L 64.8,201.6" style="stroke:black;fill:none;stroke-width:2.0;stroke-dasharray:-;stroke-linecap:round;stroke-linejoin:round;" /><path d="M 187.20000000000002,-7.2 L 187.20000000000002,10.799999999999999 M 187.20000000000002,46.800000000000004 L 187.20000000000002,64.8" style="stroke:black;fill:none;stroke-width:2;stroke-dasharray:-;stroke-linecap:round;stroke-linejoin:round;" /><path d="M 197.09997770431488,10.799999999999999 L 197.09997770431488,28.8 L 197.09997770431488,46.800000000000004" style="stroke:black;fill:none;stroke-width:2;stroke-dasharray:-;stroke-linecap:round;stroke-linejoin:round;" /><path d="M 221.21997770431489,-7.2 L 221.21997770431489,10.799999999999999 M 224.81997770431485,19.44 L 237.41997770431485,39.6 M 221.21997770431489,46.800000000000004 L 221.21997770431489,64.8" style="stroke:black;fill:none;stroke-width:2;stroke-dasharray:-;stroke-linecap:round;stroke-linejoin:round;" /><path d="M 198.89997770431486,28.8 L 206.90996655647234,28.8 L 214.91995540862973,28.8" style="stroke:black;fill:none;stroke-width:2;stroke-dasharray:2,3.3;stroke-linecap:round;stroke-linejoin:round;" /><path d="M 187.20000000000002,93.60000000000001 L 187.20000000000002,111.60000000000001 M 187.20000000000002,147.6 L 187.20000000000002,165.6" style="stroke:black;fill:none;stroke-width:2;stroke-dasharray:-;stroke-linecap:round;stroke-linejoin:round;" /><path d="M 197.09997770431488,111.60000000000001 L 197.09997770431488,129.6 L 197.09997770431488,147.6" style="stroke:black;fill:none;stroke-width:2;stroke-dasharray:-;stroke-linecap:round;stroke-linejoin:round;" /><path d="M 221.21997770431489,93.60000000000001 L 221.21997770431489,111.60000000000001 M 224.81997770431485,120.24 L 237.41997770431485,140.4 M 221.21997770431489,147.6 L 221.21997770431489,165.6" style="stroke:black;fill:none;stroke-width:2;stroke-dasharray:-;stroke-linecap:round;stroke-linejoin:round;" /><path d="M 198.89997770431486,129.6 L 206.90996655647234,129.6 L 214.91995540862973,129.6" style="stroke:black;fill:none;stroke-width:2;stroke-dasharray:2,3.3;stroke-linecap:round;stroke-linejoin:round;" /><path d="M 221.21997770431489,-7.2 L 221.21997770431489,43.2 L 221.21997770431489,93.60000000000001" style="stroke:black;fill:none;stroke-width:2.0;stroke-dasharray:-;stroke-linecap:round;stroke-linejoin:round;" /><path d="M 221.21997770431489,-7.2 L 199.6199777043149,-7.200000000000004 L 178.01997770431487,-7.2000000000000055" style="stroke:black;fill:none;stroke-width:2.0;stroke-dasharray:-;stroke-linecap:round;stroke-linejoin:round;" /><path d="M 64.8,-0.0 L 126.0,-3.6 L 187.20000000000002,-7.2" style="stroke:black;fill:none;stroke-width:2.0;stroke-dasharray:-;stroke-linecap:round;stroke-linejoin:round;" /><path d="M 64.8,50.4 L 126.0,72.0 L 187.20000000000002,93.60000000000001" style="stroke:black;fill:none;stroke-width:2.0;stroke-dasharray:-;stroke-linecap:round;stroke-linejoin:round;" /><path d="M 187.20000000000002,64.8 L 187.20000000000002,73.8 L 187.20000000000002,82.8" style="stroke:black;fill:none;stroke-width:2.0;stroke-dasharray:-;stroke-linecap:round;stroke-linejoin:round;" /><path d="M 187.20000000000002,82.8 L 187.20000000000002,97.19999999999999 L 178.20000000000002,97.19999999999999 L 196.20000000000002,97.19999999999999 M 180.9,101.52 L 193.5,101.52 M 185.4,105.84 L 189.0,105.84" style="stroke:black;fill:none;stroke-width:2.0;stroke-dasharray:-;stroke-linecap:round;stroke-linejoin:round;" /><path d="M 187.20000000000002,165.6 L 187.20000000000002,174.6 L 187.20000000000002,183.6" style="stroke:black;fill:none;stroke-width:2.0;stroke-dasharray:-;stroke-linecap:round;stroke-linejoin:round;" /><path d="M 187.20000000000002,183.6 L 187.20000000000002,198.0 L 178.20000000000002,198.0 L 196.20000000000002,198.0 M 180.9,202.31999999999996 L 193.5,202.31999999999996 M 185.4,206.64 L 189.0,206.64" style="stroke:black;fill:none;stroke-width:2.0;stroke-dasharray:-;stroke-linecap:round;stroke-linejoin:round;" /><path d="M 221.21997770431489,64.8 L 228.41997770431487,64.8 L 228.41997770431487,55.800000000000004 L 264.4199777043149,55.800000000000004 L 264.4199777043149,73.8 L 228.41997770431487,73.8 L 228.41997770431487,64.8 M 264.4199777043149,64.8 L 271.6199777043149,64.8" style="stroke:black;fill:none;stroke-width:2.0;stroke-dasharray:-;stroke-linecap:round;stroke-linejoin:round;" /><path d="M 228.41997770431487,64.8 L 264.4199777043149,64.8" style="stroke:black;fill:none;stroke-width:2.0;stroke-dasharray:-;stroke-linecap:round;stroke-linejoin:round;" /><path d="M 221.21997770431489,165.6 L 228.41997770431487,165.6 L 228.41997770431487,156.6 L 264.4199777043149,156.6 L 264.4199777043149,174.6 L 228.41997770431487,174.6 L 228.41997770431487,165.6 M 264.4199777043149,165.6 L 271.6199777043149,165.6" style="stroke:black;fill:none;stroke-width:2.0;stroke-dasharray:-;stroke-linecap:round;stroke-linejoin:round;" /><path d="M 228.41997770431487,165.6 L 264.4199777043149,165.6" style="stroke:black;fill:none;stroke-width:2.0;stroke-dasharray:-;stroke-linecap:round;stroke-linejoin:round;" /><path d="M 221.21997770431489,165.6 L 143.00998885215745,133.2 L 64.80000000000003,100.79999999999995" style="stroke:#888;fill:none;stroke-width:2.0;stroke-dasharray:-;stroke-linecap:round;stroke-linejoin:round;" /><path d="M 271.6199777043149,64.8 L 289.6199777043149,64.8 L 307.6199777043149,64.8" style="stroke:black;fill:none;stroke-width:2.0;stroke-dasharray:-;stroke-linecap:round;stroke-linejoin:round;" /><path d="M 307.6199777043149,64.8 L 314.81997770431485,64.8 L 314.81997770431485,64.8 M 350.81997770431485,64.8 L 350.81997770431485,64.8 L 358.0199777043149,64.8" style="stroke:black;fill:none;stroke-width:2.0;stroke-dasharray:-;stroke-linecap:round;stroke-linejoin:round;" /><path d="M 314.81997770431485,64.8 L 314.9757750352202,64.1742335117939 L 315.1972273603453,63.54401172519552 L 315.4844706563774,62.91564398591007 L 315.83698224619536,62.295421078200334 L 316.25358603155246,61.68955224589483 L 316.73246426736097,61.10410302972277 L 317.27117575970146,60.54493454330517 L 317.86668030537203,60.017644795729154 L 318.5153691283054,59.52751264814334 L 319.2131010081449,59.07944496544218 L 319.95524373928527,58.67792749212009 L 320.7367205053194,58.326979944092585 L 321.5520607046215,58.03011576607387 L 322.39545471823584,57.79030695739254 L 323.2608120717737,57.60995431838475 L 324.14182240904057,57.49086341523777 L 325.03201866696867,57.43422650390701 L 325.92484181939045,57.44061059407202 L 326.81370654148304,57.50995177262676 L 327.6920671374969,57.64155584353358 L 328.5534830717456,57.83410527763493 L 329.391683446805,58.08567240284625 L 330.2006297834124,58.39373870267894 L 330.9745764735539,58.75522002988974 L 331.70812830152806,59.16649748283503 L 332.39629445712296,59.62345363541724 L 333.03453850016473,60.1215137579141 L 333.61882377622646,60.655691616016256 L 334.14565382882756,61.22063938956498 L 334.61210740354306,61.81070121123781 L 335.0158676935882,62.41996978918993 L 335.35524553408857,63.04234554678437 L 335.62919631283427,63.67159768734491 L 335.8373304282161,64.30142657259341 L 335.97991718964806,64.92552679028189 L 336.0578821214275,65.53765027962946 L 336.0727976970244,66.13166888259599 L 336.02686759656183,66.70163569477235 L 335.92290464509114,67.2418446016842 L 335.7643026525279,67.74688740447331 L 335.555002437169,68.2117079630529 L 335.2994523729386,68.63165281469395 L 335.0025638553379,69.00251776128319 L 334.6696621319413,69.32058995885404 L 334.30643298969255,69.58268508801865 L 333.91886583272844,69.78617923317667 L 333.5131937205971,69.92903515134775 L 333.09583096716625,70.00982266764275 L 332.67330892493817,70.02773299318797 L 332.25221059765516,69.98258682216128 L 331.8391047358078,69.87483612687836 L 331.4404800748367,69.7055596329577 L 331.0626803743913,69.47645201986391 L 330.71184090898385,69.18980695494626 L 330.39382704585495,68.84849413082364 L 330.1141755249632,68.45593053600203 L 329.87803902896485,68.0160462463431 L 329.69013459811015,67.5332450798563 L 329.55469640649085,67.01236050871134 L 329.47543337241075,66.45860726984964 L 329.45549202725425,65.87752915863607 L 329.4974250145856,65.27494352820463 L 329.6031655348421,64.65688305013265 L 329.7740079914658,64.02953531949508 L 330.0105950322288,63.399180908931854 L 330.3129111154875,62.77213049188782 L 330.6802826657743,62.15466166450436 L 331.1113848171713,61.55295609865796 L 331.604254676953,60.97303765532647 L 332.1563109767141,60.42071207784921 L 332.76437991424837,59.90150886883027 L 333.42472692746577,59.42062593257352 L 334.13309408225217,58.98287753725111 L 334.8847426999673,58.592646117772034 L 335.67450079782645,58.253838401867526 L 336.4968148672231,57.9698462986285 L 337.3458054716259,57.74351294105192 L 338.21532610744043,57.57710422255492 L 339.09902473856255,57.472286112413215 L 339.99040738858116,57.43010797722617 L 340.8829031539896,57.450992075382445 L 341.76992998753803,57.53472932970029 L 342.6449605931489,57.6804814205641 L 343.5015877727021,57.88678917860193 L 344.33358857048165,58.15158719288258 L 345.13498657311504,58.47222448838473 L 345.9001117413,58.84549106572986 L 346.62365717432687,59.267650037481246 L 347.30073223910574,59.73447503928274 L 347.9269115318118,60.24129254130272 L 348.49827918197445,60.78302863639021 L 349.0114680554708,61.354259836532584 L 349.46369346394977,61.9492673690756 L 349.8527810432097,62.56209442912949 L 350.17718852143355,63.18660581498966 L 350.43602115934954,63.816549349543195 L 350.6290407077437,64.44561847275233 L 350.75666779264634,65.0675153785824 L 350.81997770431485,65.67601406429065" style="stroke:black;fill:none;stroke-width:2.0;stroke-dasharray:-;stroke-linecap:round;stroke-linejoin:round;" /><path d="M 358.0199777043149,64.8 L 358.0199777043149,79.2 L 349.0199777043149,79.2 L 367.0199777043149,79.2 M 351.7199777043149,83.52000000000001 L 364.3199777043149,83.52000000000001 M 356.2199777043149,87.84 L 359.8199777043149,87.84" style="stroke:black;fill:none;stroke-width:2.0;stroke-dasharray:-;stroke-linecap:round;stroke-linejoin:round;" /><path d="M 271.6199777043149,165.6 L 289.6199777043149,165.6 L 307.6199777043149,165.6" style="stroke:black;fill:none;stroke-width:2.0;stroke-dasharray:-;stroke-linecap:round;stroke-linejoin:round;" /><path d="M 307.6199777043149,165.6 L 314.81997770431485,165.6 L 314.81997770431485,165.6 M 350.81997770431485,165.6 L 350.81997770431485,165.6 L 358.0199777043149,165.6" style="stroke:black;fill:none;stroke-width:2.0;stroke-dasharray:-;stroke-linecap:round;stroke-linejoin:round;" /><path d="M 314.81997770431485,165.6 L 314.9757750352202,164.97423351179387 L 315.1972273603453,164.34401172519551 L 315.4844706563774,163.71564398591008 L 315.83698224619536,163.09542107820033 L 316.25358603155246,162.48955224589483 L 316.73246426736097,161.90410302972276 L 317.27117575970146,161.34493454330516 L 317.86668030537203,160.81764479572914 L 318.5153691283054,160.3275126481433 L 319.2131010081449,159.87944496544216 L 319.95524373928527,159.47792749212007 L 320.7367205053194,159.12697994409257 L 321.5520607046215,158.83011576607387 L 322.39545471823584,158.59030695739253 L 323.2608120717737,158.40995431838476 L 324.14182240904057,158.29086341523777 L 325.03201866696867,158.234226503907 L 325.92484181939045,158.240610594072 L 326.81370654148304,158.30995177262676 L 327.6920671374969,158.4415558435336 L 328.5534830717456,158.63410527763492 L 329.391683446805,158.88567240284624 L 330.2006297834124,159.1937387026789 L 330.9745764735539,159.5552200298897 L 331.70812830152806,159.96649748283502 L 332.39629445712296,160.42345363541722 L 333.03453850016473,160.92151375791408 L 333.61882377622646,161.45569161601625 L 334.14565382882756,162.02063938956496 L 334.61210740354306,162.61070121123782 L 335.0158676935882,163.21996978918992 L 335.35524553408857,163.84234554678434 L 335.62919631283427,164.47159768734488 L 335.8373304282161,165.1014265725934 L 335.97991718964806,165.7255267902819 L 336.0578821214275,166.33765027962943 L 336.0727976970244,166.93166888259597 L 336.02686759656183,167.50163569477232 L 335.92290464509114,168.0418446016842 L 335.7643026525279,168.5468874044733 L 335.555002437169,169.01170796305288 L 335.2994523729386,169.4316528146939 L 335.0025638553379,169.80251776128318 L 334.6696621319413,170.12058995885403 L 334.30643298969255,170.38268508801866 L 333.91886583272844,170.58617923317667 L 333.5131937205971,170.72903515134772 L 333.09583096716625,170.80982266764272 L 332.67330892493817,170.82773299318794 L 332.25221059765516,170.78258682216128 L 331.8391047358078,170.67483612687838 L 331.4404800748367,170.50555963295767 L 331.0626803743913,170.27645201986388 L 330.71184090898385,169.98980695494623 L 330.39382704585495,169.64849413082362 L 330.1141755249632,169.255930536002 L 329.87803902896485,168.8160462463431 L 329.69013459811015,168.33324507985628 L 329.55469640649085,167.81236050871132 L 329.47543337241075,167.25860726984962 L 329.45549202725425,166.67752915863605 L 329.4974250145856,166.0749435282046 L 329.6031655348421,165.45688305013263 L 329.7740079914658,164.82953531949508 L 330.0105950322288,164.19918090893185 L 330.3129111154875,163.57213049188783 L 330.6802826657743,162.95466166450436 L 331.1113848171713,162.35295609865796 L 331.604254676953,161.77303765532648 L 332.1563109767141,161.2207120778492 L 332.76437991424837,160.70150886883025 L 333.42472692746577,160.2206259325735 L 334.13309408225217,159.7828775372511 L 334.8847426999673,159.39264611777202 L 335.67450079782645,159.0538384018675 L 336.4968148672231,158.76984629862847 L 337.3458054716259,158.54351294105192 L 338.21532610744043,158.37710422255492 L 339.09902473856255,158.27228611241318 L 339.99040738858116,158.23010797722617 L 340.8829031539896,158.25099207538244 L 341.76992998753803,158.33472932970028 L 342.6449605931489,158.48048142056408 L 343.5015877727021,158.6867891786019 L 344.33358857048165,158.95158719288256 L 345.13498657311504,159.27222448838472 L 345.9001117413,159.64549106572983 L 346.62365717432687,160.06765003748123 L 347.30073223910574,160.53447503928274 L 347.9269115318118,161.0412925413027 L 348.49827918197445,161.5830286363902 L 349.0114680554708,162.15425983653256 L 349.46369346394977,162.7492673690756 L 349.8527810432097,163.36209442912948 L 350.17718852143355,163.98660581498967 L 350.43602115934954,164.6165493495432 L 350.6290407077437,165.2456184727523 L 350.75666779264634,165.8675153785824 L 350.81997770431485,166.47601406429064" style="stroke:black;fill:none;stroke-width:2.0;stroke-dasharray:-;stroke-linecap:round;stroke-linejoin:round;" /><path d="M 358.0199777043149,165.6 L 358.0199777043149,180.0 L 349.0199777043149,180.0 L 367.0199777043149,180.0 M 351.7199777043149,184.31999999999996 L 364.3199777043149,184.31999999999996 M 356.2199777043149,188.64 L 359.8199777043149,188.64" style="stroke:black;fill:none;stroke-width:2.0;stroke-dasharray:-;stroke-linecap:round;stroke-linejoin:round;" /><path d="M 64.8,201.6 L 235.79999999999998,201.6 L 406.8,201.6" style="stroke:black;fill:none;stroke-width:2.0;stroke-dasharray:-;stroke-linecap:round;stroke-linejoin:round;" /><path d="M 406.8,201.6 L 415.8,201.6" style="stroke:black;fill:none;stroke-width:2.0;stroke-dasharray:-;stroke-linecap:round;stroke-linejoin:round;" /><path d="M 406.8,219.6 L 415.8,219.6" style="stroke:black;fill:none;stroke-width:2.0;stroke-dasharray:-;stroke-linecap:round;stroke-linejoin:round;" /><path d="M 406.8,219.6 L 406.8,234.0 L 397.8,234.0 L 415.8,234.0 M 400.5,238.31999999999996 L 413.1,238.31999999999996 M 405.0,242.64 L 408.6,242.64" style="stroke:black;fill:none;stroke-width:2.0;stroke-dasharray:-;stroke-linecap:round;stroke-linejoin:round;" /><path d="M 64.8,151.2 L 235.79999999999998,151.2 L 406.8,151.2" style="stroke:black;fill:none;stroke-width:2.0;stroke-dasharray:-;stroke-linecap:round;stroke-linejoin:round;" /><path d="M 406.8,151.2 L 414.0,151.2 L 414.0,151.2 M 450.0,151.2 L 450.0,151.2 L 457.20000000000005,151.2" style="stroke:black;fill:none;stroke-width:2.0;stroke-dasharray:-;stroke-linecap:round;stroke-linejoin:round;" /><path d="M 414.0,151.2 L 414.15579733090533,150.57423351179386 L 414.3772496560305,149.9440117251955 L 414.6644929520625,149.31564398591004 L 415.01700454188045,148.69542107820033 L 415.4336083272376,148.08955224589482 L 415.9124865630461,147.50410302972273 L 416.45119805538656,146.94493454330515 L 417.0467026010572,146.41764479572913 L 417.69539142399054,145.9275126481433 L 418.39312330383007,145.47944496544216 L 419.1352660349704,145.07792749212007 L 419.9167428010045,144.72697994409256 L 420.73208300030666,144.43011576607384 L 421.575477013921,144.19030695739252 L 422.4408343674589,144.00995431838476 L 423.3218447047257,143.89086341523776 L 424.2120409626538,143.834226503907 L 425.1048641150756,143.840610594072 L 425.9937288371682,143.90995177262673 L 426.87208943318205,144.04155584353356 L 427.73350536743067,144.2341052776349 L 428.57170574249017,144.48567240284623 L 429.38065207909756,144.7937387026789 L 430.154598769239,145.1552200298897 L 430.88815059721315,145.56649748283502 L 431.5763167528081,146.02345363541718 L 432.2145607958498,146.52151375791408 L 432.7988460719116,147.05569161601625 L 433.3256761245127,147.62063938956496 L 433.7921296992282,148.2107012112378 L 434.1958899892733,148.8199697891899 L 434.5352678297737,149.44234554678434 L 434.8092186085194,150.07159768734488 L 435.01735272390124,150.7014265725934 L 435.15993948533315,151.32552679028186 L 435.23790441711265,151.93765027962942 L 435.25281999270953,152.53166888259594 L 435.206889892247,153.1016356947723 L 435.10292694077623,153.6418446016842 L 434.944324948213,154.1468874044733 L 434.73502473285413,154.61170796305288 L 434.47947466862377,155.0316528146939 L 434.18258615102303,155.40251776128315 L 433.84968442762647,155.720589958854 L 433.4864552853777,155.98268508801863 L 433.0988881284136,156.18617923317663 L 432.69321601628224,156.3290351513477 L 432.2758532628514,156.40982266764271 L 431.8533312206233,156.42773299318793 L 431.4322328933403,156.38258682216127 L 431.01912703149287,156.27483612687834 L 430.6205023705219,156.10555963295766 L 430.24270267007637,155.87645201986388 L 429.891863204669,155.58980695494623 L 429.5738493415401,155.24849413082362 L 429.2941978206483,154.855930536002 L 429.05806132465,154.4160462463431 L 428.8701568937953,153.93324507985628 L 428.734718702176,153.41236050871132 L 428.6554556680959,152.8586072698496 L 428.6355143229394,152.277529158636 L 428.6774473102707,151.6749435282046 L 428.78318783052725,151.05688305013263 L 428.95403028715094,150.42953531949507 L 429.19061732791397,149.79918090893182 L 429.4929334111726,149.1721304918878 L 429.86030496145946,148.55466166450435 L 430.29140711285646,147.95295609865792 L 430.7842769726381,147.37303765532647 L 431.33633327239926,146.82071207784918 L 431.94440220993346,146.30150886883024 L 432.6047492231509,145.8206259325735 L 433.3131163779373,145.3828775372511 L 434.06476499565247,144.99264611777198 L 434.8545230935116,144.6538384018675 L 435.67683716290827,144.36984629862846 L 436.52582776731106,144.1435129410519 L 437.3953484031255,143.97710422255489 L 438.2790470342477,143.87228611241318 L 439.1704296842663,143.83010797722613 L 440.06292544967476,143.8509920753824 L 440.9499522832232,143.93472932970028 L 441.82498288883403,144.08048142056407 L 442.6816100683872,144.2867891786019 L 443.5136108661668,144.55158719288255 L 444.31500886880013,144.8722244883847 L 445.08013403698516,145.24549106572982 L 445.80367947001196,145.66765003748122 L 446.4807545347909,146.13447503928273 L 447.10693382749696,146.64129254130268 L 447.6783014776596,147.1830286363902 L 448.19149035115595,147.75425983653255 L 448.64371575963486,148.34926736907556 L 449.03280333889484,148.96209442912948 L 449.3572108171187,149.58660581498964 L 449.6160434550347,150.2165493495432 L 449.8090630034288,150.8456184727523 L 449.9366900883315,151.4675153785824 L 450.0,152.07601406429063" style="stroke:black;fill:none;stroke-width:2.0;stroke-dasharray:-;stroke-linecap:round;stroke-linejoin:round;" /><path d="M 457.20000000000005,151.2 L 457.20000000000005,165.6 L 448.20000000000005,165.6 L 466.20000000000005,165.6 M 450.90000000000003,169.91999999999996 L 463.50000000000006,169.91999999999996 M 455.40000000000003,174.23999999999995 L 459.00000000000006,174.23999999999995" style="stroke:black;fill:none;stroke-width:2.0;stroke-dasharray:-;stroke-linecap:round;stroke-linejoin:round;" /><text x="68.39999999999999" y="-8.0" dominant-baseline="central" fill="black" font-size="8" font-family="sans" text-anchor="start"><tspan x="68.39999999999999" dy="8">HL.LO.TRG</tspan></text><text x="68.39999999999999" y="42.4" dominant-baseline="central" fill="black" font-size="8" font-family="sans" text-anchor="start"><tspan x="68.39999999999999" dy="8">HL.HI.TRG</tspan></text><text x="68.39999999999999" y="92.8" dominant-baseline="central" fill="black" font-size="8" font-family="sans" text-anchor="start"><tspan x="68.39999999999999" dy="8">HL.HI.TELL</tspan></text><text x="68.39999999999999" y="143.2" dominant-baseline="central" fill="black" font-size="8" font-family="sans" text-anchor="start"><tspan x="68.39999999999999" dy="8">TURN.OUT.F</tspan></text><text x="68.39999999999999" y="193.6" dominant-baseline="central" fill="black" font-size="8" font-family="sans" text-anchor="start"><tspan x="68.39999999999999" dy="8">HORN.OUT</tspan></text><circle cx="221.21997770431489" cy="15.12" r="4.32" style="stroke:black;fill:white;stroke-width:2;stroke-dasharray:-;" /><circle cx="221.21997770431489" cy="42.48" r="4.32" style="stroke:black;fill:white;stroke-width:2;stroke-dasharray:-;" /><text x="212.30998885215746" y="-18.8" dominant-baseline="ideographic" fill="black" font-size="8" font-family="sans" text-anchor="middle"><tspan x="212.30998885215746" dy="8">LO relay</tspan></text><circle cx="221.21997770431489" cy="115.92" r="4.32" style="stroke:black;fill:white;stroke-width:2;stroke-dasharray:-;" /><circle cx="221.21997770431489" cy="143.28" r="4.32" style="stroke:black;fill:white;stroke-width:2;stroke-dasharray:-;" /><text x="212.30998885215746" y="161.20000000000002" dominant-baseline="hanging" fill="black" font-size="8" font-family="sans" text-anchor="middle"><tspan x="212.30998885215746" dy="8">HI relay</tspan></text><text x="174.41997770431487" y="-15.200000000000006" dominant-baseline="central" fill="black" font-size="8" font-family="sans" text-anchor="end"><tspan x="174.41997770431487" dy="8">BAT +B</tspan></text><text x="246.41997770431487" y="69.39999999999999" dominant-baseline="hanging" fill="black" font-size="8" font-family="sans" text-anchor="middle"><tspan x="246.41997770431487" dy="8">10A</tspan></text><text x="246.41997770431487" y="170.2" dominant-baseline="hanging" fill="black" font-size="8" font-family="sans" text-anchor="middle"><tspan x="246.41997770431487" dy="8">10A</tspan></text><text x="224.90998885215743" y="-61.199999999999996" dominant-baseline="ideographic" fill="black" font-size="10" font-family="sans" text-anchor="middle"><tspan x="224.90998885215743" dy="10">Headlight PDM</tspan></text><text x="332.81997770431485" y="35.2" dominant-baseline="ideographic" fill="black" font-size="8" font-family="sans" text-anchor="middle"><tspan x="332.81997770431485" dy="8">Headlights LOW (L+R)</tspan></text><text x="332.81997770431485" y="179.2" dominant-baseline="hanging" fill="black" font-size="8" font-family="sans" text-anchor="middle"><tspan x="332.81997770431485" dy="8">Headlights HIGH (L+R)</tspan></text><text x="61.20000000000002" y="193.6" dominant-baseline="central" fill="black" font-size="8" font-family="sans" text-anchor="end"><tspan x="61.20000000000002" dy="8">HORN.OUT</tspan></text><text x="422.55" y="237.7" dominant-baseline="hanging" fill="black" font-size="8" font-family="sans" text-anchor="middle"><tspan x="422.55" dy="8">Horns</tspan></text><text x="61.20000000000002" y="143.2" dominant-baseline="central" fill="black" font-size="8" font-family="sans" text-anchor="end"><tspan x="61.20000000000002" dy="8">TURN.OUT.F</tspan></text><text x="432.0" y="164.79999999999995" dominant-baseline="hanging" fill="black" font-size="8" font-family="sans" text-anchor="middle"><tspan x="432.0" dy="8">Front turn L/R</tspan></text><circle cx="221.21997770431489" cy="-7.2" r="2.6999999999999997" style="stroke:black;fill:black;stroke-width:2.0;stroke-dasharray:-;" /><circle cx="221.21997770431489" cy="93.60000000000001" r="2.6999999999999997" style="stroke:black;fill:black;stroke-width:2.0;stroke-dasharray:-;" /></svg>