<svg xmlns="http://www.w3.org/2000/svg" xmlns:xlink="http://www.w3.org/1999/xlink" xml:lang="en" height="244.83999999999997pt" width="466.085pt" viewBox="-154.90599999999998 -55.2 466.085 244.83999999999997"><path d="M -9.000000000000014,64.8 L -9.000000000000014,7.2 L 59.219977704314864,7.2 L 59.219977704314864,64.8 L -9.000000000000014,64.8" style="stroke:black;fill:none;stroke-width:2;stroke-dasharray:-;stroke-linecap:round;stroke-linejoin:round;" /><path d="M 223.20000000000002,-9.000000000000027 L 280.8,-9.000000000000016 L 280.8,59.219977704314864 L 223.2,59.21997770431486 L 223.20000000000002,-9.000000000000027" style="stroke:black;fill:none;stroke-width:2;stroke-dasharray:-;stroke-linecap:round;stroke-linejoin:round;" /><path d="M -0.0 18.0 a 4.5 4.5 -270 1 1 0.0 9.0" style="stroke:black;fill:none;stroke-width:2;stroke-dasharray:-;" /><path d="M -0.0 27.0 a 4.5 4.5 -270 1 1 0.0 9.0" style="stroke:black;fill:none;stroke-width:2;stroke-dasharray:-;" /><path d="M -0.0 36.0 a 4.5 4.5 -270 1 1 0.0 9.0" style="stroke:black;fill:none;stroke-width:2;stroke-dasharray:-;" /><path d="M -0.0 45.0 a 4.5 4.5 -270 1 1 0.0 9.0" style="stroke:black;fill:none;stroke-width:2;stroke-dasharray:-;" /><circle cx="34.01997770431485" cy="127.8" r="18.0" style="stroke:black;fill:none;stroke-width:2.0;stroke-dasharray:-;" /><path d="M 270.0 -0.0 a 4.5 4.5 -540 1 1 -9.0 0.0" style="stroke:black;fill:none;stroke-width:2;stroke-dasharray:-;" /><path d="M 261.0 -0.0 a 4.5 4.5 -540 1 1 -9.0 0.0" style="stroke:black;fill:none;stroke-width:2;stroke-dasharray:-;" /><path d="M 252.0 -0.0 a 4.5 4.5 -540 1 1 -9.0 0.0" style="stroke:black;fill:none;stroke-width:2;stroke-dasharray:-;" /><path d="M 243.0 -0.0 a 4.5 4.5 -540 1 1 -9.0 0.0" style="stroke:black;fill:none;stroke-width:2;stroke-dasharray:-;" /><circle cx="216.0" cy="89.81997770431484" r="18.0" style="stroke:black;fill:none;stroke-width:2.0;stroke-dasharray:-;" /><path d="M 0.0,-0.0 L -3.3065463576978533e-15,18.0 M -9.919639073093561e-15,54.0 L -1.3226185430791413e-14,72.0" style="stroke:black;fill:none;stroke-width:2;stroke-dasharray:-;stroke-linecap:round;stroke-linejoin:round;" /><path d="M 9.899977704314876,18.0 L 9.899977704314873,36.0 L 9.89997770431487,54.0" style="stroke:black;fill:none;stroke-width:2;stroke-dasharray:-;stroke-linecap:round;stroke-linejoin:round;" /><path d="M 34.01997770431487,-0.0 L 34.01997770431487,18.0 M 37.61997770431487,26.64 L 50.219977704314864,46.800000000000004 M 34.01997770431486,54.0 L 34.01997770431486,72.0" style="stroke:black;fill:none;stroke-width:2;stroke-dasharray:-;stroke-linecap:round;stroke-linejoin:round;" /><path d="M 11.699977704314874,36.0 L 19.709966556472313,36.0 L 27.719955408629747,36.0" style="stroke:black;fill:none;stroke-width:2;stroke-dasharray:2,3.3;stroke-linecap:round;stroke-linejoin:round;" /><path d="M 34.01997770431487,-0.0 L 34.01997770431487,-18.0 L 34.019977704314876,-36.0" style="stroke:black;fill:none;stroke-width:2.0;stroke-dasharray:-;stroke-linecap:round;stroke-linejoin:round;" /><path d="M 34.01997770431486,72.0 L 34.01997770431486,82.8 L 34.019977704314854,93.60000000000001" style="stroke:black;fill:none;stroke-width:2.0;stroke-dasharray:-;stroke-linecap:round;stroke-linejoin:round;" /><path d="M 34.019977704314854,93.60000000000001 L 34.019977704314854,109.8 L 34.019977704314854,109.8 M 34.01997770431485,145.79999999999998 L 34.01997770431485,145.79999999999998 L 34.01997770431485,162.0" style="stroke:black;fill:none;stroke-width:2.0;stroke-dasharray:-;stroke-linecap:round;stroke-linejoin:round;" /><path d="M 34.019977704314854,109.8 L 34.64574419252095,109.95579733090527 L 35.27596597911934,110.17724965603044 L 35.90433371840478,110.46449295206253 L 36.524556626114524,110.81700454188044 L 37.13042545842002,111.23360832723753 L 37.71587467459208,111.71248656304607 L 38.275043161009684,112.25119805538652 L 38.802332908585704,112.84670260105712 L 39.29246505617151,113.49539142399053 L 39.74053273887267,114.19312330383 L 40.14205021219476,114.93526603497035 L 40.49299776022227,115.71674280100453 L 40.78986193824098,116.53208300030661 L 41.029670746922314,117.37547701392099 L 41.21002338593009,118.24083436745883 L 41.329114289077076,119.1218447047257 L 41.38575120040784,120.01204096265381 L 41.37936711024283,120.90486411507558 L 41.31002593168808,121.79372883716817 L 41.17842186078126,122.67208943318205 L 40.985872426679926,123.53350536743069 L 40.7343053014686,124.37170574249016 L 40.42623900163592,125.18065207909754 L 40.06475767442512,125.954598769239 L 39.65348022147982,126.68815059721314 L 39.19652406889761,127.37631675280804 L 38.69846394640076,128.01456079584983 L 38.16428608829859,128.59884607191162 L 37.599338314749865,129.12567612451267 L 37.00927649307703,129.5921296992282 L 36.400007915124924,129.99588998927328 L 35.77763215753048,130.3352678297737 L 35.14838001696995,130.60921860851943 L 34.51855113172144,130.8173527239012 L 33.89445091403295,130.95993948533314 L 33.28232742468539,131.0379044171126 L 32.68830882171886,131.05281999270952 L 32.11834200954251,131.006889892247 L 31.578133102630638,130.90292694077624 L 31.073090299841546,130.74432494821295 L 30.608269741261942,130.53502473285408 L 30.188324889620905,130.27947466862378 L 29.817459943031665,129.982586151023 L 29.49938774546081,129.6496844276264 L 29.23729261629619,129.28645528537766 L 29.033798471138184,128.89888812841355 L 28.890942552967108,128.49321601628222 L 28.810155036672107,128.07585326285133 L 28.79224471112689,127.65333122062329 L 28.837390882153574,127.23223289334032 L 28.94514157743648,126.81912703149287 L 29.11441807135715,126.42050237052187 L 29.34352568445094,126.04270267007638 L 29.630170749368588,125.69186320466893 L 29.97148357349121,125.37384934154005 L 30.364047168312826,125.0941978206483 L 30.80393145797175,124.85806132464997 L 31.286732624458548,124.67015689379525 L 31.807617195603513,124.53471870217597 L 32.36137043446522,124.45545566809582 L 32.942448545678786,124.43551432293937 L 33.545034176110214,124.47744731027066 L 34.1630946541822,124.58318783052722 L 34.79044238481977,124.75403028715093 L 35.420796795383,124.99061732791394 L 36.04784721242702,125.29293341117258 L 36.66531603981049,125.66030496145946 L 37.2670216056569,126.09140711285646 L 37.84694004898838,126.5842769726381 L 38.39926562646564,127.13633327239924 L 38.91846883548459,127.74440220993347 L 39.39935177174132,128.4047492231509 L 39.83710016706374,129.11311637793727 L 40.22733158654282,129.86476499565245 L 40.566139302447326,130.65452309351156 L 40.850131405686355,131.47683716290825 L 41.07646476326293,132.325827767311 L 41.24287348175993,133.19534840312554 L 41.347691591901636,134.07904703424765 L 41.38986972708868,134.97042968426626 L 41.3689856289324,135.86292544967475 L 41.28524837461456,136.74995228322314 L 41.139496283750745,137.624982888834 L 40.93318852571292,138.4816100683872 L 40.66839051143227,139.31361086616675 L 40.34775321593012,140.1150088688001 L 39.97448663858499,140.88013403698517 L 39.552327666833605,141.60367947001197 L 39.0855026650321,142.28075453479087 L 38.57868516301213,142.9069338274969 L 38.03694906792464,143.47830147765956 L 37.46571786778226,143.99149035115593 L 36.87071033523925,144.44371575963484 L 36.257883275185364,144.83280333889482 L 35.63337188932518,145.15721081711868 L 35.00342835477165,145.4160434550347 L 34.374359231562515,145.60906300342882 L 33.75246232573245,145.73669008833147 L 33.143963640024204,145.79999999999998" style="stroke:black;fill:none;stroke-width:2.0;stroke-dasharray:-;stroke-linecap:round;stroke-linejoin:round;" /><path d="M 34.01997770431485,162.0 L 34.01997770431485,176.4 L 25.019977704314844,176.4 L 43.01997770431484,176.4 M 27.719977704314847,180.71999999999997 L 40.319977704314844,180.71999999999997 M 32.21997770431484,185.04 L 35.819977704314844,185.04" style="stroke:black;fill:none;stroke-width:2.0;stroke-dasharray:-;stroke-linecap:round;stroke-linejoin:round;" /><path d="M 0.0,-0.0 L -32.4,-3.9678556292374245e-15 L -64.8,-7.935711258474849e-15" style="stroke:black;fill:none;stroke-width:2.0;stroke-dasharray:-;stroke-linecap:round;stroke-linejoin:round;" /><path d="M -1.3226185430791413e-14,72.0 L -1.5871422516949695e-14,86.39999999999999 L -1.8516659603107978e-14,100.8" style="stroke:black;fill:none;stroke-width:2.0;stroke-dasharray:-;stroke-linecap:round;stroke-linejoin:round;" /><path d="M -1.8516659603107978e-14,100.8 L -1.8516659603107978e-14,115.19999999999999 L -9.000000000000018,115.19999999999999 L 8.99999999999998,115.19999999999999 M -6.3000000000000185,119.52 L 6.29999999999998,119.52 M -1.8000000000000185,123.84 L 1.7999999999999816,123.84" style="stroke:black;fill:none;stroke-width:2.0;stroke-dasharray:-;stroke-linecap:round;stroke-linejoin:round;" /><path d="M 288.0,-0.0 L 270.0,-6.613092715395707e-15 M 234.0,-1.9839278146187122e-14 L 216.0,-2.6452370861582827e-14" style="stroke:black;fill:none;stroke-width:2;stroke-dasharray:-;stroke-linecap:round;stroke-linejoin:round;" /><path d="M 270.0,9.899977704314873 L 252.0,9.899977704314868 L 234.0,9.899977704314859" style="stroke:black;fill:none;stroke-width:2;stroke-dasharray:-;stroke-linecap:round;stroke-linejoin:round;" /><path d="M 288.0,34.01997770431487 L 270.0,34.01997770431486 M 261.36,37.61997770431486 L 241.2,50.21997770431486 M 234.0,34.019977704314854 L 216.0,34.01997770431485" style="stroke:black;fill:none;stroke-width:2;stroke-dasharray:-;stroke-linecap:round;stroke-linejoin:round;" /><path d="M 252.0,11.699977704314868 L 252.0,19.709966556472303 L 252.0,27.71995540862974" style="stroke:black;fill:none;stroke-width:2;stroke-dasharray:2,3.3;stroke-linecap:round;stroke-linejoin:round;" /><path d="M 288.0,34.01997770431487 L 288.0,16.019977704314872 L 288.0,-1.9800222956851279" style="stroke:black;fill:none;stroke-width:2.0;stroke-dasharray:-;stroke-linecap:round;stroke-linejoin:round;" /><path d="M 216.0,34.01997770431485 L 216.0,44.81997770431485 L 216.0,55.61997770431484" style="stroke:black;fill:none;stroke-width:2.0;stroke-dasharray:-;stroke-linecap:round;stroke-linejoin:round;" /><path d="M 216.0,55.61997770431484 L 216.0,71.81997770431484 L 216.0,71.81997770431484 M 216.0,107.81997770431484 L 216.0,107.81997770431484 L 216.0,124.01997770431484" style="stroke:black;fill:none;stroke-width:2.0;stroke-dasharray:-;stroke-linecap:round;stroke-linejoin:round;" /><path d="M 216.0,71.81997770431484 L 216.6257664882061,71.97577503522012 L 217.25598827480448,72.19722736034528 L 217.88435601408992,72.48447065637737 L 218.50457892179966,72.83698224619528 L 219.11044775410517,73.25358603155237 L 219.69589697027723,73.73246426736091 L 220.25506545669484,74.27117575970136 L 220.78235520427086,74.86668030537196 L 221.27248735185668,75.51536912830537 L 221.72055503455783,76.21310100814485 L 222.1220725078799,76.9552437392852 L 222.47302005590743,77.73672050531937 L 222.76988423392612,78.55206070462145 L 223.00969304260744,79.39545471823583 L 223.19004568161523,80.26081207177367 L 223.30913658476223,81.14182240904054 L 223.36577349609297,82.03201866696865 L 223.359389405928,82.92484181939042 L 223.29004822737323,83.81370654148301 L 223.1584441564664,84.69206713749689 L 222.96589472236508,85.55348307174553 L 222.71432759715375,86.391683446805 L 222.40626129732104,87.20062978341238 L 222.04477997011026,87.97457647355384 L 221.63350251716497,88.70812830152798 L 221.17654636458275,89.39629445712288 L 220.6784862420859,90.03453850016467 L 220.14430838398374,90.61882377622645 L 219.579360610435,91.1456538288275 L 218.98929878876217,91.61210740354305 L 218.38003021081008,92.0158676935881 L 217.75765445321565,92.35524553408854 L 217.1284023126551,92.62919631283427 L 216.4985734274066,92.83733042821605 L 215.8744732097181,92.97991718964799 L 215.26234972037054,93.05788212142745 L 214.668331117404,93.07279769702437 L 214.09836430522765,93.02686759656183 L 213.55815539831576,92.92290464509107 L 213.05311259552667,92.7643026525278 L 212.5882920369471,92.55500243716891 L 212.16834718530603,92.29945237293862 L 211.7974822387168,92.00256385533785 L 211.47941004114597,91.66966213194124 L 211.21731491198133,91.30643298969248 L 211.01382076682333,90.9188658327284 L 210.87096484865228,90.51319372059706 L 210.79017733235727,90.09583096716617 L 210.77226700681206,89.67330892493813 L 210.81741317783872,89.25221059765516 L 210.92516387312162,88.83910473580771 L 211.0944403670423,88.44048007483671 L 211.32354798013608,88.06268037439122 L 211.61019304505373,87.71184090898377 L 211.95150586917634,87.39382704585489 L 212.34406946399798,87.11417552496314 L 212.7839537536569,86.8780390289648 L 213.2667549201437,86.69013459811009 L 213.78763949128867,86.5546964064908 L 214.34139273015037,86.47543337241066 L 214.92247084136392,86.45549202725421 L 215.52505647179535,86.4974250145855 L 216.14311694986736,86.60316553484206 L 216.77046468050492,86.77400799146577 L 217.40081909106814,87.01059503222878 L 218.02786950811216,87.31291111548742 L 218.64533833549564,87.6802826657743 L 219.24704390134204,88.1113848171713 L 219.82696234467352,88.60425467695293 L 220.37928792215078,89.15631097671408 L 220.89849113116975,89.76437991424831 L 221.37937406742645,90.42472692746574 L 221.81712246274887,91.1330940822521 L 222.20735388222795,91.88474269996729 L 222.54616159813244,92.6745007978264 L 222.83015370137147,93.49681486722308 L 223.05648705894808,94.34580547162585 L 223.22289577744507,95.21532610744038 L 223.3277138875868,96.09902473856248 L 223.36989202277383,96.99040738858112 L 223.34900792461755,97.88290315398957 L 223.2652706702997,98.76992998753799 L 223.11951857943592,99.64496059314887 L 222.91321082139805,100.50158777270204 L 222.6484128071174,101.3335885704816 L 222.32777551161527,102.13498657311493 L 221.95450893427014,102.90011174130001 L 221.53234996251877,103.62365717432681 L 221.06552496071725,104.30073223910571 L 220.55870745869728,104.92691153181177 L 220.0169713636098,105.49827918197438 L 219.4457401634674,106.01146805547079 L 218.8507326309244,106.46369346394965 L 218.2379055708705,106.85278104320966 L 217.61339418501032,107.17718852143354 L 216.9834506504568,107.43602115934954 L 216.35438152724765,107.62904070774364 L 215.7324846214176,107.7566677926463 L 215.12398593570936,107.81997770431484" style="stroke:black;fill:none;stroke-width:2.0;stroke-dasharray:-;stroke-linecap:round;stroke-linejoin:round;" /><path d="M 216.0,124.01997770431484 L 216.0,138.41997770431485 L 207.0,138.41997770431485 L 225.0,138.41997770431485 M 209.70000000000002,142.73997770431484 L 222.29999999999998,142.73997770431484 M 214.20000000000002,147.05997770431483 L 217.79999999999998,147.05997770431483" style="stroke:black;fill:none;stroke-width:2.0;stroke-dasharray:-;stroke-linecap:round;stroke-linejoin:round;" /><path d="M 288.0,-0.0 L 255.6,-3.9678556292374245e-15 L 223.20000000000002,-7.935711258474849e-15" style="stroke:black;fill:none;stroke-width:2.0;stroke-dasharray:-;stroke-linecap:round;stroke-linejoin:round;" /><path d="M 216.0,-2.6452370861582827e-14 L 216.0,14.399999999999975 L 216.0,28.799999999999972" style="stroke:black;fill:none;stroke-width:2.0;stroke-dasharray:-;stroke-linecap:round;stroke-linejoin:round;" /><path d="M 216.0,28.799999999999972 L 216.0,43.199999999999974 L 207.0,43.199999999999974 L 225.0,43.199999999999974 M 209.70000000000002,47.51999999999998 L 222.29999999999998,47.51999999999998 M 214.20000000000002,51.839999999999975 L 217.79999999999998,51.839999999999975" style="stroke:black;fill:none;stroke-width:2.0;stroke-dasharray:-;stroke-linecap:round;stroke-linejoin:round;" /><circle cx="34.01997770431487" cy="22.32" r="4.32" style="stroke:black;fill:white;stroke-width:2;stroke-dasharray:-;" /><circle cx="34.01997770431486" cy="49.67999999999999" r="4.32" style="stroke:black;fill:white;stroke-width:2;stroke-dasharray:-;" /><text x="25.10998885215742" y="-36.2" dominant-baseline="ideographic" fill="black" font-size="11" font-family="sans" text-anchor="middle"><tspan x="25.10998885215742" dy="11">LOW-beam relay (PDM)</tspan></text><text x="34.019977704314876" y="-50.6" dominant-baseline="ideographic" fill="black" font-size="11" font-family="sans" text-anchor="middle"><tspan x="34.019977704314876" dy="11">BAT +B</tspan></text><text x="12.41997770431485" y="111.30000000000001" dominant-baseline="central" fill="black" font-size="11" font-family="sans" text-anchor="end"><tspan x="12.41997770431485" dy="11">Headlights</tspan><tspan x="12.41997770431485" dy="11">LOW  (L + R)</tspan></text><text x="-68.39999999999999" y="-16.500000000000007" dominant-baseline="central" fill="black" font-size="11" font-family="sans" text-anchor="end"><tspan x="-68.39999999999999" dy="11">HL.LO.TRG</tspan><tspan x="-68.39999999999999" dy="11">(dip sw, via BH4)</tspan></text><circle cx="265.68" cy="34.01997770431486" r="4.32" style="stroke:black;fill:white;stroke-width:2;stroke-dasharray:-;" /><circle cx="238.32" cy="34.019977704314854" r="4.32" style="stroke:black;fill:white;stroke-width:2;stroke-dasharray:-;" /><text x="190.79999999999998" y="14.109988852157407" dominant-baseline="central" fill="black" font-size="11" font-family="sans" text-anchor="end"><tspan x="190.79999999999998" dy="11">HIGH-beam relay (PDM)</tspan></text><text x="288.0" y="-16.580022295685133" dominant-baseline="ideographic" fill="black" font-size="11" font-family="sans" text-anchor="middle"><tspan x="288.0" dy="11">BAT +B</tspan></text><text x="194.39999999999998" y="67.81997770431484" dominant-baseline="central" fill="black" font-size="11" font-family="sans" text-anchor="end"><tspan x="194.39999999999998" dy="11">Headlights</tspan><tspan x="194.39999999999998" dy="11">HIGH (L + R)</tspan><tspan x="194.39999999999998" dy="11">+ tell-tale</tspan></text><text x="219.6" y="-16.500000000000007" dominant-baseline="central" fill="black" font-size="11" font-family="sans" text-anchor="end"><tspan x="219.6" dy="11">HL.HI.TRG</tspan><tspan x="219.6" dy="11">(dip sw, via BH4)</tspan></text></svg>